<svg xmlns="http://www.w3.org/2000/svg" width="199" height="212" viewBox="0 0 199 212">
    <g fill="none" fill-rule="evenodd">
        <path fill="#F6F8FA" d="M135.669 21.257c20.654-3.627 47.628-.141 57.86 13.52 10.281 13.662 3.773 37.5-7.167 55.308-10.987 17.807-26.502 29.585-38.197 46.497-11.694 16.96-19.664 39.054-35.791 52.622-16.128 13.52-40.413 18.514-51.967 4.098-11.506-14.415-10.28-48.146-22.257-67.461C26.125 106.573.896 101.815.236 93.806c-.708-8.008 23.154-19.268 33.15-35.05 9.998-15.781 6.084-36.133 12.591-38.96 6.508-2.873 23.39 11.825 39.046 13.804 15.656 1.979 29.991-8.715 50.646-12.343z"/>
        <g transform="translate(127.438)">
            <path fill="#E1E4E8" d="M3.204 18.757L45.059 7.53a2.952 2.952 0 0 1 3.617 2.088l5.352 20.003a2.952 2.952 0 0 1-2.087 3.615L10.086 44.465a2.952 2.952 0 0 1-3.617-2.089L1.117 22.374a2.952 2.952 0 0 1 2.087-3.616z"/>
            <path fill="#FFF" d="M26.445 20.114l13.55-3.24a1.772 1.772 0 0 1 2.123 1.264c.246.92-.3 1.866-1.22 2.113l-13.557 3.636a1.91 1.91 0 0 1-2.353-1.403 1.968 1.968 0 0 1 1.457-2.37zM28.405 26.542l9.275-2.13a1.788 1.788 0 0 1 2.127 1.28c.246.921-.3 1.867-1.22 2.114l-9.263 2.484a1.923 1.923 0 0 1-2.367-1.4 1.937 1.937 0 0 1 1.448-2.348z"/>
            <ellipse cx="16.122" cy="29.157" fill="#FFF" rx="6.647" ry="6.653"/>
            <ellipse cx="46.587" cy="8.625" fill="#F94636" rx="8.616" ry="8.625"/>
        </g>
        <path fill="#FFD55F" d="M94.31 39.436c-2.143-2.042-3.724-4.656-3.832-7.759-.31-8.94 12.23-8.285 15.1-4.057 2.87 4.227 3.779 15.62.762 16.746-1.203.45-3.92-.056-6.771-1.392l2.936 11.749-9.937 1.044 1.742-16.33z"/>
        <path fill="#191847" d="M106.727 29.533c-.16-.57-.468-1.19-.72-1.72-.324-.681-.77-1.28-1.25-1.838a14.798 14.798 0 0 0-3.081-2.714c-2.062-1.352-4.572-1.992-6.918-1.452a6.9 6.9 0 0 0-3.212 1.72c-.823.784-1.578 1.89-2.73 2.084-1.254.212-2.528-.782-3.612-1.364-1.223-.657-2.497-1.096-3.854-1.176-2.272-.133-4.292.844-5.639 2.841-1.433 2.126-2.323 5.117-.975 7.593.25.46.55.838.955 1.136.372.273.923.546 1.112 1.025.201.508-.163 1.23-.283 1.72-.17.702-.295 1.434-.147 2.162.243 1.196 1.123 2.27 2.007 2.98.9.723 1.951 1.081 3.045 1.182.73.068 1.47.07 2.19-.06.358-.065.666-.199 1.007-.315.332-.114.532-.043.84.113 1.43.727 2.907.911 4.44.62 1.295-.246 2.767-.722 3.738-1.73 1.078-1.12.91-2.49.478-3.926.31.115 1.135.12.586-.412-.217-.211-.592-.267-.854-.377a2.949 2.949 0 0 1-.87-.536c-1.015-.947-.324-3.165.776-3.634 1.635-.697 2.265 1.657 3.536 2.149.731.283 1.405-.28 1.873-.831.626-.739 1.007-1.67 1.323-2.61.26-.775.494-1.557.761-2.328.124-.36.578-1.39.258-1.748 1.185-.37 2.586-.007 3.698.544.46.228.82.494 1.1.952.06.098.2.394.335.393.253-.003.127-.3.087-.443"/>
        <path fill="#FFD55F" d="M86.793 92.544l26.22 54.31 19.226 45.656 4.964.434-30.276-98.639z"/>
        <path fill="#E4E4E4" d="M129.501 189.986c-.59 1.249-.914 2.19-.969 2.823-.066.752-.04 1.861.08 3.327l23.003 2.012c.775-1.97.525-3.092-.748-3.365a125.143 125.143 0 0 1-3.172-.718l-10.297-5.83a.37.37 0 0 0-.511.153l-.856 1.685c-1.243.465-2.236.664-2.982.6-.618-.055-1.454-.39-2.507-1.008a.738.738 0 0 0-1.04.32z"/>
        <path fill="#2236CC" d="M126.45 184.962l9.827-2.071c-3.092-12.961-7.02-27.27-11.782-42.927-4.763-15.657-10.023-30.824-15.779-45.502l-27.034-2.365c6.21 18.473 13.03 35.361 20.46 50.664 7.43 15.303 15.532 29.37 24.309 42.201z"/>
        <path fill="#FFD55F" d="M84.773 92.367c-4.488 17.886-12.111 40.572-12.702 41.241-.394.446-13.44 3.603-39.138 9.472l.687 4.49c30.183-1.712 46.181-3.69 47.994-5.933 2.72-3.364 17.207-30.554 23.38-47.5l-20.221-1.77z"/>
        <path fill="#2B44FF" d="M43.528 140.048l1.269 7.246c22.12 3.915 35.904 3.69 41.35-.672 5.446-4.363 12.744-21.812 21.895-52.348l-25.78-2.256c-6.301 25.11-9.74 38.177-10.314 39.204-.575 1.027-10.048 3.969-28.42 8.826z"/>
        <path fill="#E4E4E4" d="M34.331 141.35c-1.332-.365-2.315-.52-2.949-.464-.752.066-1.84.284-3.262.656l2.013 23.004c2.074.42 3.136-.02 3.184-1.322.049-1.302.1-2.385.156-3.248l3.954-11.153a.37.37 0 0 0-.24-.477l-1.808-.55c-.673-1.143-1.043-2.087-1.108-2.832-.054-.619.132-1.5.557-2.644a.738.738 0 0 0-.497-.97z"/>
        <g>
            <path fill="#FFD55F" d="M112.773 66.73l9.717-13.282c.965-3.605 2.168-6.616 3.608-9.033.519-.571 1.57-1.26 1.392 1.11-.179 2.37-.26 4.871.547 5.2.807.328 1.77-1.105 2.858-.442.726.442-1.09 2.521-5.446 6.238l-5.425 13.159-7.251-2.95zm23.295-3.481l4.264-5.844c-.63-3.453-.389-5.45.723-5.992.673-.803.988 3.784 2.462 2.686 1.474-1.098 4.069-5.928 5.036-5.644 1.432.42 1.806 3.585 1.376 5.446-.804 3.48-2.048 5.12-5.594 8.165-1.854 1.59-3.601 3.863-5.242 6.815l-3.025-5.632z"/>
            <path fill="#D1D5DA" d="M105.662 68.096c4.554-2.183 10.206-6 14.783-13.189l5.229 4.535c-2.405 6.572-7.007 13.196-12.603 15.616-4.41 1.907-9.1-2.343-7.41-6.962z"/>
            <path fill="#E1E4E8" d="M109.992 71.972c5.19 1.879 14.319-2.238 27.385-12.349 3.017 6.557 4.383 11.218 4.099 13.983-10.882 8.358-20.034 13.115-27.502 15.14.914 6.414.699 12.502-1.922 17.854-3.955 8.074-26.15.145-33.683 1.498-4.433-15.412 4.765-21.483 4.944-31.292.195-10.742 9.074-27.126 10.337-27.104l11.526.201c.415 6.93 2.645 14.486 4.816 22.07z"/>
        </g>
    </g>
</svg>
