<svg id="Capa_1" enable-background="new 0 0 512 512" height="512" viewBox="0 0 512 512" width="512" xmlns="http://www.w3.org/2000/svg"><g><g><circle cx="256" cy="256" fill="#ffee73" r="256"/><g><path d="m512 256c0 36.363-7.584 70.944-21.259 102.272-6.496 14.923-14.389 29.099-23.509 42.379-17.579 25.643-39.712 47.915-65.227 65.664-41.418 28.8-91.733 45.685-146.005 45.685s-104.587-16.885-146.005-45.685c-66.475-46.24-109.995-123.2-109.995-210.315 0-46.219 12.245-89.568 33.685-126.997 44.118 77.066 127.158 129.002 222.315 129.002s178.208-51.936 222.315-129.003c21.44 37.43 33.685 80.779 33.685 126.998z" fill="#ffe131"/></g></g><g><g><path d="m440.46 433.5c-46.57 48.39-112 78.5-184.46 78.5s-137.89-30.11-184.46-78.5z" fill="#374c81"/><path d="m440.46 433.5c-46.57 48.39-112 78.5-184.46 78.5v-78.5z" fill="#323b5a"/></g><g><g><g><g><path d="m369.657 189.614h66.336v109.471h-66.336z" fill="#ff64b9"/><path d="m402.824 189.614h33.168v109.471h-33.168z" fill="#ff48a4"/><g><g><path d="m302.044 129h39.376v189.633h-39.376z" fill="#ff48a4"/><path d="m154.469 134.555c-16.317 0-29.545 13.228-29.545 29.545v80.25l39.376 79.84v-160.09-29.545z" fill="#ff85ce"/><path d="m397.804 134.547c0 16.322-13.231 29.553-29.553 29.553h-243.321v-32.783c0-14.538 11.785-26.323 26.323-26.323h216.997c16.323 0 29.554 13.231 29.554 29.553z" fill="#374c81"/><path d="m397.804 134.547c0 16.322-13.231 29.553-29.553 29.553h-112.251v-59.106h112.251c16.322 0 29.553 13.231 29.553 29.553z" fill="#323b5a"/></g><path d="m468.621 256.783v143.863h-329.885c-7.628 0-13.811-6.184-13.811-13.811v-142.486h331.263c6.867 0 12.433 5.567 12.433 12.434z" fill="#5cbdff"/><path d="m468.621 256.783v143.863h-212.977v-156.297h200.543c6.868 0 12.434 5.567 12.434 12.434z" fill="#24b1ff"/><path d="m490.741 358.272c-6.496 14.923-14.389 29.099-23.509 42.379h-328.501c-7.616 0-13.803-6.197-13.803-13.814v-45.301h343.691c10.528 0 19.402 7.072 22.122 16.736z" fill="#374c81"/><path d="m490.741 358.272c-6.496 14.923-14.389 29.099-23.509 42.379h-211.584v-59.115h212.971c10.528 0 19.402 7.072 22.122 16.736z" fill="#323b5a"/><ellipse cx="191.733" cy="373.431" fill="#4e689b" rx="60.069" ry="60.069" transform="matrix(.16 -.987 .987 .16 -207.588 502.872)"/><ellipse cx="191.733" cy="373.431" fill="#374c81" rx="23.314" ry="23.314" transform="matrix(.924 -.383 .383 .924 -128.311 101.799)"/><ellipse cx="385.239" cy="373.431" fill="#374c81" rx="60.069" ry="60.069" transform="matrix(.16 -.987 .987 .16 -45.079 693.879)"/><ellipse cx="385.239" cy="373.431" fill="#323b5a" rx="23.314" ry="23.314" transform="matrix(.924 -.383 .383 .924 -113.582 175.851)"/></g><path d="m447.814 199.139v8.76c0 5.256-4.252 9.525-9.525 9.525h-70.929c-5.273 0-9.525-4.269-9.525-9.525v-8.76c0-5.256 4.252-9.525 9.525-9.525h70.928c5.273 0 9.526 4.269 9.526 9.525z" fill="#ff85ce"/><path d="m447.814 199.139v8.76c0 5.256-4.252 9.525-9.525 9.525h-35.464v-27.81h35.464c5.272 0 9.525 4.269 9.525 9.525z" fill="#ff64b9"/></g><g><g><g><path d="m47.389 134.555c16.317 0 29.545 13.228 29.545 29.545v80.25l-39.376 79.84v-160.09-29.545z" fill="#ff48a4"/><path d="m100.928 134.539v.011c0 16.32-13.227 29.557-29.547 29.557h-54.389c8.16-21.216 19.061-41.056 32.277-59.115h22.112c16.32 0 29.547 13.227 29.547 29.547z" fill="#323b5a"/></g><path d="m76.939 244.352v142.485c0 7.627-6.187 13.814-13.813 13.814h-18.369c-12.469-18.155-22.635-37.995-30.123-59.115-9.471-26.741-14.634-55.541-14.634-85.536 0-3.904.085-7.787.267-11.648z" fill="#24b1ff"/><path d="m76.939 341.536v45.301c0 7.627-6.187 13.814-13.813 13.814h-18.369c-12.469-18.155-22.635-37.995-30.123-59.115z" fill="#323b5a"/><path d="m70.197 373.429c0 15.595-5.952 29.803-15.701 40.48-3.382-4.309-6.635-8.736-9.739-13.259-4.448-6.475-8.608-13.173-12.437-20.064-5.205-9.291-9.835-18.955-13.845-28.918-1.355-3.338-2.635-6.72-3.84-10.133-3.232-9.12-5.963-18.496-8.16-28.064 1.205-.075 2.421-.107 3.648-.107 33.173.001 60.074 26.892 60.074 60.065z" fill="#374c81"/></g></g></g></g></g></g></g></svg>