<svg id="Capa_1" enable-background="new 0 0 512 512" height="512" viewBox="0 0 512 512" width="512" xmlns="http://www.w3.org/2000/svg"><g><path d="m512 256c0 141.38-114.62 256-256 256-49.99 0-96.63-14.33-136.04-39.1l-.05-.33c-2.81-20.4-21.38-34.83-41.84-32.52-48.14-46.54-78.07-111.8-78.07-184.05 0-141.38 114.62-256 256-256s256 114.62 256 256z" fill="#374c81"/><g><g><path d="m512 256c0 87.11-43.52 164.07-110 210.31-41.41 28.8-91.73 45.69-146 45.69-49.99 0-96.63-14.33-136.04-39.1l-.05-.33c-2.81-20.4-21.38-34.83-41.84-32.52-48.14-46.55-78.07-111.81-78.07-184.05 0-46.22 12.25-89.57 33.68-127 44.12 77.07 127.16 129 222.32 129s178.21-51.93 222.32-129c21.43 37.43 33.68 80.78 33.68 127z" fill="#323b5a"/></g></g></g><g><g><g><path d="m480.037 366.591c-18.803 24.334-53.889 28.833-78.223 10.029l-150.991-116.673 13.545-17.529 150.992 116.674c14.661 11.329 35.82 8.616 47.149-6.045s8.604-35.804-6.057-47.133l-25.29-19.542 13.545-17.529 25.29 19.542c24.333 18.802 28.831 53.888 10.04 78.206z" fill="#d1f6ff"/><path d="m471.273 359.819c-15.097 19.537-43.165 23.122-62.686 8.037l-150.992-116.674 6.773-8.765 150.992 116.674c14.661 11.329 35.82 8.616 47.149-6.045s8.604-35.804-6.057-47.133l-25.29-19.542 6.773-8.765 25.29 19.542c9.769 7.548 15.543 18.322 16.999 29.679 1.467 11.341-1.403 23.223-8.951 32.992z" fill="#fff"/><g><path d="m463.223 297.149c-10.799 13.976-30.872 16.535-44.832 5.748-13.976-10.799-16.563-30.869-5.764-44.845s30.885-16.551 44.861-5.752c13.959 10.787 16.535 30.873 5.735 44.849z" fill="#ff85ce"/><path d="m463.223 297.149c-10.799 13.976-30.872 16.535-44.832 5.748-6.996-5.406-3.91-21.092 6.889-35.067 10.799-13.976 25.212-20.935 32.207-15.529 13.96 10.786 16.536 30.872 5.736 44.848z" fill="#ff64b9"/><path d="m457.476 252.299-39.096 50.596c13.972 10.796 34.05 8.222 44.846-5.75s8.222-34.05-5.75-44.846z" fill="#ff48a4"/></g></g><g><path d="m264.368 242.418-13.545 17.529-150.992-116.674c-14.661-11.329-35.82-8.616-47.149 6.045s-8.604 35.804 6.057 47.133l25.29 19.542-13.545 17.529-25.29-19.542c-24.334-18.803-28.832-53.889-10.042-78.207 18.803-24.334 53.889-28.832 78.223-10.029z" fill="#fff"/><path d="m52.682 149.318c-11.329 14.661-8.604 35.804 6.057 47.133l25.29 19.542-6.773 8.765-25.29-19.542c-19.521-15.084-23.134-43.148-8.049-62.67 7.548-9.769 18.335-15.559 29.679-16.999 11.356-1.456 23.239 1.414 33.007 8.962l150.992 116.674-6.773 8.765-150.991-116.675c-14.661-11.328-35.82-8.615-47.149 6.045z" fill="#d1f6ff"/><g><path d="m102.554 244.324c-10.799 13.976-30.872 16.535-44.832 5.748-13.976-10.799-16.563-30.869-5.764-44.844 10.799-13.976 30.885-16.551 44.86-5.752 13.96 10.787 16.536 30.872 5.736 44.848z" fill="#ff85ce"/><path d="m102.554 244.324c-10.799 13.976-30.872 16.535-44.832 5.748-6.996-5.406-3.91-21.092 6.889-35.067 10.799-13.976 25.212-20.935 32.207-15.529 13.96 10.787 16.536 30.872 5.736 44.848z" fill="#ff64b9"/><path d="m96.807 199.474-39.096 50.596c13.972 10.796 34.05 8.222 44.846-5.75 10.796-13.971 8.222-34.05-5.75-44.846z" fill="#ff48a4"/></g></g><ellipse cx="164.422" cy="179.186" fill="#5cbdff" rx="25.036" ry="25.036" transform="matrix(.992 -.129 .129 .992 -21.669 22.622)"/><ellipse cx="350.769" cy="323.179" fill="#24b1ff" rx="25.036" ry="25.036" transform="matrix(.986 -.169 .169 .986 -49.43 63.71)"/><g><path d="m225.89 316.58-57.79 85.8-48.14 70.52c-3.37-2.12-6.69-4.32-9.96-6.59-4.04-2.81-8-5.74-11.87-8.77-6.99-5.48-13.68-11.32-20.06-17.49l55.8-64.12 68.5-77.53z" fill="#ffe131"/><path d="m225.89 316.58-57.79 85.8-48.14 70.52c-3.37-2.12-6.69-4.32-9.96-6.59-4.04-2.81-8-5.74-11.87-8.77l119.58-154.74z" fill="#fcbf12"/><path d="m168.092 402.386c-6.185-3.557-12.201-7.595-18.002-12.078-5.801-4.482-11.226-9.285-16.229-14.372l68.507-77.528 23.521 18.175z" fill="#ff64b9"/><path d="m168.092 402.386c-6.185-3.557-12.201-7.595-18.002-12.078l33.314-43.113 30.726-39.7 11.761 9.088z" fill="#ff48a4"/><g><circle cx="257.595" cy="251.182" fill="#fcbf12" r="121.338"/><path d="m353.608 325.373c-40.98 53.034-117.17 62.803-170.204 21.822l148.382-192.026c53.034 40.981 62.791 117.186 21.822 170.204z" fill="#ff9f00"/><ellipse cx="257.595" cy="251.182" fill="#ffe131" rx="82.912" ry="82.912" transform="matrix(.707 -.707 .707 .707 -102.165 255.717)"/><path d="m323.203 301.878c-28.002 36.238-80.066 42.913-116.304 14.912l101.392-131.215c36.238 28.001 42.901 80.081 14.912 116.303z" fill="#fcbf12"/></g></g></g></g></svg>