<svg id="Capa_1" enable-background="new 0 0 512 512" height="512" viewBox="0 0 512 512" width="512" xmlns="http://www.w3.org/2000/svg"><g><g><circle cx="256" cy="256" fill="#ffee73" r="256"/><g><g><path d="m512 256c0 61.376-21.6 117.717-57.621 161.813-2.336 2.859-4.736 5.675-7.2 8.427-1.835 2.059-3.701 4.096-5.621 6.101-11.957 12.619-25.227 24.011-39.552 33.973-41.419 28.801-91.734 45.686-146.006 45.686s-104.587-16.885-146.005-45.685c-14.325-9.962-27.595-21.355-39.552-33.973-1.92-2.005-3.787-4.043-5.621-6.101-2.464-2.752-4.864-5.568-7.2-8.427-36.022-44.097-57.622-100.438-57.622-161.814 0-46.219 12.245-89.568 33.675-126.997 8.885 15.499 19.339 29.995 31.147 43.243 10.411 11.691 21.888 22.421 34.261 32.021 43.339 33.685 97.792 53.739 156.917 53.739s113.579-20.053 156.917-53.739c12.373-9.6 23.84-20.32 34.261-32.011 11.808-13.259 22.272-27.744 31.147-43.253 21.43 37.429 33.675 80.778 33.675 126.997z" fill="#ffe131"/></g></g></g><g><g><g><g fill="#374c81"><path d="m86.141 359.759h339.719v31.863h-339.719z"/><path d="m86.141 245.524h339.719v31.872h-339.719z"/><path d="m86.141 131.298h339.719v31.872h-339.719z"/></g><path d="m256 131.298h169.859v31.872h-169.859z" fill="#323b5a"/><path d="m256 245.524h169.859v31.872h-169.859z" fill="#323b5a"/><path d="m256 359.759h169.859v31.863h-169.859z" fill="#323b5a"/><g><g><path d="m447.179 103.541v322.699c-13.397 15.061-28.576 28.533-45.173 40.075-41.419 28.8-91.734 45.685-146.006 45.685s-104.587-16.885-146.005-45.685c-16.597-11.541-31.776-25.013-45.173-40.075v-322.699c0-9.461 7.669-17.141 17.131-17.141 4.736 0 9.013 1.92 12.117 5.024 3.104 3.093 5.013 7.392 5.013 12.117v328.8h313.835v-328.8c0-9.461 7.669-17.141 17.131-17.141 4.736 0 9.013 1.92 12.117 5.024 3.093 3.093 5.013 7.392 5.013 12.117z" fill="#db6445"/><path d="m447.179 103.541v322.699c-13.397 15.061-28.576 28.533-45.173 40.075-41.419 28.8-91.734 45.685-146.006 45.685v-79.659h156.917v-328.8c0-9.461 7.669-17.141 17.131-17.141 4.736 0 9.013 1.92 12.117 5.024 3.094 3.093 5.014 7.392 5.014 12.117z" fill="#e56e3e"/></g><path d="m441.557 432.341c-11.957 12.619-25.227 24.011-39.552 33.973-41.418 28.801-91.733 45.686-146.005 45.686s-104.587-16.885-146.005-45.685c-14.325-9.962-27.595-21.355-39.552-33.973h371.114z" fill="#e56e3e"/></g><g><path d="m135.761 416.412c-13.281 0-24.048-10.767-24.048-24.048v-33.352c0-13.281 10.767-24.048 24.048-24.048 13.281 0 24.048 10.767 24.048 24.048v33.352c0 13.281-10.767 24.048-24.048 24.048z" fill="#807bef"/><path d="m183.857 416.412c-13.281 0-24.048-10.767-24.048-24.048v-33.352c0-13.281 10.767-24.048 24.048-24.048 13.281 0 24.048 10.767 24.048 24.048v33.352c-.001 13.281-10.767 24.048-24.048 24.048z" fill="#807bef"/><g fill="#ff85ce"><path d="m135.761 302.184c-13.281 0-24.048-10.767-24.048-24.048v-33.352c0-13.281 10.767-24.048 24.048-24.048 13.281 0 24.048 10.767 24.048 24.048v33.352c0 13.282-10.767 24.048-24.048 24.048z"/><path d="m183.857 302.184c-13.281 0-24.048-10.767-24.048-24.048v-33.352c0-13.281 10.767-24.048 24.048-24.048 13.281 0 24.048 10.767 24.048 24.048v33.352c-.001 13.282-10.767 24.048-24.048 24.048z"/><path d="m231.952 302.184c-13.281 0-24.048-10.767-24.048-24.048v-33.352c0-13.281 10.767-24.048 24.048-24.048 13.281 0 24.048 10.767 24.048 24.048v33.352c0 13.282-10.767 24.048-24.048 24.048z"/></g><path d="m280.073 187.957c-13.281 0-24.048-10.767-24.048-24.048v-33.352c0-13.281 10.767-24.048 24.048-24.048 13.281 0 24.048 10.767 24.048 24.048v33.352c-.001 13.281-10.767 24.048-24.048 24.048z" fill="#5cbdff"/><path d="m328.168 187.957c-13.281 0-24.048-10.767-24.048-24.048v-33.352c0-13.281 10.767-24.048 24.048-24.048 13.281 0 24.048 10.767 24.048 24.048v33.352c0 13.281-10.767 24.048-24.048 24.048z" fill="#5cbdff"/><path d="m376.264 187.957c-13.281 0-24.048-10.767-24.048-24.048v-33.352c0-13.281 10.767-24.048 24.048-24.048 13.281 0 24.048 10.767 24.048 24.048v33.352c0 13.281-10.767 24.048-24.048 24.048z" fill="#5cbdff"/><path d="m336.435 416.412c-13.281 0-24.048-10.767-24.048-24.048v-33.352c0-13.281 10.767-24.048 24.048-24.048 13.281 0 24.048 10.767 24.048 24.048v33.352c0 13.281-10.766 24.048-24.048 24.048z" fill="#807bef"/></g><path d="m183.857 220.736v81.448c13.281 0 24.048-10.767 24.048-24.048v-33.352c-.001-13.281-10.767-24.048-24.048-24.048z" fill="#ff64b9"/><path d="m135.761 220.736v81.448c13.281 0 24.048-10.767 24.048-24.048v-33.352c0-13.281-10.767-24.048-24.048-24.048z" fill="#ff64b9"/><path d="m231.952 220.736v81.448c13.281 0 24.048-10.767 24.048-24.048v-33.352c0-13.281-10.767-24.048-24.048-24.048z" fill="#ff64b9"/><path d="" fill="#ff85ce"/><path d="" fill="#ff85ce"/><path d="m135.761 334.964v81.448c13.281 0 24.048-10.767 24.048-24.048v-33.352c0-13.282-10.767-24.048-24.048-24.048z" fill="#6666e2"/><path d="m183.857 334.964v81.448c13.281 0 24.048-10.767 24.048-24.048v-33.352c-.001-13.282-10.767-24.048-24.048-24.048z" fill="#6666e2"/><path d="m336.435 334.964v81.448c13.281 0 24.048-10.767 24.048-24.048v-33.352c0-13.282-10.766-24.048-24.048-24.048z" fill="#6666e2"/><path d="" fill="#ffee73"/><path d="" fill="#5cbdff"/><path d="m280.073 106.509v81.448c13.281 0 24.048-10.767 24.048-24.048v-33.352c-.001-13.281-10.767-24.048-24.048-24.048z" fill="#24b1ff"/><path d="m328.168 106.509v81.448c13.281 0 24.048-10.767 24.048-24.048v-33.352c0-13.281-10.767-24.048-24.048-24.048z" fill="#24b1ff"/><path d="m376.264 106.509v81.448c13.281 0 24.048-10.767 24.048-24.048v-33.352c0-13.281-10.767-24.048-24.048-24.048z" fill="#24b1ff"/></g><path d="m441.557 432.341c-11.957 12.619-25.227 24.011-39.552 33.973-41.418 28.801-91.733 45.686-146.005 45.686v-79.659z" fill="#ce5429"/></g></g></g></svg>