<svg id="Capa_1" enable-background="new 0 0 512 512" height="512" viewBox="0 0 512 512" width="512" xmlns="http://www.w3.org/2000/svg"><g><g><path d="m512 256c0 65.76-24.789 125.728-65.536 171.061l-.007.003c-121.006 54.057-259.284 54.138-380.353.223l-.579-.258-.011.011c-40.735-45.333-65.514-105.291-65.514-171.04 0-141.387 114.613-256 256-256s256 114.613 256 256z" fill="#374c81"/><g><g><path d="m512 256c0 65.749-24.8 125.717-65.536 171.061l-.011.011c-121.003 54.052-259.277 54.132-380.342.218l-.586-.261c-.004-.003-.009-.006-.013-.009-40.729-45.331-65.512-105.29-65.512-171.02 0-46.219 12.245-89.568 33.675-126.997 44.128 77.066 127.168 129.002 222.325 129.002s178.208-51.936 222.325-129.003c21.43 37.43 33.675 80.779 33.675 126.998z" fill="#323b5a"/></g></g></g><g><g><g><g><g><g><path d="m133.286 424.1v28.267h-34.446v-28.267l6.211-6.211h22.056c2.408 2.44 3.771 3.771 6.179 6.211z" fill="#fcbf12"/><path d="m133.286 424.1h-34.446l6.211-6.211h22.056c2.408 2.44 3.771 3.771 6.179 6.211z" fill="#ffe131"/></g><g><path d="m223.691 424.1v28.267h-34.447v-28.267l6.211-6.211h22.056c2.409 2.44 3.771 3.771 6.18 6.211z" fill="#ff9f00"/><path d="m223.691 424.1h-34.447l6.211-6.211h22.056c2.409 2.44 3.771 3.771 6.18 6.211z" fill="#fcbf12"/></g></g><g><path d="m256.331 444.256v67.744h-.331c-1.013 0-2.037-.011-3.051-.021-1.333-.011-2.656-.043-3.989-.075-1.024-.021-2.048-.064-3.072-.096-.128-.011-.256-.011-.373-.021-1.557-.064-3.115-.139-4.672-.224-48.469-2.837-93.312-19.147-130.848-45.248-13.696-9.525-26.421-20.363-37.984-32.32h174.059c5.674 0 10.261 4.597 10.261 10.261z" fill="#ffee73"/><path d="m256.331 444.256v67.744h-.331c-52.939 0-102.123-16.064-142.944-43.595v-34.411h133.013c5.675.001 10.262 4.598 10.262 10.262z" fill="#ffe131"/><path d="m256.331 444.256v67.744h-.331c-33.461 0-65.429-6.421-94.731-18.112v-59.893h84.8c5.675 0 10.262 4.597 10.262 10.261z" fill="#fcbf12"/></g></g><g><g><g><path d="m323.424 424.1v28.267h-34.447v-28.267l6.211-6.211h22.056c2.409 2.44 3.772 3.771 6.18 6.211z" fill="#0098ff"/><path d="m323.424 424.1h-34.447l6.211-6.211h22.056c2.409 2.44 3.772 3.771 6.18 6.211z" fill="#24b1ff"/></g><g><path d="m413.828 424.1v28.267h-34.447v-28.267l6.211-6.211h22.056c2.409 2.44 3.772 3.771 6.18 6.211z" fill="#046da8"/><path d="m413.828 424.1h-34.447l6.211-6.211h22.056c2.409 2.44 3.772 3.771 6.18 6.211z" fill="#0098ff"/></g></g><g><path d="m439.989 433.995c-11.563 11.957-24.288 22.795-37.984 32.32-15.051 10.464-31.264 19.349-48.416 26.421-.736.299-1.461.597-2.187.885v-.011c-4.597 1.845-9.248 3.563-13.973 5.152-.939.309-1.888.629-2.838.928-.949.309-1.899.608-2.848.907-1.909.587-3.829 1.152-5.749 1.707-.96.267-1.931.533-2.891.8-.971.267-1.941.523-2.912.768-2.912.757-5.856 1.461-8.811 2.112-2.005.448-4.011.864-6.027 1.259-.715.139-1.429.277-2.155.405-15.179 2.837-30.837 4.331-46.837 4.352h-.032v-67.744c0-5.664 4.597-10.261 10.261-10.261z" fill="#5cbdff"/><path d="m439.989 433.995c-11.563 11.957-24.288 22.795-37.984 32.32-15.051 10.464-31.264 19.349-48.416 26.421-.736.299-1.461.597-2.187.885-4.597 1.845-9.248 3.563-13.973 5.141-.939.309-1.888.629-2.838.928-.949.309-1.899.608-2.848.907-1.909.597-3.829 1.163-5.749 1.707-.96.267-1.931.533-2.891.8-.971.267-1.941.523-2.912.768-2.912.768-5.856 1.472-8.811 2.112-2.005.448-4.011.864-6.027 1.259-.715.149-1.44.277-2.155.416v-73.664z" fill="#24b1ff"/><path d="m439.989 433.995c-11.563 11.957-24.288 22.795-37.984 32.32-15.115 10.507-31.403 19.424-48.64 26.517-.661.267-1.312.533-1.963.789v-59.627h88.587z" fill="#0098ff"/></g></g></g><g><g><g><path d="m228.355 329.031v28.267h-34.447v-28.267l6.211-6.211h22.056c2.409 2.44 3.772 3.771 6.18 6.211z" fill="#ff48a4"/><path d="m228.355 329.031h-34.447l6.211-6.211h22.056c2.409 2.44 3.772 3.771 6.18 6.211z" fill="#ff64b9"/></g><g><path d="m318.76 329.031v28.267h-34.447v-28.267l6.211-6.211h22.056c2.408 2.44 3.771 3.771 6.18 6.211z" fill="#ba1337"/><path d="m318.76 329.031h-34.447l6.211-6.211h22.056c2.408 2.44 3.771 3.771 6.18 6.211z" fill="#ff48a4"/></g></g><g><path d="m256.334 338.929h-84.808c-5.667 0-10.261 4.594-10.261 10.261v74.546c0 5.667 4.594 10.261 10.261 10.261h84.808 84.807c5.667 0 10.262-4.594 10.262-10.261v-74.546c0-5.667-4.594-10.261-10.262-10.261z" fill="#ff85ce"/><g><path d="m446.464 349.195v77.867c-2.112 2.357-4.277 4.672-6.485 6.944h-78.315c-5.675 0-10.262-4.597-10.262-10.261v-74.549c0-5.664 4.587-10.261 10.262-10.261h74.539c5.674-.002 10.261 4.596 10.261 10.26z" fill="#00e8e9"/><path d="m446.464 349.195v77.867c-2.112 2.357-4.277 4.672-6.485 6.944h-54.891c-5.675 0-10.261-4.597-10.261-10.261v-74.549c0-5.664 4.587-10.261 10.261-10.261h51.115c5.674-.002 10.261 4.596 10.261 10.26z" fill="#00d3cd"/><path d="m446.464 349.195v77.867c-2.112 2.357-4.277 4.672-6.485 6.944h-41.045v-95.072h37.269c5.674-.001 10.261 4.597 10.261 10.261z" fill="#00c1b7"/></g><g><path d="m160.587 349.195v74.549c0 5.664-4.587 10.261-10.261 10.261h-78.305l-.011-.011c-2.208-2.283-4.373-4.597-6.485-6.965v-77.835c0-5.664 4.587-10.261 10.261-10.261h74.539c5.675 0 10.262 4.598 10.262 10.262z" fill="#00e8e9"/><path d="m160.59 349.189v74.549c0 5.664-4.587 10.261-10.262 10.261h-51.114c-5.675 0-10.261-4.597-10.261-10.261v-74.549c0-5.664 4.587-10.261 10.261-10.261h51.115c5.674 0 10.261 4.597 10.261 10.261z" fill="#00d3cd"/><path d="m160.59 349.189v74.549c0 5.664-4.587 10.261-10.262 10.261h-37.269v-95.072h37.269c5.675.001 10.262 4.598 10.262 10.262z" fill="#00c1b7"/></g><path d="m279.765 338.929h-71.637v95.069h71.637 61.376c5.667 0 10.262-4.594 10.262-10.261v-74.547c0-5.667-4.594-10.261-10.262-10.261z" fill="#ff64b9"/><path d="m256.334 338.929v95.069h84.807c5.667 0 10.262-4.594 10.262-10.261v-74.547c0-5.667-4.594-10.261-10.262-10.261z" fill="#ff48a4"/></g></g><g><g><g><g><path d="m133.286 233.963v28.267h-34.446v-28.267l6.211-6.211h22.056c2.408 2.44 3.771 3.77 6.179 6.211z" fill="#fcbf12"/><path d="m133.286 233.963h-34.446l6.211-6.211h22.056c2.408 2.44 3.771 3.77 6.179 6.211z" fill="#ffe131"/></g><g><path d="m223.691 233.963v28.267h-34.447v-28.267l6.211-6.211h22.056c2.409 2.44 3.771 3.77 6.18 6.211z" fill="#ff9f00"/><path d="m223.691 233.963h-34.447l6.211-6.211h22.056c2.409 2.44 3.771 3.77 6.18 6.211z" fill="#fcbf12"/></g></g><g><path d="m161.265 243.86h-84.807c-5.667 0-10.261 4.594-10.261 10.261v74.546c0 5.667 4.594 10.261 10.261 10.261h84.807 84.807c5.667 0 10.262-4.594 10.262-10.261v-74.546c0-5.667-4.594-10.261-10.262-10.261z" fill="#ffee73"/><path d="m184.697 243.86h-71.638v95.069h71.638 61.376c5.667 0 10.262-4.594 10.262-10.261v-74.546c0-5.667-4.594-10.261-10.262-10.261h-61.376z" fill="#ffe131"/><path d="m161.265 243.86v95.069h84.807c5.667 0 10.262-4.594 10.262-10.261v-74.546c0-5.667-4.594-10.261-10.262-10.261h-84.807z" fill="#fcbf12"/></g></g><g><g><g><path d="m323.424 233.963v28.267h-34.447v-28.267l6.211-6.211h22.056c2.409 2.44 3.772 3.77 6.18 6.211z" fill="#0098ff"/><path d="m323.424 233.963h-34.447l6.211-6.211h22.056c2.409 2.44 3.772 3.77 6.18 6.211z" fill="#24b1ff"/></g><g><path d="m413.828 233.963v28.267h-34.447v-28.267l6.211-6.211h22.056c2.409 2.44 3.772 3.77 6.18 6.211z" fill="#046da8"/><path d="m413.828 233.963h-34.447l6.211-6.211h22.056c2.409 2.44 3.772 3.77 6.18 6.211z" fill="#0098ff"/></g></g><g><path d="m351.403 243.86h-84.808c-5.667 0-10.261 4.594-10.261 10.261v74.546c0 5.667 4.594 10.261 10.261 10.261h84.808 84.807c5.667 0 10.261-4.594 10.261-10.261v-74.546c0-5.667-4.594-10.261-10.261-10.261z" fill="#5cbdff"/><path d="m374.834 243.86h-71.638v95.069h71.638 61.376c5.667 0 10.261-4.594 10.261-10.261v-74.546c0-5.667-4.594-10.261-10.261-10.261h-61.376z" fill="#24b1ff"/><path d="m351.403 243.86v95.069h84.807c5.667 0 10.261-4.594 10.261-10.261v-74.546c0-5.667-4.594-10.261-10.261-10.261h-84.807z" fill="#0098ff"/></g></g></g></g><g><g><g><path d="m316.972 43.439-10.627 24.357-29.681-12.95 10.627-24.357 7.687-3.017 19.005 8.292c1.157 3.008 1.831 4.667 2.989 7.675z" fill="#00c1b7"/><path d="m316.972 43.439-29.681-12.95 7.687-3.017 19.005 8.292c1.157 3.008 1.831 4.667 2.989 7.675z" fill="#00d3cd"/></g><g><path d="m394.869 77.425-10.627 24.357-29.681-12.95 10.627-24.357 7.687-3.017 19.005 8.292c1.158 3.008 1.831 4.667 2.989 7.675z" fill="#00b2a5"/><path d="m394.869 77.425-29.681-12.95 7.687-3.017 19.005 8.292c1.158 3.008 1.831 4.667 2.989 7.675z" fill="#00c1b7"/></g></g><path d="m337.359 62.485-73.075-31.882c-4.883-2.131-10.569.101-12.699 4.984l-28.024 64.233c-2.131 4.883.101 10.569 4.984 12.699l73.075 31.882 73.075 31.882c4.883 2.13 10.569-.101 12.699-4.984l28.024-64.233c2.13-4.883-.101-10.569-4.984-12.699z" fill="#00e8e9"/><path d="m357.549 71.294-61.727-26.931-35.74 81.917 61.727 26.931 52.885 23.073c4.883 2.13 10.569-.101 12.699-4.984l28.024-64.233c2.13-4.883-.101-10.569-4.984-12.699z" fill="#00d3cd"/><path d="m337.359 62.485-35.74 81.917 73.075 31.882c4.883 2.13 10.569-.101 12.699-4.984l28.024-64.233c2.13-4.883-.101-10.569-4.984-12.699z" fill="#00c1b7"/></g></g></g></svg>