<svg id="Capa_1" enable-background="new 0 0 512 512" height="512" viewBox="0 0 512 512" width="512" xmlns="http://www.w3.org/2000/svg"><g><g><path d="m512 256c0 68.928-27.232 131.488-71.541 177.504l-40.907 17.408c-91.723 39.029-195.381 39.029-287.104 0l-40.907-17.408s0 0-.011 0c-44.298-46.016-71.53-108.576-71.53-177.504 0-141.387 114.613-256 256-256s256 114.613 256 256z" fill="#374c81"/><g><g><path d="m512 256c0 68.917-27.232 131.477-71.541 177.504l-40.907 17.408c-91.723 39.029-195.381 39.029-287.104 0l-40.907-17.408c-44.309-46.027-71.541-108.587-71.541-177.504 0-46.219 12.245-89.568 33.685-126.997 44.118 77.066 127.158 129.002 222.315 129.002s178.208-51.936 222.315-129.003c21.44 37.43 33.685 80.779 33.685 126.998z" fill="#323b5a"/></g></g></g><g><g><g><path d="m440.46 433.5c-46.57 48.39-112 78.5-184.46 78.5s-137.89-30.11-184.46-78.5z" fill="#fff"/><path d="m440.46 433.5c-46.57 48.39-112 78.5-184.46 78.5v-78.5z" fill="#d1f6ff"/></g><g><g><path d="m231.542 245.743h-129.313-10.61c-13.215 0-23.923 10.717-23.923 23.906v23.559 92.832 23.559c0 13.188 10.709 23.906 23.923 23.906h10.611 129.312c13.215 0 23.906-10.717 23.906-23.906v-139.95c-.001-13.188-10.692-23.906-23.906-23.906z" fill="#ff85ce"/><path d="m255.451 269.65v139.945c0 13.193-10.695 23.905-23.905 23.905h-69.972v-187.755h69.972c13.209 0 23.905 10.712 23.905 23.905z" fill="#ff64b9"/><path d="m106.571 284.62h110.005v110.005h-110.005z" fill="#fff"/><path d="m419.302 245.743h-9.713-130.219c-13.206 0-23.914 10.709-23.914 23.915v139.932c0 13.206 10.709 23.914 23.914 23.914h130.219 9.713c13.206 0 23.914-10.709 23.914-23.914v-21.888-96.155-21.888c.001-13.207-10.708-23.916-23.914-23.916z" fill="#5cbdff"/><path d="m419.311 245.743h-9.722-60.253v187.761h60.253 9.722c13.206 0 23.906-10.717 23.906-23.906v-21.897-96.155-21.897c0-13.188-10.7-23.906-23.906-23.906z" fill="#24b1ff"/><path d="m294.334 284.621h110.005v110.005h-110.005z" fill="#fff"/><path d="m349.336 284.62h55.002v110.005h-55.002z" fill="#d1f6ff"/><path d="m325.427 245.872h-139.937c-13.205 0-23.909-10.705-23.909-23.909v-139.938c0-13.205 10.704-23.909 23.909-23.909h139.937c13.205 0 23.909 10.705 23.909 23.909v139.937c0 13.205-10.705 23.91-23.909 23.91z" fill="#00e8e9"/><path d="m349.332 82.021v139.945c0 13.193-10.695 23.905-23.905 23.905h-69.973v-187.755h69.973c13.21 0 23.905 10.712 23.905 23.905z" fill="#00d3cd"/><path d="m200.456 96.991h110.005v110.005h-110.005z" fill="#fff"/><path d="m161.573 284.62h55.002v110.005h-55.002z" fill="#d1f6ff"/><path d="m255.458 96.991h55.002v110.005h-55.002z" fill="#d1f6ff"/><g><path d="m290.689 175.069-19.144-43.788c-1.391-3.202-3.671-5.834-6.488-7.661-2.799-1.827-6.119-2.867-9.606-2.867-6.974 0-13.294 4.124-16.093 10.528l-19.144 43.788c-.62 1.425-.905 2.883-.905 4.308 0 5.65 4.56 10.729 10.746 10.729 4.443 0 8.415-2.733 10.008-6.873l2.012-5.213h26.353l2.012 5.213c1.592 4.141 5.582 6.873 10.025 6.873h.385c7.743 0 12.94-7.946 9.839-15.037zm-42.178-13.898 6.739-17.435.201.52 6.538 16.915z" fill="#374c81"/></g><g><path d="m184.221 338.03c6.337-3.169 9.606-8.516 9.606-14.953 0-10.511-8.919-18.138-28.029-18.138h-24.693c-4.828 0-8.767 3.939-8.767 8.767v51.834c0 4.828 3.939 8.768 8.767 8.768h26.671c19.128 0 29.32-7.041 29.32-19.128 0-8.231-4.744-14.166-12.875-17.15zm-27.342-16.73h5.75c5.247 0 7.628 1.777 7.628 5.146 0 3.37-2.38 5.146-7.628 5.146h-5.75c-2.85 0-5.163-2.297-5.163-5.146 0-2.85 2.313-5.146 5.163-5.146zm8.919 36.646h-8.919c-2.85 0-5.163-2.297-5.163-5.147v-.587c0-2.85 2.313-5.163 5.163-5.163h8.919c5.146 0 7.728 1.895 7.728 5.448 0 3.571-2.582 5.449-7.728 5.449z" fill="#374c81"/></g><g><path d="m377.106 354.04c-3.185-2.85-7.913-3.152-11.45-.754-2.716 1.844-5.784 2.833-9.304 2.833-2.615 0-4.979-.52-7.024-1.459-5.23-2.448-8.449-7.795-8.449-15.037s3.219-12.59 8.449-15.02c2.045-.956 4.409-1.475 7.024-1.475 3.52 0 6.588.989 9.304 2.833 1.593 1.073 3.42 1.609 5.247 1.609 2.229 0 4.442-.788 6.202-2.364 4.744-4.241 3.94-11.852-1.542-15.054-5.633-3.286-12.472-5.029-20.351-5.029-2.012 0-3.99.134-5.884.386-18.139 2.38-30.879 15.775-30.879 34.114 0 18.34 12.741 31.734 30.879 34.115 1.894.251 3.872.386 5.884.386 7.879 0 14.719-1.743 20.351-5.029 3.051-1.777 4.66-4.929 4.66-8.114.001-2.515-1.021-5.064-3.117-6.941z" fill="#374c81"/></g><g fill="#323b5a"><path d="m280.848 190.106h-.385c-4.442 0-8.432-2.733-10.025-6.873l-2.012-5.213h-12.975v-16.848h6.538l-6.538-16.915v-23.503c3.487 0 6.806 1.04 9.606 2.867 2.816 1.827 5.096 4.46 6.488 7.661l19.144 43.788c3.101 7.09-2.096 15.036-9.841 15.036z"/><path d="m197.096 355.18c0 12.087-10.193 19.128-29.32 19.128h-6.202v-16.362h4.224c5.146 0 7.728-1.877 7.728-5.448 0-3.554-2.582-5.448-7.728-5.448h-4.224v-15.456h1.056c5.247 0 7.628-1.777 7.628-5.146 0-3.37-2.38-5.146-7.628-5.146h-1.056v-16.361h4.224c19.111 0 28.029 7.627 28.029 18.138 0 6.437-3.269 11.785-9.606 14.953 8.131 2.982 12.875 8.917 12.875 17.148z"/><path d="m380.224 360.98c0 3.185-1.609 6.337-4.66 8.114-5.633 3.286-12.472 5.029-20.351 5.029-2.012 0-3.99-.134-5.884-.386v-19.077c2.045.939 4.409 1.459 7.024 1.459 3.52 0 6.588-.989 9.304-2.833 3.537-2.397 8.265-2.095 11.45.754 2.095 1.877 3.117 4.426 3.117 6.94z"/><path d="m356.353 323.127c-2.615 0-4.979.52-7.024 1.475v-19.094c1.894-.251 3.872-.386 5.884-.386 7.879 0 14.719 1.743 20.351 5.029 5.482 3.202 6.286 10.813 1.542 15.054-1.76 1.576-3.973 2.364-6.202 2.364-1.827 0-3.655-.537-5.247-1.609-2.716-1.844-5.784-2.833-9.304-2.833z"/></g></g></g></g></g></g></svg>