<svg id="Capa_1" enable-background="new 0 0 512 512" height="512" viewBox="0 0 512 512" width="512" xmlns="http://www.w3.org/2000/svg"><g><g><circle cx="256" cy="256" fill="#ffee73" r="256"/><g><g><path d="m512 256c0 87.11-43.52 164.07-110 210.31-41.41 28.8-91.73 45.69-146 45.69s-104.59-16.89-146-45.69c-66.48-46.24-110-123.2-110-210.31 0-46.22 12.25-89.57 33.68-127 44.12 77.07 127.16 129 222.32 129s178.21-51.93 222.32-129c21.43 37.43 33.68 80.78 33.68 127z" fill="#ffe131"/></g></g></g><g><g><g><path d="m481.152 303.925c0 6.72-.299 13.365-.875 19.936-3.605 41.141-18.283 79.104-41.024 110.901-.011.011-.011.011-.021.021-46.496 47.638-111.403 77.217-183.232 77.217-71.819 0-136.725-29.568-183.211-77.205-22.763-31.808-37.451-69.781-41.056-110.933-.576-6.571-.875-13.216-.875-19.936s.299-13.376.875-19.947c3.851-43.947 20.341-84.277 45.792-117.323 8.181-10.635 17.291-20.501 27.2-29.493 35.349-32.096 80.971-53.099 131.339-57.515 6.571-.576 13.216-.875 19.936-.875s13.376.299 19.936.864c50.368 4.427 95.979 25.419 131.328 57.515 9.92 9.003 19.04 18.869 27.211 29.504 25.461 33.045 41.952 73.376 45.803 117.323.575 6.57.874 13.226.874 19.946z" fill="#f99762"/><path d="m481.152 303.925c0 48.811-15.531 93.973-41.92 130.859-46.496 47.637-111.403 77.216-183.232 77.216v-433.227c124.341 0 225.152 100.8 225.152 225.152z" fill="#ef7f4d"/></g><path d="m480.277 323.861h-97.621c4.299 44.469 22.848 84.832 51.029 116.437-9.6 9.248-19.925 17.771-30.869 25.44-35.072-39.776-55.989-89.141-60.203-141.877h-66.677v187.371c-6.581.512-13.227.768-19.936.768s-13.365-.256-19.936-.768v-187.371h-66.667c-4.213 52.736-25.131 102.101-60.203 141.877-10.955-7.669-21.28-16.181-30.869-25.451 28.171-31.605 46.731-71.968 51.04-116.427h-97.632c-.576-6.571-.875-13.216-.875-19.936s.299-13.376.875-19.947h97.632c-4.352-44.885-23.221-85.579-51.84-117.323 8.181-10.635 17.291-20.501 27.2-29.493 37.76 40.587 60.277 91.872 64.672 146.816h66.667v-204.329c6.571-.576 13.216-.875 19.936-.875s13.376.299 19.936.864v204.341h66.677c4.395-54.944 26.912-106.229 64.651-146.827 9.92 9.003 19.04 18.869 27.211 29.504-28.619 31.744-47.477 72.437-51.819 117.323h97.621c.576 6.571.875 13.227.875 19.947s-.299 13.366-.875 19.936z" fill="#e56e3e"/><path d="m480.277 323.861h-97.621c4.299 44.469 22.848 84.832 51.029 116.437-9.6 9.248-19.925 17.771-30.869 25.44-35.072-39.776-55.989-89.141-60.203-141.877h-66.677v187.371c-6.581.512-13.227.768-19.936.768v-433.227c6.72 0 13.376.299 19.936.864v204.341h66.677c4.395-54.944 26.912-106.229 64.651-146.827 9.92 9.003 19.04 18.869 27.211 29.504-28.619 31.744-47.477 72.437-51.819 117.323h97.621c.576 6.571.875 13.227.875 19.947s-.299 13.366-.875 19.936z" fill="#ce5429"/></g></g></g></svg>