<svg id="Capa_1" enable-background="new 0 0 512 512" height="512" viewBox="0 0 512 512" width="512" xmlns="http://www.w3.org/2000/svg"><g><g><path d="m439.158 434.859v-.011l-6.561 2.764c-113.11 47.646-240.478 48.604-354.292 2.666-48.72-46.976-78.853-113.104-78.297-186.27 1.067-140.331 116.101-254.246 256.436-254.008 141.183.24 255.556 114.761 255.556 256 0 69.6-27.776 132.715-72.842 178.859z" fill="#5cbdff"/><g><g><path d="m512 256c0 69.589-27.776 132.704-72.843 178.848l-6.558 2.763c-113.112 47.647-240.481 48.604-354.297 2.664l-.02-.008c-48.266-46.56-78.282-111.915-78.282-184.267 0-46.219 12.245-89.568 33.675-126.997 44.128 77.066 127.168 129.002 222.325 129.002s178.208-51.936 222.325-129.003c21.43 37.43 33.675 80.779 33.675 126.998z" fill="#24b1ff"/></g></g></g><g><g><path d="m481.152 304.651v.021c-.15 48.469-15.669 93.451-42.048 130.24-46.485 47.563-111.338 77.088-183.104 77.088s-136.629-29.525-183.115-77.099c-25.525-35.573-40.939-78.944-41.973-125.995-.043-1.429-.064-2.848-.064-4.256-.171-47.189 14.261-91.136 39.083-127.488 28.48-41.771 70.699-73.504 120.288-88.619 19.264-5.888 39.648-9.259 60.8-9.717 1.653-.043 3.317-.053 4.981-.053 22.859 0 44.949 3.392 65.792 9.76 49.408 15.072 91.733 46.741 120.32 88.629 23.733 34.741 37.974 76.544 38.976 121.749.043 1.932.064 3.83.064 5.74z" fill="#fff"/><path d="m481.152 304.651v.021c-.15 48.437-15.648 93.397-41.995 130.176-1.205 1.237-2.422 2.453-3.648 3.659-34.251 33.707-77.952 57.824-126.763 68.043-17.013 3.573-34.666 5.45-52.746 5.45v-433.227c22.859 0 44.949 3.392 65.792 9.76 49.408 15.072 91.733 46.741 120.32 88.629 23.733 34.741 37.974 76.544 38.976 121.749.043 1.932.064 3.83.064 5.74z" fill="#d1f6ff"/><path d="m333.905 287.838-29.763 91.567h-96.263l-29.762-91.567 77.884-56.606z" fill="#374c81"/><g><path d="m330.967 116.764-74.966 54.461-74.946-54.461 9.161-28.216c19.268-5.895 39.657-9.257 60.8-9.721 1.662-.039 3.324-.058 4.986-.058 22.863 0 44.953 3.401 65.786 9.76z" fill="#374c81"/></g><g><path d="m126.555 265.265-74.946 54.461-20.756-15.074c-.174-47.195 14.263-91.142 39.077-127.495h28.004z" fill="#374c81"/></g><g><path d="m204.629 505.568-1.365.992c-48.811-10.229-92.501-34.336-126.752-68.032l6.848-21.088h92.651z" fill="#374c81"/></g><g><path d="m435.509 438.507c-34.251 33.707-77.952 57.824-126.763 68.043l-1.355-.981 28.619-88.128h92.651z" fill="#323b5a"/></g><g><path d="m481.15 304.652v.019l-20.737 15.055-74.946-54.461 28.622-88.108h28.023c23.732 34.748 37.976 76.551 38.981 121.755.038 1.933.057 3.827.057 5.74z" fill="#323b5a"/></g><path d="m190.215 88.548-9.161 28.216-83.121 60.394h-28.004c28.487-41.764 70.695-73.497 120.286-88.61z" fill="#d1f6ff"/><path d="m83.36 417.44-6.859 21.088c-1.227-1.205-2.432-2.421-3.627-3.648-25.525-35.563-40.928-78.933-41.963-125.973-.043-1.429-.064-2.848-.064-4.256l20.757 15.072z" fill="#d1f6ff"/><path d="m481.152 304.672c-.15 48.459-15.659 93.44-42.027 130.219-1.194 1.216-2.389 2.421-3.605 3.627l-6.859-21.077 31.755-97.717z" fill="#b3f4ff"/><path d="m442.111 177.158h-28.023l-83.122-60.394-9.18-28.235c49.418 15.074 91.742 46.749 120.325 88.629z" fill="#b3f4ff"/><g fill="#323b5a"><path d="m330.967 116.764-74.966 54.461v-92.456c22.863 0 44.953 3.401 65.786 9.76z"/><path d="m333.905 287.838-29.763 91.567h-48.141v-148.173z"/></g></g></g></g></svg>