<svg id="Capa_1" enable-background="new 0 0 512.007 512.007" height="512" viewBox="0 0 512.007 512.007" width="512" xmlns="http://www.w3.org/2000/svg"><g><g><circle cx="256.004" cy="256.004" fill="#ffee73" r="256"/><g><g><path d="m453.734 418.594c-.96 1.17-1.94 2.34-2.92 3.49-10.16 11.91-21.4 22.89-33.57 32.77l-.01.01c-2.8 2.28-5.66 4.5-8.56 6.66-40.46 30.11-90.22 48.61-144.46 50.35-2.49.08-4.98.12-7.46.12-.08.01-.15.01-.23 0-.17.01-.35.01-.52.01h-.15c-2.67 0-5.34-.04-7.99-.13-.12 0-.24-.01-.35-.01-47.96-1.54-92.75-16.35-130.69-40.98-9.21-5.99-18.04-12.54-26.39-19.64-10.51-8.91-20.29-18.67-29.24-29.16-.68-.79-1.35-1.59-2.01-2.39-6.47-7.75-12.48-15.9-18-24.39-8.55-13.16-15.94-27.17-21.99-41.88-11.36-27.59-18.05-57.64-19.06-89.21-1.48-46.2 9.37-89.92 29.59-128.01 46.57 75.61 131.23 124.85 226.34 121.8 95.12-3.05 176.46-57.62 218.07-136.07 22.62 36.73 36.26 79.66 37.74 125.86 2.07 64.65-20.03 124.49-58.14 170.8z" fill="#ffe131"/></g></g></g><g><g><g><path d="m372.403 238.019c0-16.99 2.401-33.894 7.132-50.211l22.628-78.044c-29.761 0-83.838-6.871-105.666 75.486-9.545 36.011-6.937 61.498-24.328 68.371h84.631c8.618.001 15.603-6.985 15.603-15.602z" fill="#0098ff"/><path d="m168.484 253.624v47.03c-40.25 0-74.94 23.79-90.78 58.07-7.61 16.47-20.66 29.38-36.52 36.58-8.55-13.16-15.94-27.17-21.99-41.88 20.01-58.08 75.14-99.8 140.02-99.8z" fill="#5cbdff"/><path d="m481.481 176.346c-3.49 7.317-12.275 10.41-19.568 6.907-8.496-4.248-18.4-3.815-26.451.794-8.328 8.881-20.169 14.429-33.299 14.429-.77 0-1.552-.024-2.311-.06h-.12v59.642l.12-.084v203.666l-45.947.289-3.695-83.048h-179.777l-17.919 84.42-49.244.277 12.588-84.697 11.324-76.201c3.153-18.545 6.005-30.338 16.896-41.157 2.407-2.407 5.066-4.597 7.979-6.522 8.713-5.777 19.688-9.266 32.889-9.254l72.675.024h.036c11.589.012 22.709-2.792 32.577-7.882 14.958-7.678 27.065-20.579 33.587-36.861l23.431-58.402c8.484-20.085 16.078-33.022 23.034-42.433 6.956-9.399 13.274-15.271 19.206-21.216 1.841-1.841 4.994-.529 4.994 2.07v26.355c1.516-.169 3.045-.265 4.597-.253 5.151.036 10.253.253 15.32 1.648 4.958 1.384 9.676 3.61 13.887 6.571l38.594 18.93c15.608 7.593 22.142 26.403 14.597 42.048z" fill="#f99762"/><path d="m481.481 176.346c-3.49 7.317-12.275 10.41-19.568 6.907-8.496-4.248-18.4-3.815-26.451.794-8.328 8.881-20.169 14.429-33.299 14.429-.77 0-1.552-.024-2.311-.06h-.12v59.642l.12-.084v203.666l-45.947.289-3.695-83.048h-92.555v-133.11c11.589.012 22.709-2.792 32.577-7.882 14.958-7.678 27.065-20.579 33.587-36.861l23.431-58.402c8.484-20.085 16.078-33.022 23.034-42.433 6.956-9.399 13.274-15.271 19.206-21.216 1.841-1.841 4.994-.529 4.994 2.07v26.355c1.516-.169 3.045-.265 4.597-.253 5.151.036 10.253.253 15.32 1.648 4.958 1.384 9.676 3.61 13.887 6.571l38.594 18.93c15.61 7.593 22.144 26.403 14.599 42.048z" fill="#ef7f4d"/><ellipse cx="415.923" cy="130.053" fill="#323b5a" rx="8.937" ry="8.937" transform="matrix(.23 -.973 .973 .23 193.789 504.97)"/><path d="m363.862 177.681c-1.287 0-2.13 1.334-1.598 2.506 7.246 15.975 20.787 28.484 37.469 34.354v-16.126h.12c-15.083-.748-28.237-8.824-35.991-20.734z" fill="#c55732"/><path d="m473.668 154.853c-3.159-3.346-7.733-4.052-11.48-2.488-3.548 1.481-7.586 1.174-10.71-1.067-3.298 4.598-2.245 10.999 2.353 14.297l6.34 4.548c5.144 3.69 12.545 1.933 15.333-4.14 1.697-3.699.958-8.191-1.836-11.15z" fill="#e56e3e"/><path d="m394.486 81.046v26.295c-20.266 1.673-38.124 14.357-46.344 33.202 8.123-18.906 15.428-31.265 22.143-40.351 6.956-9.399 13.274-15.271 19.206-21.216 1.842-1.841 4.995-.529 4.995 2.07z" fill="#e56e3e"/><path d="m115.858 378.881h54.575l-17.919 84.42-49.244.277z" fill="#ef7f4d"/><path d="m399.853 378.881v82.759l-45.947.289-3.694-83.048z" fill="#e56e3e"/><path d="m453.734 418.594c-.96 1.17-1.94 2.34-2.92 3.49-10.16 11.91-21.4 22.89-33.57 32.77l-.01.01c-2.8 2.28-5.66 4.5-8.56 6.66-40.46 30.11-90.22 48.61-144.46 50.35-2.19.07-4.38.11-6.56.11-.3.01-.6.01-.9.01-.08.01-.15.01-.23 0-2.89-.01-5.78-.05-8.66-.12-.12 0-.24-.01-.35-.01-47.96-1.54-92.75-16.35-130.69-40.98-9.21-5.99-18.04-12.54-26.39-19.64-10.51-8.91-20.29-18.67-29.24-29.16-.68-.79-1.35-1.59-2.01-2.39 6.94-3.63 15.48-3.91 22.94.02 53.1 27.93 113.8 42.79 175.53 42.95h.11c62.24.17 122.8-14.67 175.24-42.85 6.65-3.58 14.21-3.79 20.73-1.22z" fill="#374c81"/><path d="m453.734 418.594c-.96 1.17-1.94 2.34-2.92 3.49-10.16 11.91-21.4 22.89-33.57 32.77l-.01.01c-2.8 2.28-5.66 4.5-8.56 6.66-40.46 30.11-90.22 48.61-144.46 50.35-2.19.07-4.38.11-6.56.11v-49.32h.11c62.24.17 122.8-14.67 175.24-42.85 6.65-3.58 14.21-3.79 20.73-1.22z" fill="#323b5a"/></g></g></g></g></svg>