<svg id="Capa_1" enable-background="new 0 0 512 512" height="512" viewBox="0 0 512 512" width="512" xmlns="http://www.w3.org/2000/svg"><g><g><path d="m512 256c0 141.387-114.613 256-256 256-32.085 0-62.795-5.899-91.093-16.683h-.01l-8.533-3.68-1.269-1.205c-3.659-3.445-8.491-5.365-13.515-5.365h-.011c-83.937-42.016-141.569-128.811-141.569-229.067 0-141.387 114.613-256 256-256s256 114.613 256 256z" fill="#374c81"/><g><g><path d="m512 256c0 87.115-43.52 164.075-109.995 210.315-41.418 28.8-91.733 45.685-146.005 45.685-32.085 0-62.795-5.899-91.093-16.683l-8.544-3.68-1.269-1.205c-3.659-3.445-8.501-5.365-13.525-5.365-10.997-5.504-21.547-11.776-31.573-18.752-66.476-46.24-109.996-123.2-109.996-210.315 0-46.219 12.245-89.568 33.675-126.997 44.128 77.066 127.168 129.002 222.325 129.002s178.208-51.936 222.325-129.003c21.43 37.43 33.675 80.779 33.675 126.998z" fill="#323b5a"/></g></g></g><g><g><g><path d="m146.507 457.867c9.163 9.152 12.448 21.984 9.856 33.771l-7.328-3.157-4.171-1.792c-1.099-.533-2.197-1.077-3.296-1.621.363-5.803-1.675-11.733-6.101-16.16l-2.88-2.869c-12.181-12.181-18.88-28.373-18.88-45.589 0-17.227 6.699-33.419 18.88-45.6l22.933-22.923 5.525 5.515 5.515 5.525-22.923 22.933c-9.237 9.227-14.315 21.493-14.315 34.549 0 13.045 5.077 25.323 14.315 34.539z" fill="#fff"/><path d="m146.507 457.867c9.163 9.152 12.448 21.984 9.856 33.771l-7.328-3.157c1.472-8.853-1.216-18.261-8.043-25.088l-2.88-2.88c-22.123-22.123-22.123-58.005 0-80.139l22.933-22.933 5.515 5.525-22.923 22.933c-9.237 9.227-14.315 21.493-14.315 34.549 0 13.045 5.077 25.323 14.315 34.539z" fill="#d1f6ff"/></g><g><g><path d="m431.038 313.839-277.237 50.849 50.848-277.238h226.389z" fill="#ffee73"/><path d="m389.54 128.948-.005 143.388-179.363 35.98 35.98-179.363z" fill="#ffe131"/><path d="m317.844 200.645-164.043 164.043 50.848-277.238z" fill="#ff85ce"/><path d="m431.038 313.839-277.237 50.849 164.043-164.043z" fill="#00e8e9"/><path d="m431.038 313.839-113.194-113.194 113.194-113.195z" fill="#5cbdff"/><path d="m389.54 128.948-71.697 71.697 71.697 71.696z" fill="#24b1ff"/><path d="m246.147 128.948-35.971 179.364 107.667-107.667z" fill="#ff64b9"/><path d="m317.844 200.645-107.668 107.667 179.364-35.971z" fill="#00d3cd"/></g><path d="m208.658 388.498c0-17.118-13.93-31.048-31.048-31.048h-16.572v-16.572c0-17.118-13.93-31.048-31.048-31.048-8.295.008-16.086 3.231-21.951 9.096s-9.088 13.657-9.096 21.951c0 8.559 3.487 16.325 9.105 21.943s13.384 9.105 21.943 9.105h16.572v16.572c0 8.559 3.487 16.325 9.105 21.943s13.384 9.105 21.943 9.105c8.295-.009 16.086-3.231 21.952-9.096 5.864-5.865 9.087-13.657 9.095-21.951zm-78.668-31.048c-9.139 0-16.572-7.434-16.572-16.572-.009-4.424 1.722-8.593 4.851-11.722s7.297-4.859 11.722-4.851c4.569 0 8.712 1.858 11.713 4.859s4.859 7.144 4.859 11.713v16.572h-16.573zm47.621 47.62c-9.139 0-16.572-7.434-16.572-16.572v-16.572h16.572c9.139 0 16.572 7.434 16.572 16.572.008 4.424-1.722 8.593-4.851 11.722-3.128 3.128-7.297 4.859-11.721 4.85z" fill="#d1f6ff"/><path d="m161.038 371.925-7.237-7.237v-7.229l7.237-.009z" fill="#fff"/><g><path d="m153.801 340.869c0-13.145-10.656-23.801-23.81-23.81-13.154.009-23.81 10.664-23.818 23.818.009 13.154 10.665 23.81 23.81 23.81h23.819v-23.818zm-23.811 16.581c-9.139 0-16.572-7.434-16.572-16.572-.009-4.424 1.722-8.593 4.851-11.722s7.297-4.859 11.722-4.851c4.569 0 8.712 1.858 11.713 4.859s4.859 7.144 4.859 11.713v16.572h-16.573z" fill="#fff"/><path d="m201.429 388.498c-.008-13.154-10.665-23.81-23.81-23.81h-23.819-7.229l-.008 7.238h7.238v16.581c0 13.145 10.656 23.801 23.81 23.81 13.153-.009 23.81-10.665 23.818-23.819zm-23.818 16.572c-9.139 0-16.572-7.434-16.572-16.572v-16.572h16.572c9.139 0 16.572 7.434 16.572 16.572.008 4.424-1.722 8.593-4.851 11.722-3.128 3.128-7.297 4.859-11.721 4.85z" fill="#b3f4ff"/></g></g></g></g></g></svg>