<svg id="Capa_1" enable-background="new 0 0 512 512" height="512" viewBox="0 0 512 512" width="512" xmlns="http://www.w3.org/2000/svg"><g><g><path d="m440.46 433.51v-.01l-48.939 20.827c-83.783 35.655-180.255 23.607-252.696-31.557l-129.675-98.75h-.01c-5.96-21.66-9.14-44.47-9.14-68.02 0-141.061 115.12-256.098 256.182-256 141.296.098 255.818 114.681 255.818 256 0 68.92-27.24 131.48-71.54 177.51z" fill="#369cef"/><g><g><path d="m512 256c0 68.91-27.24 131.48-71.54 177.5l-48.939 20.827c-83.783 35.655-180.255 23.607-252.696-31.557l-129.675-98.75c-5.97-21.66-9.15-44.47-9.15-68.02 0-46.22 12.25-89.57 33.68-127 32.92 57.51 87.52 101.03 152.66 119.4 22.15 6.26 45.51 9.6 69.66 9.6 41.79 0 81.25-10.01 116.09-27.79 44.51-22.67 81.49-57.99 106.23-101.21 21.43 37.43 33.68 80.78 33.68 127z" fill="#008add"/></g></g></g><g><g><path d="m434.842 152.899c-22.513 4.126-45.717 6.286-69.418 6.286-4.341 0-8.661-.089-12.967-.233v67.114c4.237.596 8.565.908 12.967.908 37.716 0 70.132-22.634 84.412-55.063 4.431-10.063-4.178-20.995-14.994-19.012z" fill="#f99762"/><path d="m379.57 376.6c-17.25 34.54-53.39 56.9-91.99 56.9h-216.04c-29.16-30.3-50.93-67.76-62.39-109.48-.05-15.62-.2-28.91-.48-36.39-.75-19.23-.42-47.8 12.03-63.52 2.42-3.06 5.06-5.85 8.87-6.65 10.76-2.27 18.15 6.28 26.05 12.11 1.23.9 2.52 1.8 3.87 2.69 20.33 13.34 52.78 23.09 83.1 22.29v.61h18.71c9.13 0 17.69-2.46 25.04-6.76 14.74-8.62 24.64-24.61 24.64-42.92.18-2.52.23-5.07.23-7.65 0-5.16-.23-10.36-.23-15.53 0-2.66.13-5.28.37-7.89 4.07-45.85 43.44-81.54 90.75-79.74 46.51 1.77 83.95 40.46 84.27 87.01.12 15.7-4.04 31.31-11.97 44.86-.75 1.27-1.53 2.48-2.31 3.67-3.15 4.8-6.36 9.22-7.63 15.18-1.01 4.8-.89 8.96 0 12.82 1.51 6.57 5.23 12.27 9.21 18.86 6.04 9.98 10.45 20.94 13.08 32.31 5.18 22.43 3.16 46.53-7.18 67.22z" fill="#ffee73"/><path d="m379.566 376.604c-17.249 34.534-53.383 56.896-91.986 56.896h-24.223c-56.382 0-102.089-45.707-102.089-102.088v-76.25h.035c27.439 0 49.679-22.24 49.679-49.679.174-2.521.226-5.077.226-7.651 0-5.165-.226-10.364-.226-15.528 0-2.66.122-5.286.365-7.895 4.069-45.854 43.437-81.535 90.751-79.744 46.515 1.774 83.952 40.463 84.265 87.013.122 15.702-4.034 31.316-11.963 44.862-3.738 6.365-8.364 11.407-9.946 18.85-1.009 4.799-.887 8.955 0 12.815 1.513 6.573 5.234 12.276 9.216 18.867 6.034 9.981 10.451 20.936 13.076 32.308 5.184 22.431 3.167 46.532-7.18 67.224z" fill="#ffe131"/><circle cx="305.621" cy="166.433" fill="#383838" r="21.175"/><path d="m270.891 319.096c0 17.831-7.223 33.965-18.906 45.648-11.683 11.674-27.817 18.906-45.648 18.906h-42.611c-.82 0-1.641-.019-2.452-.038-59.698-1.273-109.014-49.231-109.636-109.202-.16-14.917 2.64-29.127 7.855-42.15 20.33 13.333 52.776 23.093 83.102 22.291h63.743c35.651.001 64.553 28.902 64.553 64.545z" fill="#fcbf12"/><path d="m270.891 319.096c0 17.831-7.223 33.965-18.906 45.648-11.683 11.674-27.817 18.906-45.648 18.906h-30.702c-9.118-15.276-14.361-33.144-14.361-52.239v-76.246h.028c2.65 0 5.262-.207 7.798-.613h37.237c35.652 0 64.554 28.901 64.554 64.544z" fill="#ff9f00"/><ellipse cx="406.072" cy="173.534" fill="#db6445" rx="10.143" ry="6.184" transform="matrix(.991 -.131 .131 .991 -19.269 54.816)"/></g></g><path d="m440.46 433.5c-46.57 48.39-112 78.5-184.46 78.5s-137.89-30.11-184.46-78.5z" fill="#66e1d2"/><path d="m440.46 433.5c-46.57 48.39-112 78.5-184.46 78.5v-78.5z" fill="#00cec9"/></g></svg>