<svg id="Capa_1" enable-background="new 0 0 512 512" height="512" viewBox="0 0 512 512" width="512" xmlns="http://www.w3.org/2000/svg"><g><g><circle cx="256" cy="256" fill="#ffee73" r="256"/><g><g><path d="m512 256c0 86.603-43.008 163.168-108.821 209.483-.384.288-.779.555-1.173.832-2.432 1.696-4.896 3.339-7.392 4.939-2.912 1.888-5.867 3.712-8.853 5.472-38.049 22.41-82.401 35.274-129.761 35.274-51.179 0-98.848-15.019-138.848-40.896-2.411-1.547-4.8-3.147-7.157-4.789-11.627-8.085-22.56-17.12-32.672-26.976-47.702-46.507-77.323-111.467-77.323-183.339 0-46.219 12.245-89.568 33.675-126.997 44.128 77.066 127.168 129.002 222.325 129.002s178.208-51.936 222.325-129.003c21.43 37.43 33.675 80.779 33.675 126.998z" fill="#ffe131"/></g></g></g><g><g><path d="m403.179 465.483c-.384.288-.779.555-1.173.832-2.432 1.696-4.896 3.339-7.392 4.939-2.912 1.888-5.867 3.712-8.853 5.472l-81.227-81.227c-8.608-8.597-20.032-13.333-32.203-13.333-12.16 0-23.584 4.736-32.192 13.333l-58.773 58.773c-17.365 17.365-42.091 22.976-64.213 16.832-2.411-1.547-4.8-3.147-7.157-4.789-11.627-8.085-22.56-17.12-32.672-26.976-12.139-23.2-8.48-52.576 10.997-72.053l76.928-76.928 7.168 7.168 7.168 7.157-76.939 76.939c-16.075 16.075-16.075 42.24 0 58.325 8.875 8.875 20.544 13.312 32.192 13.312 11.669 0 23.317-4.437 32.192-13.312l58.784-58.784c12.427-12.427 28.949-19.264 46.517-19.264 17.579 0 34.101 6.837 46.528 19.264z" fill="#374c81"/><path d="m403.179 465.483c-.384.288-.779.555-1.173.832-2.432 1.696-4.896 3.339-7.392 4.939l-82.923-82.923c-21.739-21.739-56.981-21.739-78.709 0l-58.784 58.784c-10.869 10.869-25.12 16.299-39.36 16.299s-28.491-5.429-39.349-16.299c-20.064-20.064-20.064-52.597 0-72.661l76.928-76.928 7.168 7.157-76.939 76.939c-16.075 16.075-16.075 42.24 0 58.325 8.875 8.875 20.544 13.312 32.192 13.312 11.669 0 23.317-4.437 32.192-13.312l58.784-58.784c12.427-12.427 28.949-19.264 46.517-19.264 17.579 0 34.101 6.837 46.528 19.264z" fill="#323b5a"/><g><g><g><path d="m302.286 221.951-114.364 114.364c-5.964 5.963-13.404 9.553-21.149 10.768-12.637 1.994-24.415 7.64-33.462 16.688l-.729.729c-3.751 3.751-8.662 5.621-13.578 5.627-4.91 0-9.821-1.869-13.572-5.621-7.496-7.496-7.49-19.654.006-27.15l.729-.729c9.048-9.048 14.694-20.825 16.688-33.463 1.215-7.746 4.804-15.186 10.768-21.149l114.363-114.365z" fill="#6d88af"/><path d="m261.558 181.222 40.728 40.728-114.364 114.365c-5.964 5.963-13.404 9.553-21.149 10.768-12.637 1.994-24.415 7.64-33.462 16.688l-.729.729c-3.751 3.751-8.662 5.621-13.578 5.627-4.91 0-9.821-1.869-13.572-5.621-3.751-3.751-.704-12.868 6.792-20.364l.729-.729c9.048-9.048 16.227-19.292 20.881-29.269 2.848-6.113 7.397-12.594 13.36-18.557z" fill="#4e689b"/><path d="m302.286 221.951-114.364 114.364c-5.964 5.963-13.404 9.553-21.149 10.768-12.637 1.994-24.415 7.64-33.462 16.688l-.729.729c-3.751 3.751-8.662 5.621-13.578 5.627-4.91 0-9.821-1.869-13.572-5.621l169.704-169.706z" fill="#374c81"/><path d="m388.398 177.215-71.212 71.212c-.735.735-1.932.735-2.673-.006l-92.997-92.997c-.741-.741-.741-1.938-.006-2.673l70.533-70.533c26.652-26.652 69.978-27.019 96.356-.679.754.754 1.496 1.521 2.218 2.318 24.177 26.558 23.441 67.698-2.219 93.358z" fill="#4e689b"/><path d="m388.398 177.215-71.212 71.212c-.735.735-1.932.735-2.673-.006l-46.499-46.499 120.384-120.383c.754.754 1.496 1.521 2.218 2.318 24.178 26.558 23.442 67.698-2.218 93.358z" fill="#374c81"/><path d="m337.225 228.388-54.469 54.469c-8.948 8.948-23.455 8.948-32.403 0l-63.274-63.274c-8.948-8.948-8.948-23.455 0-32.403l54.469-54.468z" fill="#4e689b"/><path d="m337.225 228.388-54.469 54.469c-8.948 8.948-23.455 8.948-32.403 0l-55.559-55.559 70.67-70.67z" fill="#374c81"/><path d="m337.225 228.388-54.469 54.469c-8.948 8.948-23.455 8.948-32.403 0l-31.637-31.637 70.67-70.67z" fill="#323b5a"/><path d="m338.522 151.006-27.998 27.998-19.591-19.592 27.998-27.998-18.451-18.451-41.121 41.121 56.494 56.494 41.121-41.121zm-17.355-56.537 17.355 17.354 18.731-18.732c-11.478-5.271-24.957-4.804-36.086 1.378zm55.678 18.214-18.731 18.732 17.354 17.354c6.181-11.129 6.648-24.608 1.377-36.086z" fill="#374c81"/><path d="m375.467 148.769-17.354-17.354 18.731-18.732c5.272 11.478 4.805 24.957-1.377 36.086z" fill="#323b5a"/><path d="m356.973 169.457-41.121 41.121-28.247-28.247 13.123-13.123 9.796 9.796 27.998-27.998z" fill="#323b5a"/><path d="m372.483 241.124-37.382 37.382c-9.31 9.31-24.408 9.316-33.718.006l-109.959-109.958c-9.31-9.31-9.304-24.408.006-33.718l37.382-37.382c9.31-9.31 24.402-9.31 33.712 0l109.959 109.959c9.309 9.309 9.309 24.402 0 33.711z" fill="#5cbdff"/><path d="m372.483 241.124-37.382 37.382c-9.313 9.313-24.412 9.313-33.724 0l-90.891-90.891 54.244-54.244c9.309-9.309 24.403-9.309 33.712 0l74.041 74.041c9.309 9.31 9.309 24.403 0 33.712z" fill="#24b1ff"/></g><path d="m187.922 336.315c-5.964 5.963-13.404 9.553-21.149 10.768-12.637 1.994-24.415 7.64-33.462 16.688l-.729.729c-3.751 3.751-8.662 5.621-13.578 5.627-4.91 0-9.821-1.869-13.572-5.621-7.496-7.496-7.49-19.654.006-27.15l.729-.729c9.048-9.048 14.694-20.825 16.688-33.463 1.215-7.746 4.804-15.186 10.768-21.149z" fill="#4e689b"/><path d="m187.922 336.315c-5.964 5.963-13.404 9.553-21.149 10.768-12.637 1.994-24.415 7.64-33.462 16.688l-.729.729c-3.751 3.751-8.662 5.621-13.578 5.627-4.91 0-9.821-1.869-13.572-5.621-3.751-3.751-.704-12.868 6.792-20.364l.729-.729c9.048-9.048 16.227-19.292 20.881-29.269 2.848-6.113 7.397-12.594 13.36-18.557z" fill="#374c81"/><path d="m372.483 241.124-37.382 37.382c-9.31 9.31-24.408 9.316-33.718.006l-54.98-54.979 71.1-71.1 54.98 54.98c9.309 9.309 9.309 24.402 0 33.711z" fill="#0098ff"/><path d="m187.922 336.315c-5.964 5.963-13.404 9.553-21.149 10.768-12.637 1.994-24.415 7.64-33.462 16.688l-.729.729c-3.751 3.751-8.662 5.621-13.578 5.627-4.91 0-9.821-1.869-13.572-5.621l55.341-55.341z" fill="#323b5a"/></g><path d="m298.505 206.775-9.087-.114-5.245 7.415c-3.953 5.586-12.593 4.221-14.626-2.316l-2.695-8.675-8.676-2.695c-6.537-2.033-7.902-10.674-2.316-14.627l7.415-5.245-.114-9.087c-.09-6.841 7.71-10.814 13.191-6.721l7.284 5.435 8.603-2.92c3.238-1.097 6.406-.099 8.489 1.984s3.081 5.251 1.984 8.489l-2.92 8.603 5.435 7.284c4.092 5.48.119 13.28-6.722 13.19z" fill="#fff"/><path d="m298.505 206.775-9.087-.114-5.245 7.415c-3.953 5.586-12.593 4.221-14.626-2.316l-2.695-8.675 33.877-33.877c2.083 2.083 3.081 5.251 1.984 8.489l-2.92 8.603 5.435 7.284c4.091 5.481.118 13.281-6.723 13.191z" fill="#d1f6ff"/></g></g></g></g></svg>