<svg id="Capa_1" enable-background="new 0 0 512 512" height="512" viewBox="0 0 512 512" width="512" xmlns="http://www.w3.org/2000/svg"><g><g><circle cx="256" cy="256" fill="#ffee73" r="256"/><g><g><path d="m512 256c0 85.653-42.08 161.504-106.677 207.968-1.099.789-2.208 1.579-3.317 2.347-2.315 1.611-4.651 3.179-7.019 4.693-1.493.96-2.987 1.909-4.501 2.848-1.504.928-3.029 1.856-4.555 2.752-38.091 22.496-82.496 35.392-129.931 35.392-54.272 0-104.587-16.885-146.005-45.685-66.475-46.24-109.995-123.2-109.995-210.315 0-46.219 12.245-89.568 33.685-126.997 44.118 77.066 127.158 129.002 222.315 129.002s178.208-51.936 222.315-129.003c21.44 37.43 33.685 80.779 33.685 126.998z" fill="#ffe131"/></g></g></g><g><g><g><g><path d="m264.476 63.872c-.204.317-.426.638-.658.952l-48.847 66.815-24.402-15.721 40.65-72.097c5.494-9.734 18.043-12.831 27.434-6.781 9.063 5.839 11.587 17.884 5.823 26.832z" fill="#e56e3e"/><path d="m264.476 63.872c-.204.317-.426.638-.658.952l-48.847 66.815-12.201-7.861 55.883-86.738c9.063 5.839 11.587 17.884 5.823 26.832z" fill="#ce5429"/><path d="m286.199 172.94-21.507 33.381-158.19-101.917 21.506-33.381c4.574-7.099 14.04-9.147 21.139-4.573l132.479 85.352c7.099 4.573 9.147 14.039 4.573 21.138z" fill="#f99762"/><path d="m286.199 172.94-21.507 33.381-119.771-77.165 21.507-33.381c4.574-7.099 14.05-9.14 21.149-4.566l94.048 60.592c7.1 4.574 9.148 14.04 4.574 21.139z" fill="#ef7f4d"/><path d="m286.199 172.94-21.507 33.381-81.34-52.405 29.789-46.237 68.484 44.122c7.1 4.574 9.148 14.04 4.574 21.139z" fill="#e56e3e"/></g><path d="m286.635 199.874-33.662 52.248c-19.403 30.117-50.018 51.232-85.065 58.669l-16.304 3.473-.844.174c-7.535 1.603-15.218 1.81-22.699.683-12.504-1.868-25.147 1.004-35.248 8.144-3.572 2.527-7.254 4.879-11.037 7.06-1.858 1.075-3.956 1.592-6.027 1.559-2.047-.048-4.102-.64-5.905-1.786l-.011-.007c-.01-.007-.01-.007-.021-.014-3.634-2.341-5.603-6.525-5.168-10.819.436-4.413 1.064-8.822 1.79-13.197 2.07-12.239-.694-24.933-7.616-35.581-4.257-6.525-7.32-13.835-8.965-21.607l-3.508-16.551c-7.369-34.689-.727-70.891 18.479-100.702l34.921-54.202 48.158 31.565 45.284 29.668z" fill="#5cbdff"/><path d="m286.635 199.874-33.662 52.248c-19.403 30.117-50.018 51.232-85.065 58.669l-17.148 3.646c-7.535 1.603-15.218 1.81-22.699.683-12.504-1.868-25.147 1.004-35.248 8.144-3.572 2.527-7.254 4.879-11.037 7.06-1.858 1.075-3.956 1.592-6.027 1.559-2.047-.048-4.102-.64-5.905-1.786l-.011-.007c-.01-.007-.01-.007-.021-.014-1.74-1.151-2.004-4.221-.731-7.96 1.313-3.848 2.744-7.74 4.231-11.625 4.194-10.871 5.412-20.999 3.508-28.414-1.173-4.538-1.405-10.024-.631-16.237l1.658-13.223c3.459-27.713 16.175-60.001 35.381-89.812l34.921-54.202 45.039 30.048z" fill="#24b1ff"/><path d="m286.635 199.874-33.662 52.248c-19.403 30.117-50.018 51.232-85.065 58.669l-17.148 3.646c-7.535 1.603-15.218 1.81-22.699.683-12.504-1.868-25.147 1.004-35.248 8.144-3.572 2.527-7.254 4.879-11.037 7.06-1.858 1.075-3.956 1.592-6.027 1.559-2.047-.048-4.102-.64-5.905-1.786l123.342-191.445z" fill="#0098ff"/><g><path d="m294.987 215.147-13.216 20.523c-4.576 7.093-14.037 9.141-21.141 4.565l-147.296-94.891-40.523-26.112c-4.075-2.624-6.485-6.848-6.933-11.317-.341-3.328.405-6.795 2.357-9.824l13.216-20.512c4.576-7.104 14.037-9.152 21.141-4.576l13.835 8.917 173.984 112.096c7.104 4.565 9.152 14.037 4.576 21.131z" fill="#ff85ce"/><path d="m294.987 215.147-13.216 20.523c-1.952 3.029-4.789 5.141-7.968 6.197-4.256 1.44-9.099.992-13.173-1.632l-40.533-26.112-53.376-34.389 29.781-46.229 80.064 51.595h.011l13.835 8.917c7.103 4.564 9.151 14.036 4.575 21.13z" fill="#ff64b9"/><g><g><path d="m116.427 81.92-3.093 63.424-40.523-26.112c-4.075-2.624-6.485-6.848-6.933-11.317z" fill="#fff"/><path d="m169.812 116.309-56.475 29.034 53.382 34.392z" fill="#fff"/><g fill="#d1f6ff"><path d="m223.193 150.701-56.474 29.034 53.381 34.392z"/><path d="m276.576 185.088v.011l-2.773 56.768c-4.256 1.44-9.099.992-13.173-1.632l-40.533-26.112 56.469-29.024z"/></g></g></g></g></g><path d="m151.594 314.256-.834.18c-7.535 1.603-15.218 1.81-22.699.683-12.504-1.868-25.147 1.004-35.248 8.144-3.572 2.527-7.254 4.879-11.037 7.06-1.858 1.075-3.956 1.592-6.027 1.559-2.047-.048-4.102-.64-5.905-1.786l-.011-.007c-.01-.007-.01-.007-.021-.014-3.634-2.341-5.603-6.525-5.168-10.819.436-4.413 1.064-8.822 1.79-13.197 2.07-12.239-.694-24.933-7.616-35.581-4.257-6.525-7.32-13.835-8.965-21.607l101.158 65.173c.001.002.208.075.583.212z" fill="#4e689b"/><path d="m151.594 314.256-.834.18c-7.535 1.603-15.218 1.81-22.699.683-12.504-1.868-25.147 1.004-35.248 8.144-3.572 2.527-7.254 4.879-11.037 7.06-1.858 1.075-3.956 1.592-6.027 1.559-2.047-.048-4.102-.64-5.905-1.786l-.011-.007c-.01-.007-.01-.007-.021-.014-1.74-1.151-2.004-4.221-.731-7.96 1.313-3.848 2.744-7.74 4.231-11.625 4.194-10.871 5.412-20.999 3.508-28.414-1.173-4.538-1.405-10.024-.631-16.237l74.822 48.206c.001.001.208.074.583.211z" fill="#374c81"/><path d="m151.594 314.256-.834.18c-7.535 1.603-15.218 1.81-22.699.683-12.504-1.868-25.147 1.004-35.248 8.144-3.572 2.527-7.254 4.879-11.037 7.06-1.858 1.075-3.956 1.592-6.027 1.559-2.047-.048-4.102-.64-5.905-1.786l31.116-48.297 50.051 32.246c.001.001.208.074.583.211z" fill="#323b5a"/></g><g><g><g><path d="m323.81 269.091c.102.239.199.49.288.744l19.168 53.749-18.422 7.822-25.357-51.121c-3.421-6.906-.324-15.261 6.766-18.272 6.842-2.906 14.689.323 17.557 7.078z" fill="#e56e3e"/><path d="m323.81 269.091c.102.239.199.49.288.744l19.168 53.749-9.211 3.911-27.802-65.482c6.842-2.906 14.689.323 17.557 7.078z" fill="#ce5429"/><path d="m394.422 298.974 10.7 25.201-119.424 50.705-10.7-25.201c-2.275-5.359.226-11.551 5.585-13.826l100.013-42.463c5.359-2.276 11.55.225 13.826 5.584z" fill="#f99762"/><path d="m394.422 298.974 10.7 25.201-90.419 38.39-10.7-25.201c-2.275-5.359.234-11.554 5.593-13.829l71-30.145c5.359-2.276 11.55.225 13.826 5.584z" fill="#ef7f4d"/><path d="m394.422 298.974 10.7 25.201-61.406 26.072-14.82-34.906 51.701-21.951c5.358-2.276 11.549.225 13.825 5.584z" fill="#e56e3e"/></g><path d="m427.189 419.851-4.341 10.645-.224.544c-2.016 4.917-4.875 9.376-8.416 13.205-5.088 5.525-8.213 12.459-8.885 19.723-1.099.789-2.208 1.579-3.317 2.347-2.315 1.611-4.651 3.179-7.019 4.693-1.493.96-2.987 1.909-4.501 2.848-1.504.928-3.029 1.856-4.555 2.752-.267-.235-.523-.48-.779-.725-6.165-5.931-14.475-9.269-23.232-9.451-5.376-.096-10.731-1.184-15.797-3.264l-10.795-4.416c-22.645-9.237-40.704-27.051-50.261-49.557l-17.376-40.917 36.661-15.232 34.464-14.325 71.136-29.557 16.747 39.445c9.642 22.74 9.824 48.372.49 71.242z" fill="#5cbdff"/><path d="m427.189 419.851-4.565 11.189c-2.016 4.917-4.875 9.376-8.416 13.205-5.088 5.525-8.213 12.459-8.885 19.723-1.099.789-2.208 1.579-3.317 2.347-2.315 1.611-4.651 3.179-7.019 4.693-1.493.96-2.987 1.909-4.501 2.848-.043-.064-.085-.117-.128-.181-4.576-6.603-9.877-11.221-14.848-13.003-3.051-1.099-6.261-3.093-9.504-5.941l-6.901-6.069c-14.453-12.715-27.947-32.48-37.493-54.976l-17.376-40.928 34.581-14.037 71.136-29.557 16.747 39.445c9.641 22.74 9.823 48.372.489 71.242z" fill="#24b1ff"/><path d="m427.189 419.851-4.565 11.189c-2.016 4.917-4.875 9.376-8.416 13.205-5.088 5.525-8.213 12.459-8.885 19.723-1.099.789-2.208 1.579-3.317 2.347-2.315 1.611-4.651 3.179-7.019 4.693l-56.171-132.288 71.136-29.557 16.747 39.445c9.642 22.741 9.824 48.373.49 71.243z" fill="#0098ff"/><g><path d="m422.891 339.637-111.2 47.211-31.093 13.195c-2.944 1.067-6.069.757-8.651-.629-2.027-1.109-3.712-2.869-4.683-5.163l-6.571-15.488c-2.272-5.355.224-11.552 5.579-13.824l10.453-4.437 131.349-55.765c5.355-2.272 11.541.224 13.824 5.589l6.571 15.488c2.283 5.354-.224 11.551-5.578 13.823z" fill="#ff85ce"/><path d="m428.917 332.757c-.821 2.976-2.944 5.557-6.005 6.869l-30.624 13.003-40.299 17.109-14.816-34.901 60.448-25.664 10.453-4.437c5.355-2.272 11.541.224 13.824 5.589l6.571 15.488c.971 2.283 1.078 4.726.448 6.944z" fill="#ff64b9"/><g><g><path d="m311.691 386.848-31.093 13.195c-2.944 1.067-6.069.757-8.651-.629l4.779-38.912z" fill="#fff"/><path d="m317.023 343.392-5.332 43.456 40.299-17.11z" fill="#fff"/><g fill="#d1f6ff"><path d="m357.322 326.282-5.332 43.456 40.3-17.111z"/><path d="m428.917 332.757c-.821 2.976-2.944 5.557-6.005 6.869l-30.624 13.003 5.333-43.456z"/></g></g></g></g></g><path d="m422.837 430.496-.213.544c-2.016 4.917-4.875 9.376-8.416 13.205-5.088 5.525-8.213 12.459-8.885 19.723-1.099.789-2.208 1.579-3.317 2.347-2.315 1.611-4.651 3.179-7.019 4.693-1.493.96-2.987 1.909-4.501 2.848-1.504.928-3.029 1.856-4.555 2.752-.267-.235-.523-.48-.779-.725-6.165-5.931-14.475-9.269-23.232-9.451-5.376-.096-10.731-1.184-15.797-3.264l76.373-32.416s.117-.096.341-.256z" fill="#4e689b"/><path d="m422.837 430.496-.213.544c-2.016 4.917-4.875 9.376-8.416 13.205-5.088 5.525-8.213 12.459-8.885 19.723-1.099.789-2.208 1.579-3.317 2.347-2.315 1.611-4.651 3.179-7.019 4.693-1.493.96-2.987 1.909-4.501 2.848-.043-.064-.085-.117-.128-.181-4.576-6.603-9.877-11.221-14.848-13.003-3.051-1.099-6.261-3.093-9.504-5.941l56.491-23.979c-.001 0 .116-.096.34-.256z" fill="#374c81"/><path d="m422.837 430.496-.213.544c-2.016 4.917-4.875 9.376-8.416 13.205-5.088 5.525-8.213 12.459-8.885 19.723-1.099.789-2.208 1.579-3.317 2.347-2.315 1.611-4.651 3.179-7.019 4.693l-10.283-24.224 37.792-16.032s.117-.096.341-.256z" fill="#323b5a"/></g><g fill="#fff"><path d="m192.481 371.103-4.074-27.066 13.903 21.677 16.373-15.381-5.259 20.77 27.341-3.606-20.284 20.435 8.355 20.156-18.826-9.271-15.614 24.685-1.976-27.52-26.51 2.649 23.036-13.163-18.423-17.075z"/><path d="m240.146 300.472 13.073-8.777-7.852 12.563 12.026 4.731-12.095 2.374 8.601 13.331-15.617-5.521-8.426 9.303.19-12.071-16.678-2.047 13.825-7.797-7.899-13.135 12.512 8.741 4.348-13.781z"/></g></g></g></svg>