<svg id="Capa_1" enable-background="new 0 0 512 512" height="512" viewBox="0 0 512 512" width="512" xmlns="http://www.w3.org/2000/svg"><g><g><path d="m512 256c0 141.387-114.613 256-256 256-51.979 0-100.341-15.488-140.715-42.091l-.021-.021-79.093-82.613-.011-.011c-22.965-38.379-36.16-83.275-36.16-131.264 0-141.387 114.613-256 256-256s256 114.613 256 256z" fill="#374c81"/><g><g><path d="m512 256c0 87.115-43.52 164.075-109.995 210.315-41.418 28.8-91.733 45.685-146.005 45.685-52.011 0-100.384-15.509-140.779-42.165l-79.029-82.539c-22.987-38.389-36.192-83.307-36.192-131.296 0-46.219 12.245-89.568 33.675-126.997 44.128 77.066 127.168 129.002 222.325 129.002s178.208-51.936 222.325-129.003c21.43 37.43 33.675 80.779 33.675 126.998z" fill="#323b5a"/></g></g></g><g><g><g><g><path d="m76.922 243.431 61.398-44.719c27.561-20.074 65.632-17.1 89.742 7.01l-87.367 67.623-50.134 5.408c-19.95 2.153-29.858-23.509-13.639-35.322z" fill="#5cbdff"/><path d="m260.803 427.312 44.719-61.398c20.074-27.561 17.1-65.632-7.01-89.742l-67.624 87.367-5.409 50.134c-2.151 19.95 23.511 29.858 35.324 13.639z" fill="#24b1ff"/></g><path d="m180.852 379.478c-11.66 9.581-28.708 8.736-39.382-1.937l-14.777-14.777c-10.673-10.673-11.519-27.722-1.937-39.382z" fill="#5cbdff"/><path d="m343.187 273.891-96.076 78.957-30.945 25.415-6.464 5.302c-7.697 6.358-18.968 5.794-26.013-1.251l-61.767-61.767c-7.045-7.045-7.609-18.317-1.251-26.014l5.302-6.464 25.415-30.945 78.957-96.076c7.556-9.211 15.746-17.894 24.517-25.89 12.382-11.29 25.908-21.258 40.509-29.554 34.571-19.604 71.84-29.185 106.871-28.181 6.517.176 12.417 2.8 16.785 6.992.141.106.282.247.423.387 4.438 4.438 7.203 10.479 7.379 17.208.986 35.049-8.595 72.317-28.215 106.873-8.296 14.601-18.264 28.127-29.536 40.491-8.014 8.789-16.68 16.961-25.891 24.517z" fill="#fff"/><path d="m343.187 273.891-96.076 78.957-30.945 25.415-6.464 5.302c-7.697 6.358-18.968 5.794-26.013-1.251l-46.286-46.286c-3.505-3.505-1.11-11.818 5.6-19.162l5.583-6.182 26.806-29.554 83.254-91.779c7.961-8.806 16.274-17.366 24.851-25.556 12.118-11.554 24.746-22.421 37.761-32.301 30.822-23.354 61.151-39.875 87.147-47.906 4.667-1.462 8.348-1.057 10.62.828.141.106.282.247.423.387 4.438 4.438 7.203 10.479 7.379 17.208.986 35.049-8.595 72.317-28.215 106.873-8.296 14.601-18.264 28.127-29.536 40.491-8.012 8.788-16.678 16.96-25.889 24.516z" fill="#d1f6ff"/><path d="m343.187 273.891-96.076 78.957-30.945 25.415-6.464 5.302c-7.697 6.358-18.968 5.794-26.013-1.251l-30.875-30.875 266.635-266.636c4.438 4.438 7.203 10.479 7.379 17.208.986 35.049-8.595 72.317-28.215 106.873-8.296 14.601-18.264 28.127-29.536 40.491-8.013 8.788-16.679 16.96-25.89 24.516z" fill="#b3f4ff"/><path d="m247.11 352.848-30.945 25.415-6.464 5.302c-7.697 6.358-18.968 5.794-26.013-1.251l-61.767-61.767c-7.045-7.045-7.609-18.317-1.251-26.014l5.302-6.464 25.415-30.945z" fill="#ff85ce"/><path d="m247.11 352.848-30.945 25.415-6.464 5.302c-7.697 6.358-18.968 5.794-26.013-1.251l-46.286-46.286c-3.505-3.505-1.11-11.818 5.6-19.162l5.583-6.182 26.806-29.554z" fill="#ff64b9"/><path d="m369.077 249.374-114.217-114.217c12.382-11.29 25.908-21.258 40.509-29.554 34.573-19.603 71.842-29.184 106.873-28.18 6.517.176 12.417 2.8 16.785 6.992.141.106.282.247.423.387 4.438 4.438 7.203 10.479 7.379 17.208.986 35.049-8.595 72.317-28.215 106.873-8.296 14.601-18.265 28.127-29.537 40.491z" fill="#ff85ce"/><path d="m369.077 249.374-85.579-85.579c12.118-11.554 24.746-22.421 37.761-32.301 30.822-23.354 61.151-39.875 87.147-47.906 4.667-1.462 8.348-1.057 10.62.828.141.106.282.247.423.387 4.438 4.438 7.203 10.479 7.379 17.208.986 35.049-8.595 72.317-28.215 106.873-8.295 14.6-18.264 28.126-29.536 40.49z" fill="#ff64b9"/><circle cx="255.617" cy="248.635" fill="#5cbdff" r="49.816"/><path d="m290.842 283.86c-19.462 19.462-51.006 19.444-70.45 0l70.45-70.45c19.445 19.444 19.462 50.988 0 70.45z" fill="#24b1ff"/><path d="m270.394 263.411c-8.155 8.155-21.399 8.155-29.554 0-8.172-8.172-8.172-21.417-.018-29.572 8.155-8.155 21.399-8.155 29.571.018 8.156 8.155 8.156 21.4.001 29.554z" fill="#374c81"/><path d="m369.077 249.374-57.1-57.1 107.472-107.471c4.438 4.438 7.203 10.479 7.379 17.208.986 35.049-8.595 72.317-28.215 106.873-8.295 14.6-18.264 28.126-29.536 40.49z" fill="#ff48a4"/><path d="m247.11 352.848-30.945 25.415-6.464 5.302c-7.697 6.358-18.968 5.794-26.013-1.251l-30.875-30.875 46.444-46.444z" fill="#ff48a4"/><path d="m180.852 379.478c-11.66 9.581-28.708 8.736-39.382-1.937l-7.38-7.38 18.722-18.722z" fill="#24b1ff"/><path d="m270.394 263.411c-8.155 8.155-21.399 8.155-29.554 0l29.554-29.554c8.155 8.155 8.155 21.4 0 29.554z" fill="#323b5a"/></g><g><path d="m131.424 430.069c0 15.488-6.144 29.536-16.139 39.84-32.17-21.226-59.285-49.504-79.125-82.645 10.112-8.981 23.424-14.443 38.016-14.443 15.776-.011 30.08 6.421 40.459 16.8 10.368 10.368 16.8 24.683 16.789 40.448z" fill="#fcbf12"/><path d="m131.424 430.069c0 15.488-6.144 29.536-16.139 39.84-16.064-10.603-30.88-22.965-44.139-36.811l43.488-43.477c10.369 10.368 16.801 24.683 16.79 40.448z" fill="#ff9f00"/><path d="m102.144 429.973c0 8.96-4.235 16.939-10.805 22.048-7.061-5.941-13.803-12.256-20.192-18.923-6.432-6.709-12.491-13.76-18.155-21.131 5.12-6.037 12.747-9.867 21.28-9.867 7.68 0 14.645 3.125 19.701 8.181 5.046 5.047 8.171 12.012 8.171 19.692z" fill="#ffe131"/><path d="m102.144 429.973c0 8.96-4.235 16.939-10.805 22.048-7.061-5.941-13.803-12.256-20.192-18.923l22.827-22.816c5.045 5.046 8.17 12.011 8.17 19.691z" fill="#fcbf12"/></g></g></g></g></svg>