<svg id="Capa_1" enable-background="new 0 0 512 512" height="512" viewBox="0 0 512 512" width="512" xmlns="http://www.w3.org/2000/svg"><g><g><path d="m512 256c0 141.387-114.613 256-256 256-129.408 0-236.395-96.021-253.579-220.704-1.6-11.541-2.421-23.317-2.421-35.296 0-30.507 5.333-59.755 15.125-86.88 19.958-55.328 58.432-101.803 107.947-131.947 14.464-8.811 29.877-16.224 46.048-22.048 27.125-9.792 56.373-15.125 86.88-15.125 141.387 0 256 114.613 256 256z" fill="#ffee73"/><g><path d="m512 256c0 87.11-43.52 164.07-110 210.31-41.41 28.8-91.73 45.69-146 45.69s-104.59-16.89-146-45.69c-66.48-46.24-110-123.2-110-210.31 0-46.22 12.25-89.57 33.68-127 44.12 77.07 127.16 129 222.32 129s178.21-51.93 222.32-129c21.43 37.43 33.68 80.78 33.68 127z" fill="#ffe131"/></g><g><g><path d="m440.46 433.5c-46.57 48.39-112 78.5-184.46 78.5s-137.89-30.11-184.46-78.5z" fill="#374c81"/><path d="m440.46 433.5c-46.57 48.39-112 78.5-184.46 78.5v-78.5z" fill="#323b5a"/></g></g></g></g><g><g><g><path d="m175.089 370.533c0 11.86-9.615 21.475-21.475 21.475h-7.717c-73.139 0-132.645-59.506-132.645-132.659v-.43c0-47.896 26.462-92.508 69.066-116.421 30.73-17.249 49.822-49.835 49.822-85.026 0-11.86 9.615-21.475 21.475-21.475 11.859 0 21.475 9.615 21.475 21.475 0 50.708-27.488 97.634-71.74 122.475-29.081 16.321-47.147 46.58-47.147 78.972v.43c0 49.461 40.234 89.709 89.695 89.709h7.717c11.858 0 21.474 9.615 21.474 21.475z" fill="#24b1ff"/><path d="m175.089 370.533h-29.192c-61.404 0-111.17-49.78-111.17-111.184v-.43c0-40.76 22.569-77.753 58.106-97.703 36.272-20.353 60.781-59.187 60.781-103.744v-21.475c11.859 0 21.475 9.615 21.475 21.475 0 50.708-27.488 97.634-71.74 122.475-29.081 16.321-47.147 46.58-47.147 78.972v.43c0 49.461 40.234 89.709 89.695 89.709h7.717c11.859 0 21.475 9.615 21.475 21.475z" fill="#0098ff"/><path d="m452.972 205.704v100.072c0 48.034-38.945 86.98-86.98 86.98h-209.787c-51.442 0-82.92-56.804-55.322-100.211 32.725-51.456 89.861-85.844 155.117-86.813.942-.014 1.898-.028 2.854-.028z" fill="#24b1ff"/><path d="m452.972 205.704v100.072c0 48.034-38.945 86.98-86.98 86.98h-109.992v-187.025c.942-.014 1.898-.028 2.854-.028h194.118z" fill="#0098ff"/><g><g><g><path d="m342.594 132.56c-36.099 2.589-65.271 30.702-69.5 66.364-.328-.292-.62-.583-.948-.912-14.258-14.258-24.212-31.14-29.864-49.08-3.1-9.627-4.923-19.618-5.506-29.646-.839-13.783 10.83-25.452 24.613-24.65 10.392.62 20.748 2.553 30.703 5.835 17.539 5.725 34.057 15.607 48.023 29.536.838.839 1.677 1.678 2.479 2.553z" fill="#5cbdff"/><path d="m292.092 100.472c-20.967 10.976-38.324 27.895-49.81 48.461 5.652 17.94 15.606 34.823 29.864 49.08.328.328.62.62.948.912 4.23-35.662 33.401-63.775 69.5-66.364-.802-.875-1.641-1.714-2.48-2.553-13.965-13.93-30.483-23.811-48.022-29.536z" fill="#24b1ff"/><path d="m260.048 112.83.282.008c15.314.896 30.1 5.194 43.372 12.451-15.253 8.214-27.994 20.538-36.711 35.528-6.992-13.059-11.135-27.565-12.015-42.596-.111-1.828.831-3.114 1.403-3.721.587-.623 1.845-1.67 3.669-1.67" fill="#374c81"/></g><g><g><path d="m459.534 119.287c-.583 10.028-2.406 20.019-5.506 29.682-5.652 17.94-15.643 34.823-29.864 49.044-.328.328-.62.62-.948.912-4.23-35.662-33.401-63.775-69.5-66.364.802-.875 1.641-1.714 2.48-2.553 13.966-13.929 30.484-23.811 48.023-29.536 9.991-3.282 20.31-5.214 30.703-5.835 13.782-.802 25.451 10.867 24.612 24.65z" fill="#24b1ff"/><path d="m404.218 100.472c-17.539 5.725-34.057 15.607-48.023 29.536-.839.839-1.677 1.678-2.48 2.553 36.099 2.589 65.27 30.702 69.5 66.364.328-.292.62-.583.948-.912 14.221-14.221 24.212-31.104 29.864-49.044-11.522-20.603-28.879-37.521-49.809-48.497z" fill="#0098ff"/><path d="m436.262 112.83c1.824 0 3.082 1.047 3.668 1.671.572.607 1.514 1.893 1.403 3.721-.88 15.031-5.023 29.537-12.015 42.596-8.716-14.99-21.458-27.314-36.711-35.528 13.272-7.257 28.058-11.555 43.372-12.451z" fill="#383838"/></g></g></g><path d="m452.97 207.967c0 57.905-46.929 70.193-104.834 70.193s-104.834-12.288-104.834-70.193 46.929-104.834 104.834-104.834c57.905.001 104.834 46.93 104.834 104.834z" fill="#5cbdff"/><path d="m452.97 207.967c0 57.905-46.929 70.193-104.834 70.193v-175.026c57.905 0 104.834 46.929 104.834 104.833z" fill="#24b1ff"/><g><path d="m323.552 191.863c4.13 0 6.824-4.571 4.606-8.055-2.847-4.474-7.835-7.442-13.536-7.442s-10.689 2.968-13.536 7.442c-2.218 3.484.476 8.055 4.606 8.055z" fill="#374c81"/><path d="m390.601 191.863c4.13 0 6.824-4.571 4.606-8.055-2.847-4.474-7.835-7.442-13.536-7.442s-10.689 2.968-13.536 7.442c-2.218 3.484.476 8.055 4.606 8.055z" fill="#383838"/></g><g fill="#383838"><g><path d="m474.853 237.772c-.26 0-.523-.018-.789-.055l-61.876-8.676c-3.075-.431-5.22-3.274-4.788-6.351.429-3.077 3.271-5.224 6.351-4.788l61.877 8.676c3.075.431 5.22 3.274 4.788 6.351-.395 2.812-2.804 4.843-5.563 4.843z"/><path d="m412.962 204.814c-2.76 0-5.169-2.031-5.562-4.843-.433-3.077 1.713-5.92 4.788-6.351l61.876-8.676c3.084-.441 5.92 1.711 6.351 4.788.433 3.077-1.713 5.92-4.788 6.351l-61.877 8.676c-.265.037-.528.055-.788.055z"/></g><path d="m474.845 216.955h-61.876c-3.107 0-5.624-2.518-5.624-5.624s2.518-5.624 5.624-5.624h61.876c3.107 0 5.625 2.518 5.625 5.624s-2.518 5.624-5.625 5.624z"/></g><g fill="#374c81"><g><path d="m219.854 237.772c-2.76 0-5.169-2.031-5.562-4.843-.433-3.077 1.713-5.92 4.788-6.351l61.876-8.676c3.078-.433 5.92 1.713 6.351 4.788.433 3.077-1.713 5.92-4.788 6.351l-61.876 8.676c-.265.038-.529.055-.789.055z"/><path d="m281.745 204.814c-.26 0-.523-.018-.789-.055l-61.876-8.676c-3.075-.431-5.22-3.274-4.788-6.351.431-3.077 3.264-5.233 6.351-4.788l61.876 8.676c3.075.431 5.22 3.274 4.788 6.351-.393 2.812-2.802 4.843-5.562 4.843z"/></g><path d="m281.738 216.955h-61.877c-3.107 0-5.624-2.518-5.624-5.624s2.518-5.624 5.624-5.624h61.877c3.107 0 5.624 2.518 5.624 5.624s-2.517 5.624-5.624 5.624z"/></g><path d="m404.578 219.822c0 17.845-14.52 32.365-32.365 32.365-9.546 0-18.136-4.156-24.066-10.751l-.014.014c-5.93 6.581-14.52 10.737-24.066 10.737-17.845 0-32.365-14.52-32.365-32.365h16.598c0 8.701 7.066 15.781 15.767 15.781 6.526 0 12.151-3.99 14.547-9.643 1.538-3.658 4.974-6.138 8.936-6.138h1.191c3.963 0 7.398 2.48 8.936 6.138 2.397 5.653 8.008 9.643 14.534 9.643 8.701 0 15.78-7.08 15.78-15.781z" fill="#374c81"/><path d="m363.374 205.112c-.042.055-.069.111-.111.18-.125.194-.263.388-.402.568-.083.139-.166.277-.291.416-3.574 4.738-9.006 7.107-14.436 7.107-5.791 0-11.582-2.688-15.115-8.091-.042-.069-.083-.125-.125-.18-2.48-3.838.402-8.867 4.96-8.867h20.602c4.558 0 7.398 5.029 4.918 8.867z" fill="#ffee73"/><path d="m363.374 205.112c-.166.249-.333.499-.513.748-.083.139-.166.277-.291.416-3.574 4.738-9.006 7.107-14.436 7.107v-17.138h10.322c4.558 0 7.398 5.029 4.918 8.867z" fill="#ffe131"/><path d="m404.578 219.822c0 17.845-14.52 32.365-32.365 32.365-9.546 0-18.136-4.156-24.066-10.751l-.014.014v-21.627h.609c3.963 0 7.398 2.48 8.936 6.138 2.397 5.653 8.008 9.643 14.534 9.643 8.701 0 15.78-7.08 15.78-15.781h16.586z" fill="#383838"/></g><g><circle cx="153.616" cy="370.531" fill="#323b5a" r="62.966"/><circle cx="153.616" cy="370.531" fill="#374c81" r="27.518"/></g><g><circle cx="390.004" cy="370.531" fill="#323b5a" r="62.966"/><circle cx="390.004" cy="370.531" fill="#374c81" r="27.518"/></g></g></g></g></svg>