<svg id="Capa_1" enable-background="new 0 0 512 512" height="512" viewBox="0 0 512 512" width="512" xmlns="http://www.w3.org/2000/svg"><g><g><path d="m511.993 254.14c.401 56.413-17.449 108.646-47.993 151.129l-59.467 30.514c-93.242 47.845-203.823 47.845-297.065 0l-59.468-30.514c-30.208-42.016-48-93.567-48-149.269 0-139.778 112.02-253.388 251.185-255.955 142.973-2.638 259.792 111.1 260.808 254.095z" fill="#374c81"/><g><g><path d="m512 256c0 55.701-17.792 107.253-48 149.269l-59.467 30.514c-93.242 47.845-203.823 47.845-297.065 0l-59.468-30.514c-30.208-42.016-48-93.567-48-149.269 0-46.219 12.245-89.568 33.675-126.997 4.395 7.68 9.173 15.104 14.325 22.251 23.168 32.245 53.664 58.88 89.035 77.472 35.552 18.709 76.032 29.28 118.965 29.28s83.413-10.571 118.965-29.28c35.371-18.581 65.856-45.216 89.035-77.461 5.141-7.157 9.931-14.581 14.325-22.262 21.429 37.429 33.675 80.779 33.675 126.997z" fill="#323b5a"/></g></g></g><g><g><path d="m440.46 433.5c-46.57 48.39-112 78.5-184.46 78.5s-137.89-30.11-184.46-78.5z" fill="#fff"/><path d="m440.46 433.5c-46.57 48.39-112 78.5-184.46 78.5v-78.5z" fill="#d1f6ff"/><path d="m464 195.143v210.126c-7.168 9.974-15.029 19.414-23.541 28.235h-42.336v-67.481c0-28.64-8.512-55.317-23.157-77.621-25.077-38.229-68.171-63.594-117.248-63.861h-3.435c-49.077.267-92.171 25.632-117.248 63.861-14.645 22.304-23.157 48.981-23.157 77.621v67.481h-42.337c-8.511-8.821-16.373-18.261-23.541-28.235v-210.126l208-152.533z" fill="#ff85ce"/><path d="m464 195.143v210.126c-7.168 9.974-15.029 19.414-23.541 28.235h-42.336v-67.481c0-28.64-8.512-55.317-23.157-77.621-25.077-38.229-68.171-63.594-117.248-63.861h-1.718v-181.931z" fill="#ff64b9"/><path d="m464 326.242v79.027c-7.168 9.974-15.029 19.414-23.541 28.235h-42.336v-67.481c0-28.64-8.512-55.317-23.157-77.621-25.077-38.229-68.171-63.594-117.248-63.861h-3.435c-49.077.267-92.171 25.632-117.248 63.861-14.645 22.304-23.157 48.981-23.157 77.621v67.481h-42.337c-8.511-8.821-16.373-18.261-23.541-28.235v-88.134l207.812-121.992z" fill="#00e8e9"/><path d="m464 325.635v79.634c-7.168 9.974-15.029 19.414-23.541 28.235h-42.336v-67.481c0-28.64-8.512-55.317-23.157-77.621-25.077-38.229-68.171-63.594-117.248-63.861h-1.718v-29.397z" fill="#00d3cd"/><path d="m464 195.143v170.88h-65.877c0-77.717-62.688-141.056-140.405-141.482h-3.435c-77.717.426-140.405 63.765-140.405 141.482h-65.878v-170.88z" fill="#ffee73"/><path d="m464 195.143v170.88h-65.877c0-77.717-62.688-141.056-140.405-141.482h-1.718v-29.397h208z" fill="#ffe131"/></g><path d="m113.877 366.023h284.245v67.481h-284.245z" fill="#5cbdff"/><path d="m256 366.023h142.122v67.481h-142.122z" fill="#24b1ff"/></g></g></svg>