<svg id="Capa_1" enable-background="new 0 0 512.007 512.007" height="512" viewBox="0 0 512.007 512.007" width="512" xmlns="http://www.w3.org/2000/svg"><g><g><circle cx="256.004" cy="256.004" fill="#ffee73" r="256"/><g><g><path d="m450.814 422.084c-12.5 14.66-26.64 27.9-42.14 39.44-40.46 30.11-90.22 48.61-144.46 50.35-2.74.09-5.48.13-8.21.13h-.15c-51.1 0-98.9-15.07-139.03-41.12-20.81-13.51-39.56-29.96-55.63-48.8-36.41-42.64-59.12-97.48-61.06-157.87-1.48-46.2 9.37-89.92 29.59-128.01 46.57 75.61 131.23 124.85 226.34 121.8 95.12-3.05 176.46-57.62 218.07-136.07 22.62 36.73 36.26 79.66 37.74 125.86 2.12 66.29-21.16 127.51-61.06 174.29z" fill="#ffe131"/></g></g></g><path d="m440.464 433.504c-46.57 48.39-112 78.5-184.46 78.5s-137.89-30.11-184.46-78.5z" fill="#374c81"/><path d="m440.464 433.504c-46.57 48.39-112 78.5-184.46 78.5v-78.5z" fill="#323b5a"/><g><g><g><path d="m85.505 318.253h341.001v61.505h-341.001z" fill="#fff"/><path d="m256.001 318.255h170.505v61.505h-170.505z" fill="#d1f6ff"/><g><path d="m238.573 178.943h34.864v202.801h-34.864z" fill="#24b1ff"/><path d="m256.001 178.943h17.437v202.801h-17.437z" fill="#0098ff"/><path d="m157.299 178.948h34.864v202.797h-34.864z" fill="#24b1ff"/><path d="m319.845 178.948h34.864v202.797h-34.864z" fill="#0098ff"/><path d="m85.505 363.408h341v34.864h-341z" fill="#5cbdff"/><path d="m256.001 363.408h170.505v34.864h-170.505z" fill="#24b1ff"/><path d="m85.505 161.516h341v34.864h-341z" fill="#5cbdff"/><path d="m256.001 161.516h170.505v34.864h-170.505z" fill="#24b1ff"/><g><g><path d="m99.368 126.311c.045-.029.09-.059.134-.088 5.486-3.633 2.762-12.232-3.818-12.232h-20.36c-6.579 0-9.303 8.595-3.82 12.23.045.03.091.06.136.09-6.936 4.534-11.522 12.352-11.522 21.254v244.689c0 3.477 2.822 6.298 6.307 6.298v15.386c0 10.523 8.312 19.433 18.834 19.564 5.364.067 10.229-2.076 13.733-5.589 3.459-3.451 5.591-8.22 5.591-13.488v-15.873c1.747 0 3.32-.708 4.464-1.843 1.136-1.145 1.843-2.717 1.843-4.455v-244.689c.001-8.902-4.585-16.721-11.522-21.254z" fill="#6d88af"/><path d="m99.368 126.311c.045-.029.09-.059.134-.088 5.486-3.633 2.762-12.232-3.818-12.232h-22.054c.959 5.081 2.707 9.39 4.948 12.32-3.468 4.534-5.766 12.352-5.766 21.254v244.689c0 3.477 1.415 6.298 3.154 6.298v15.873c0 10.535 4.272 19.079 9.539 19.079 5.268 0 10.037-2.131 13.488-5.591 3.459-3.451 5.591-8.22 5.591-13.488v-15.873c1.747 0 3.32-.708 4.464-1.843 1.136-1.145 1.843-2.717 1.843-4.455v-244.689c0-8.902-4.586-16.721-11.523-21.254z" fill="#4e689b"/><path d="m99.368 126.311c.045-.029.09-.059.134-.088 5.486-3.633 2.762-12.232-3.818-12.232h-10.18v319.513c5.268 0 10.037-2.131 13.488-5.591 3.459-3.451 5.591-8.22 5.591-13.488v-15.873c1.747 0 3.32-.708 4.464-1.843 1.136-1.145 1.843-2.717 1.843-4.455v-244.689c.001-8.902-4.585-16.721-11.522-21.254z" fill="#374c81"/></g><path d="m104.584 398.552v15.873c0 5.268-2.131 10.038-5.591 13.488-3.451 3.459-8.22 5.591-13.488 5.591-10.535 0-19.079-8.544-19.079-19.079v-15.873z" fill="#369cef"/><path d="m110.882 104.515c.192 9.12-4.438 17.174-11.514 21.796h-27.727c-6.936-4.534-11.522-12.361-11.522-21.263 0-14.021 11.374-25.377 25.386-25.377.288 0 .568.009.847.009.262.018.515.026.769.044 13.051.802 23.49 11.722 23.761 24.791z" fill="#ff85ce"/><path d="m110.882 104.515c.192 9.12-4.438 17.174-11.514 21.796h-20.791c-3.468-4.534-5.766-12.361-5.766-21.263 0-14.021 5.687-25.377 12.693-25.377.271 0 .646.271.812.052.009-.018.026-.026.035-.044.262.018.515.026.769.044 13.052.803 23.491 11.723 23.762 24.792z" fill="#ff64b9"/><path d="m110.882 104.515c.192 9.12-4.438 17.174-11.514 21.796h-13.863v-46.641c.542 0 1.075.018 1.616.052 13.051.804 23.49 11.724 23.761 24.793z" fill="#ff48a4"/><path d="m104.584 398.552v15.873c0 5.268-2.131 10.038-5.591 13.488-3.451 3.459-8.22 5.591-13.488 5.591v-34.952z" fill="#0077c8"/></g><g><g><path d="m440.367 126.311c.045-.029.09-.059.134-.088 5.486-3.633 2.762-12.232-3.818-12.232h-20.36c-6.579 0-9.303 8.595-3.82 12.23.045.03.091.06.136.09-6.936 4.534-11.522 12.352-11.522 21.254v244.689c0 3.477 2.822 6.298 6.307 6.298v15.386c0 10.524 8.313 19.433 18.836 19.564 5.364.067 10.227-2.077 13.731-5.589 3.46-3.451 5.591-8.22 5.591-13.488v-15.873c1.747 0 3.319-.708 4.464-1.843 1.136-1.145 1.843-2.717 1.843-4.455v-244.689c0-8.902-4.586-16.721-11.522-21.254z" fill="#4e689b"/><path d="m440.367 126.311c.045-.029.09-.059.134-.088 5.486-3.633 2.762-12.232-3.818-12.232h-22.055c.96 5.081 2.707 9.39 4.948 12.32-3.468 4.534-5.765 12.352-5.765 21.254v244.689c0 3.477 1.415 6.298 3.154 6.298v15.873c0 10.535 4.272 19.079 9.539 19.079 5.268 0 10.037-2.131 13.488-5.591 3.46-3.451 5.591-8.22 5.591-13.488v-15.873c1.747 0 3.319-.708 4.464-1.843 1.136-1.145 1.843-2.717 1.843-4.455v-244.689c-.001-8.902-4.587-16.721-11.523-21.254z" fill="#374c81"/><path d="m440.367 126.311c.045-.029.09-.059.134-.088 5.486-3.633 2.762-12.232-3.818-12.232h-10.18v319.513c5.268 0 10.037-2.131 13.488-5.591 3.46-3.451 5.591-8.22 5.591-13.488v-15.873c1.747 0 3.319-.708 4.464-1.843 1.136-1.145 1.843-2.717 1.843-4.455v-244.689c0-8.902-4.586-16.721-11.522-21.254z" fill="#323b5a"/></g><path d="m445.582 398.552v15.873c0 5.268-2.132 10.038-5.591 13.488-3.451 3.459-8.22 5.591-13.488 5.591-10.535 0-19.079-8.544-19.079-19.079v-15.873z" fill="#369cef"/><path d="m451.88 104.515c.192 9.12-4.438 17.174-11.514 21.796h-27.727c-6.936-4.534-11.522-12.361-11.522-21.263 0-14.021 11.374-25.377 25.386-25.377.288 0 .568.009.847.009.262.018.515.026.769.044 13.051.802 23.49 11.722 23.761 24.791z" fill="#ff85ce"/><path d="m451.88 104.515c.192 9.12-4.438 17.174-11.514 21.796h-20.791c-3.468-4.534-5.766-12.361-5.766-21.263 0-14.021 5.687-25.377 12.693-25.377.271 0 .647.271.813.052.009-.018.026-.026.035-.044.262.018.515.026.769.044 13.051.803 23.49 11.723 23.761 24.792z" fill="#ff64b9"/><path d="m451.88 104.515c.192 9.12-4.438 17.174-11.514 21.796h-13.864v-46.641c.542 0 1.075.018 1.616.052 13.052.804 23.491 11.724 23.762 24.793z" fill="#ff48a4"/><path d="m445.582 398.552v15.873c0 5.268-2.132 10.038-5.591 13.488-3.451 3.459-8.22 5.591-13.488 5.591v-34.952z" fill="#0077c8"/></g></g></g></g></g></g></svg>