<svg id="Capa_1" enable-background="new 0 0 480 480" height="512" viewBox="0 0 480 480" width="512" xmlns="http://www.w3.org/2000/svg"><g><circle cx="240" cy="240" fill="#ffee73" r="240"/><g><g><path d="m480 240c0 81.666-40.8 153.816-103.125 197.166-38.822 27-85.997 42.834-136.875 42.834s-98.053-15.834-136.875-42.834c-62.325-43.35-103.125-115.5-103.125-197.166 0-43.331 11.484-83.972 31.575-119.063 41.363 72.254 119.213 120.938 208.425 120.938s167.072-48.684 208.425-120.938c20.091 35.091 31.575 75.732 31.575 119.063z" fill="#ffe131"/></g><path d="m412.931 406.406c-43.659 45.366-105 73.594-172.931 73.594s-129.272-28.228-172.931-73.594z" fill="#374c81"/><path d="m412.931 406.406c-43.659 45.366-105 73.594-172.931 73.594v-73.594z" fill="#323b5a"/></g><g><g><path d="m225.864 113.337h28.291v56.88h-28.291z" fill="#24b1ff"/><path d="m225.864 113.337h14.145v56.88h-14.145z" fill="#0098ff"/><path d="m262.47 101.143c-6.145 0-11.125-4.98-11.125-11.125s4.981-11.125 11.125-11.125c6.145 0 11.125 4.98 11.125 11.125s-4.98 11.125-11.125 11.125zm-22.466 34.753c24.817 0 44.938-20.122 44.938-44.954 0-12.4-10.061-22.461-22.477-22.461-12.4 0-22.461 10.061-22.461 22.461 0-12.4-10.061-22.461-22.477-22.461-12.4 0-22.461 10.061-22.461 22.461 0 24.832 20.122 44.954 44.938 44.954zm-22.313-34.747c-6.151 0-11.124-4.99-11.124-11.124 0-6.151 4.973-11.124 11.124-11.124 6.135 0 11.124 4.973 11.124 11.124 0 6.135-4.99 11.124-11.124 11.124z" fill="#24b1ff"/><path d="m240.001 135.895c24.825 0 44.946-20.121 44.946-44.946 0-12.408-10.061-22.469-22.477-22.469-12.408 0-22.469 10.061-22.469 22.469zm22.469-34.752c-6.145 0-11.125-4.98-11.125-11.125s4.981-11.125 11.125-11.125c6.145 0 11.125 4.98 11.125 11.125s-4.98 11.125-11.125 11.125z" fill="#5cbdff"/></g><g><path d="m420.084 291.315v58.039h-333.647c-.004 0-.004-.004-.004-.004v-170.087c0-14.649 11.876-26.525 26.529-26.525h175.252c19.016 0 35.672 12.248 41.529 29.994.464 1.388.854 2.812 1.178 4.262l17.282 77.791h45.353c10.238 0 19.117 5.796 23.537 14.29 1.914 3.663 2.991 7.825 2.991 12.24z" fill="#5cbdff"/><path d="m420.084 291.315v58.039h-180.075v-196.616h48.205c19.016 0 35.672 12.248 41.529 29.994.464 1.388.854 2.812 1.178 4.262l17.282 77.791h45.353c10.238 0 19.117 5.796 23.537 14.29 1.914 3.663 2.991 7.825 2.991 12.24z" fill="#24b1ff"/><path d="m304.593 264.786v84.568h-124.997v-170.972c0-3.781 3.058-6.851 6.838-6.869l53.575-.237 35.803-.158c4.652-.022 8.687 3.202 9.694 7.745z" fill="#24b1ff"/><path d="m304.593 264.786v84.568h-64.584v-178.077l35.803-.158c4.652-.022 8.687 3.202 9.694 7.745z" fill="#0098ff"/><path d="m281.739 264.786h-81.739c-4.857 0-8.795-3.938-8.795-8.795v-64.135c0-4.842 3.914-8.773 8.756-8.795l67.428-.298c4.137-.018 7.728 2.849 8.625 6.888l14.31 64.433c1.221 5.493-2.958 10.702-8.585 10.702z" fill="#ffee73"/><path d="m167.124 190.56v66.733c0 4.138-3.355 7.493-7.493 7.493h-73.198v-82.054l73.232.334c4.125.019 7.459 3.368 7.459 7.494z" fill="#374c81"/><path d="m348.202 264.786h-18.832c-6.192 0-11.552-4.301-12.895-10.345l-12.356-55.636c-1.832-8.249 4.445-16.072 12.895-16.072h12.728c.464 1.388.854 2.812 1.178 4.262z" fill="#323b5a"/></g><path d="m442.794 323.837v29.517c0 6.759-5.48 12.244-12.244 12.244h-354.583c-6.759 0-12.244-5.48-12.244-12.244v-29.521c0-6.759 5.48-12.239 12.24-12.239h64.098c15.021 0 29.105 7.294 37.774 19.564 2.856 4.043 6.602 7.263 10.873 9.475 4.267 2.212 9.059 3.413 14.009 3.413h101.083c9.896 0 19.174-4.806 24.882-12.888 4.332-6.138 10.023-11.026 16.506-14.382 6.479-3.36 13.76-5.182 21.268-5.182h64.093c6.765-.001 12.245 5.479 12.245 12.243z" fill="#4e689b"/><path d="m442.794 323.837v29.517c0 6.759-5.48 12.244-12.244 12.244h-190.541v-21.553h63.791c9.896 0 19.174-4.806 24.882-12.888 4.332-6.138 10.023-11.026 16.506-14.382 6.479-3.36 13.76-5.182 21.268-5.182h64.093c6.765 0 12.245 5.48 12.245 12.244z" fill="#374c81"/><g><ellipse cx="127.243" cy="365.596" fill="#374c81" rx="40.81" ry="40.81" transform="matrix(.707 -.707 .707 .707 -221.247 197.055)"/><ellipse cx="127.243" cy="365.596" fill="#4e689b" rx="17.835" ry="17.835" transform="matrix(.23 -.973 .973 .23 -257.808 405.438)"/></g><g><ellipse cx="379.275" cy="365.596" fill="#323b5a" rx="40.81" ry="40.81" transform="matrix(.361 -.933 .933 .361 -98.49 587.521)"/><ellipse cx="379.275" cy="365.596" fill="#374c81" rx="17.835" ry="17.835" transform="matrix(.707 -.707 .707 .707 -147.429 375.268)"/></g><g><path d="m284.499 264.786h-86.715c-3.632 0-6.58-2.944-6.58-6.58v-68.557c0-3.623 2.931-6.562 6.553-6.58l42.251-.188 29.166-.127c3.097-.013 5.782 2.133 6.453 5.156l15.297 68.868c.913 4.109-2.215 8.008-6.425 8.008z" fill="#374c81"/></g><path d="m206.835 291.342h-1.611c-5.288 0-9.892-2.928-12.279-7.251-1.679-3.04.505-6.767 3.978-6.767h18.214c3.472 0 5.656 3.728 3.978 6.767-2.388 4.323-6.992 7.251-12.28 7.251z" fill="#374c81"/><path d="m420.084 291.315v6.549h-31.414c-5.191 0-9.396-4.206-9.396-9.392 0-2.598 1.051-4.946 2.751-6.645 1.7-1.7 4.048-2.751 6.646-2.751h28.422c1.914 3.662 2.991 7.824 2.991 12.239z" fill="#fff"/><path d="m284.499 264.786h-44.49v-81.905l29.166-.127c3.097-.013 5.782 2.133 6.453 5.156l15.297 68.868c.912 4.109-2.216 8.008-6.426 8.008z" fill="#323b5a"/></g></g></svg>