<svg id="Capa_1" enable-background="new 0 0 512 512" height="512" viewBox="0 0 512 512" width="512" xmlns="http://www.w3.org/2000/svg"><g><g><path d="m511.979 252.701c1.038 82.407-36.863 155.994-96.469 203.529-103.275 36.108-215.745 36.108-319.02 0h-.01c-58.8-46.9-96.48-119.17-96.48-200.23 0-141.217 114.356-255.736 255.511-256 140.751-.263 254.696 111.961 256.468 252.701z" fill="#374c81"/><g><g><path d="m512 256c0 81.06-37.69 153.33-96.49 200.23-103.275 36.108-215.745 36.108-319.02 0-58.8-46.9-96.49-119.17-96.49-200.23 0-46.22 12.25-89.57 33.68-127 16.16 28.22 37.53 53.07 62.81 73.23 24.17 19.28 51.9 34.28 82.06 43.84 24.43 7.75 50.45 11.93 77.45 11.93 60.31 0 115.76-20.86 159.51-55.77 25.28-20.15 46.65-45 62.81-73.23 21.43 37.43 33.68 80.78 33.68 127z" fill="#323b5a"/></g></g></g><g><g><g><path d="m415.51 79.19v377.04c-4.39 3.51-8.89 6.87-13.51 10.08-3.65 2.54-7.36 4.98-11.15 7.33h-268.37l-7.3-3.82c-1.74-1.15-3.47-2.32-5.18-3.51-4.62-3.21-9.12-6.57-13.51-10.08v-346.92c0-21.18 17.18-38.36 38.36-38.36h272.42c4.55 0 8.24 3.69 8.24 8.24z" fill="#5cbdff"/><path d="m415.51 79.19v377.04c-4.39 3.51-8.89 6.87-13.51 10.08-3.65 2.54-7.36 4.98-11.15 7.33h-212.3v-364.33c0-21.18 17.17-38.36 38.36-38.36h190.36c4.55 0 8.24 3.69 8.24 8.24z" fill="#24b1ff"/><path d="m415.51 79.19v377.04c-4.39 3.51-8.89 6.87-13.51 10.08-3.65 2.54-7.36 4.98-11.15 7.33h-134.85v-402.69h151.27c4.55 0 8.24 3.69 8.24 8.24z" fill="#0098ff"/><g><g><path d="m339.497 332.475h-50.205v19.718 19.719h50.205l-12.106-19.719z" fill="#d1f6ff"/><path d="m172.503 332.475h50.205v19.718 19.719h-50.205l12.106-19.719z" fill="#fff"/><path d="m197.605 352.193 25.103-19.718v39.437l-25.103 19.718z" fill="#d1f6ff"/><path d="m314.395 352.193-25.103-19.718v39.437l25.103 19.718z" fill="#b3f4ff"/></g><path d="m197.605 352.192h116.788v39.439h-116.788z" fill="#fff"/><path d="m255.999 352.192h58.394v39.439h-58.394z" fill="#d1f6ff"/></g><g><path d="m320.163 141.568v15.74c0 4.245-3.436 7.691-7.691 7.691h-112.944c-4.254 0-7.691-3.446-7.691-7.691v-15.74c0-4.254 3.436-7.691 7.691-7.691h112.944c4.255 0 7.691 3.436 7.691 7.691z" fill="#fff"/><path d="m320.163 141.568v15.74c0 4.245-3.436 7.691-7.691 7.691h-56.472v-31.121h56.472c4.255-.001 7.691 3.435 7.691 7.69z" fill="#d1f6ff"/></g><g><path d="m134.85 444.46c-12.83 0-23.76 8.32-27.66 19.86.93.67 1.87 1.33 2.81 1.99 1.71 1.19 3.44 2.36 5.18 3.51 1.97 1.3 3.96 2.57 5.97 3.82 12.54 7.78 25.78 14.51 39.64 20.06 5.81 2.34 11.74 4.46 17.76 6.37 3.1.99 6.23 1.91 9.38 2.78h136.14c9.26-2.55 18.32-5.61 27.13-9.15 13.86-5.55 27.12-12.27 39.65-20.06 3.79-2.35 7.5-4.79 11.15-7.33 4.62-3.21 9.12-6.57 13.51-10.08v-2.62z" fill="#fff"/></g><path d="m415.51 453.61v2.62c-4.39 3.51-8.89 6.87-13.51 10.08-3.65 2.54-7.36 4.98-11.15 7.33-20.51 12.74-42.95 22.65-66.78 29.21h-136.14c-3.15-.87-6.28-1.79-9.38-2.78v-55.61z" fill="#d1f6ff"/><path d="m415.51 453.61v2.62c-4.39 3.51-8.89 6.87-13.51 10.08-3.65 2.54-7.36 4.98-11.15 7.33-20.51 12.74-42.95 22.65-66.78 29.21h-68.07v-58.39z" fill="#b3f4ff"/><g><path d="m351.2 493.7c-8.81 3.54-17.87 6.6-27.13 9.15-21.67 5.96-44.5 9.15-68.07 9.15s-46.4-3.19-68.07-9.15c-3.15-.87-6.28-1.79-9.38-2.78-6.02-1.91-11.95-4.03-17.76-6.37z" fill="#24b1ff"/><path d="m415.51 435.31v18.3h-280.66c-9.74 0-17.88 6.99-19.67 16.21-1.74-1.15-3.47-2.32-5.18-3.51-3.55-2.47-7.03-5.02-10.45-7.68 5.85-13.71 19.46-23.32 35.3-23.32z" fill="#5cbdff"/></g><g><path d="m311.377 252.529-14.416 14.059 3.401 19.836c2.559 14.946-13.118 26.345-26.546 19.288l-17.816-9.37-17.816 9.37c-13.428 7.057-29.105-4.342-26.546-19.288l3.4-19.836-14.416-14.059c-10.86-10.576-4.863-29.023 10.137-31.199l19.928-2.898 8.904-18.054c3.355-6.792 9.882-10.192 16.408-10.192 6.527 0 13.054 3.4 16.408 10.192l8.903 18.054 19.928 2.898c15.002 2.176 20.999 20.622 10.139 31.199z" fill="#ffe400"/><path d="m311.377 252.529-14.416 14.059 3.401 19.836c2.559 14.946-13.118 26.345-26.546 19.288l-17.816-9.37v-106.156c6.527 0 13.054 3.4 16.408 10.192l8.903 18.054 19.928 2.898c15.001 2.176 20.998 20.622 10.138 31.199z" fill="#fed110"/></g></g></g><path d="m256 493.7h95.2c-8.81 3.54-17.87 6.6-27.13 9.15-21.67 5.96-44.5 9.15-68.07 9.15z" fill="#0098ff"/><path d="m256 435.31h159.51v18.3h-159.51z" fill="#24b1ff"/></g></g></svg>