<svg id="Capa_1" enable-background="new 0 0 512.009 512.009" height="512" viewBox="0 0 512.009 512.009" width="512" xmlns="http://www.w3.org/2000/svg"><g><g><path d="m264.214 511.874c-60.68 1.95-117.11-17.39-162.1-51.29h.01l-66.33-73.95-.01-.01c-21.37-35.95-34.21-77.65-35.65-122.41-4.53-141.31 106.35-259.54 247.66-264.08 141.31-4.53 259.54 106.35 264.08 247.66 4.53 141.31-106.35 259.54-247.66 264.08z" fill="#ffe400"/><g><g><path d="m450.814 422.084c-12.5 14.66-26.64 27.9-42.14 39.44-40.46 30.11-90.22 48.61-144.46 50.35-2.74.09-5.48.13-8.21.13h-.15c-51.1 0-98.9-15.07-139.03-41.12-5.02-3.26-9.92-6.7-14.69-10.3h-.01l-66.34-73.96c-.38-.63-.75-1.27-1.11-1.91-20.71-35.51-33.13-76.54-34.54-120.5-1.48-46.2 9.37-89.92 29.59-128.01 15.95 25.89 36.37 48.68 60.14 67.34 9.24 7.27 19 13.91 29.2 19.86 12.24 7.14 25.11 13.29 38.51 18.35 30.55 11.53 63.83 17.36 98.49 16.25 66.23-2.12 125.78-29.23 169.89-71.99 7.89-7.64 15.29-15.79 22.13-24.38 4.5-5.63 8.75-11.45 12.76-17.45 4.79-7.17 9.23-14.59 13.29-22.25 22.62 36.73 36.26 79.66 37.74 125.86 2.12 66.29-21.16 127.51-61.06 174.29z" fill="#fed110"/></g></g></g><g><g><g><path d="m495.864 191.114c-.07 1.25-.21 2.48-.39 3.74-2.5 17.67-14.86 33.95-36.87 37.75l-133.22 23.15c-56.14 9.74-106.11 41.25-139.09 87.71l-78.28 110.2c-1.83 2.58-3.8 4.89-5.89 6.92l-66.34-73.96 23.86-111.98c5.88-26.09 16.27-49.99 30.22-71.1.01-.02.02-.03.03-.05 1.13-1.75 2.29-3.45 3.52-5.14 33.16-47.27 84.15-79.43 141.1-88.98 2.05-.38 4.09-.69 6.15-.96 25.03-3.46 51.11-2.54 77.24 3.38l66.31 15.02 76.61 17.36c.01 0 .01 0 .02.01 14.76 3.34 24.81 12.11 30.25 23.01 3.74 7.38 5.26 15.7 4.77 23.92z" fill="#f99762"/><path d="m495.864 191.114c-.07 1.25-.21 2.48-.39 3.74-2.5 17.67-14.86 33.95-36.87 37.75l-133.22 23.15c-56.14 9.74-106.11 41.25-139.09 87.71l-78.28 110.2c-1.83 2.58-3.8 4.89-5.89 6.92l-50.95-56.81c20.67-66 49.92-151.53 58.79-166.18 2.91-4.8 5.93-9.54 9.1-14.19 12.64-18.61 27.45-35.78 45.36-49.55 45.5-35.05 94.61-34.68 150.08-29.03 29.72 3.68 83.95 10.46 133.58 16.81 15.03 1.92 29.63 3.81 43.01 5.56 3.74 7.38 5.26 15.7 4.77 23.92z" fill="#ef7f4d"/><path d="m495.494 194.844c-2.49 17.67-14.86 33.95-36.87 37.74l-133.22 23.16c-56.14 9.73-106.11 41.24-139.09 87.71l-78.27 110.2c-1.84 2.59-3.82 4.9-5.91 6.93h-.01l-29.76-33.18 12.52-37.82c24.17-68.31 45.57-115.71 72.69-147.83 49-58.04 116.69-66.21 253.21-57.67l15.17 1.93z" fill="#e56e3e"/><path d="m234.511 109.376c1.68 33.375-14.225 66.666-44.52 85.768-30.295 19.103-67.19 19.107-96.581 3.206 33.162-47.265 84.158-79.422 141.101-88.974z" fill="#323b5a"/><g fill="#5cbdff"><path d="m119.564 437.444-11.55 16.22c-1.83 2.58-3.8 4.89-5.89 6.92-15.01-11.29-28.74-24.21-40.93-38.5-9.43-11.04-17.94-22.9-25.41-35.46 10.77-21.15 35.78-32.02 59.05-24.28 1.28.4 2.55.86 3.8 1.39 28.96 12.22 39.14 48.08 20.93 73.71z"/><path d="m495.863 191.112c-.072 1.249-.211 2.482-.391 3.741-2.493 17.671-14.86 33.95-36.873 37.747l-19.636 3.387c-30.956 5.425-58.887-19.245-57.472-50.618.038-.94.09-1.947.235-2.898 1.567-15.598 10.397-28.671 22.654-36.4 10.535-6.643 23.619-9.336 36.988-6.307l19.451 4.407c24.799 5.617 36.34 26.644 35.044 46.941z"/></g><g fill="#0098ff"><path d="m119.564 437.444-11.55 16.22c-1.83 2.58-3.8 4.89-5.89 6.92-11.24-8.46-21.77-17.83-31.47-28l14.25-43.01c3.38-9.46 6.63-18.56 9.93-27.23 1.28.4 2.55.86 3.8 1.39 28.96 12.22 39.14 48.08 20.93 73.71z"/><path d="m495.472 194.853c-2.493 17.671-14.86 33.95-36.873 37.747l-19.636 3.387c-30.956 5.425-58.887-19.245-57.472-50.618.038-.94.09-1.947.235-2.898 9.321.426 19.001.967 29.083 1.599z"/></g></g></g></g></g></svg>