<svg id="Capa_1" enable-background="new 0 0 512 512" height="512" viewBox="0 0 512 512" width="512" xmlns="http://www.w3.org/2000/svg"><g><g><path d="m512 256.055c0 100.55-57.97 187.56-142.32 229.43l-333.78-98.63c-22.8-38.28-35.9-83.01-35.9-130.8 0-141.38 114.62-256 256-256s256 114.62 256 256z" fill="#374c81"/><g><g><path d="m512 256.055c0 87.11-43.52 164.07-110 210.31-10.25 7.13-21.05 13.53-32.32 19.12l-333.78-98.63c-22.8-38.28-35.9-83.01-35.9-130.8 0-46.22 12.25-89.57 33.68-127 44.12 77.07 127.16 129 222.32 129s178.21-51.93 222.32-129c21.43 37.43 33.68 80.78 33.68 127z" fill="#323b5a"/></g></g></g><g><g><path d="m442.828 99.454-.441 138.729-52.84-.168c-5.25-.017-9.082-4.981-7.768-10.069l3.328-12.864c.55-2.119.811-4.239.817-6.308.043-13.55-10.892-25.285-25.204-25.365h-.061c-16.529-.053-28.682 15.483-24.649 31.517l3.237 12.885c1.281 5.096-2.582 10.036-7.832 10.019l-52.699-.168.168-52.839c.017-5.25 4.981-9.081 10.069-7.768l12.864 3.328c2.119.55 4.24.811 6.308.818 13.567.043 25.32-10.927 25.365-25.266.053-16.529-15.483-28.682-31.517-24.649l-12.885 3.237c-5.096 1.281-10.036-2.582-10.019-7.832l.168-52.831 138.596.44c13.848.044 25.039 11.307 24.995 25.154z" fill="#00e8e9"/><path d="m442.828 99.454-.441 138.729-52.84-.168c-5.25-.017-9.082-4.981-7.768-10.069l3.328-12.864c.55-2.119.811-4.239.817-6.308.043-13.55-10.892-25.285-25.204-25.365l.348-109.29 56.766.181c13.847.044 25.038 11.307 24.994 25.154z" fill="#00d3cd"/><g><g><path d="m258.344 238.165c.008 14.606-11.921 25.835-25.741 25.843-2.107.001-4.268-.265-6.428-.818l-13.117-3.331c-5.188-1.318-10.229 2.604-10.226 7.952l.032 53.816-166.867.098-.083-141.318c-.008-14.105 11.419-25.546 25.524-25.554l120.333-.07c11.595-.007 21 9.387 21.007 20.982l.019 32.83c.003 5.348 5.049 9.264 10.236 7.94l13.113-3.356c16.316-4.171 32.188 8.148 32.198 24.986z" fill="#ffee73"/><path d="m258.344 238.165c.008 14.606-11.921 25.835-25.741 25.843-2.107.001-4.268-.265-6.428-.818l-13.117-3.331c-5.188-1.318-10.229 2.604-10.226 7.952l.032 53.816-83.125.049-.098-166.857 62.131-.036c11.595-.007 21 9.387 21.007 20.982l.019 32.83c.003 5.348 5.049 9.264 10.236 7.94l13.113-3.356c16.315-4.171 32.187 8.148 32.197 24.986z" fill="#ffe131"/><path d="m202.82 488.495v.01l-54.14.03c-.01 0-.01-.01-.02-.01-9.98-4.61-19.61-9.85-28.84-15.67-3.33-2.08-6.6-4.25-9.82-6.49-30.01-20.87-55.34-48-74.1-79.51l-.04-65.13 53.82-.03c5.35-.01 9.27-5.05 7.95-10.24l-3.36-13.1c-4.17-16.33 8.15-32.19 24.99-32.2.15 0 .3 0 .44.01 14.4.23 25.38 12.05 25.39 25.73 0 2.1-.25 4.26-.81 6.43l-3.34 13.11c-1.31 5.18 2.61 10.23 7.96 10.22l53.82-.03z" fill="#ff85ce"/><path d="m202.8 506.515c-29.87-6.31-57.81-17.83-82.84-33.56-.05-.03-.1-.06-.14-.1l-.12-206.69c14.4.23 25.38 12.05 25.39 25.73 0 2.1-.25 4.26-.81 6.43l-3.34 13.11c-1.31 5.18 2.61 10.23 7.96 10.22l53.82-.03z" fill="#ff64b9"/><path d="m369.668 462.892c0-.012.001-.024.001-.037l-.01-17.898-.008-15.443h-.001l-.051-86.983c-.007-11.595-9.412-20.989-21.006-20.982l-32.827.019c-5.354.003-9.276-5.039-7.956-10.228l3.337-13.115c.552-2.161.81-4.322.809-6.428-.008-13.82-11.228-25.75-25.834-25.741-16.837.01-29.157 15.881-24.987 32.199l3.352 13.111c1.326 5.187-2.59 10.234-7.944 10.237l-53.822.031.031 53.817c.003 5.354-5.039 9.276-10.228 7.956l-13.115-3.337c-2.161-.552-4.321-.81-6.428-.809-13.82.008-25.75 11.228-25.741 25.834.01 16.837 15.882 29.157 32.199 24.987l13.111-3.353c5.187-1.326 10.234 2.59 10.237 7.944l.031 53.817h.451l.012 18.123c14.61 3.06 29.67 4.87 45.09 5.32h.17c.17.01.34.01.51.01l14.81-.01h.29c7.61-.24 15.14-.81 22.57-1.71 29.49-3.52 57.43-12.06 82.96-24.74z" fill="#5cbdff"/><path d="m369.68 485.485-.012-22.593c0-.012.001-.024.001-.037l-.01-17.913-.008-15.428h-.001l-.051-86.992c-.007-11.595-9.412-20.989-21.006-20.982l-32.822.019c-5.357.003-9.279-5.039-7.961-10.226l3.34-13.108c.552-2.17.81-4.33.809-6.428-.008-13.677-10.996-25.5-25.387-25.732l.13 222.378h.005l.013 21.782c29.49-3.52 57.43-12.06 82.96-24.74z" fill="#24b1ff"/></g></g></g></g></g></svg>