<svg id="Capa_1" enable-background="new 0 0 512 512" height="512" viewBox="0 0 512 512" width="512" xmlns="http://www.w3.org/2000/svg"><g><g><path d="m511.994 254.294c.458 70.264-27.392 134.022-72.816 180.543l-.027.012c-117.117 49.335-249.185 49.335-366.303.001l-.006-.002h-.011c-45.066-46.144-72.831-109.248-72.831-178.848 0-141.241 114.378-255.764 255.564-256 140.45-.234 255.515 113.846 256.43 254.294z" fill="#374c81"/><g><g><path d="m512 256c0 69.589-27.765 132.693-72.821 178.837h-.011l-.013.006c-117.12 49.339-249.191 49.341-366.312.005-45.067-46.144-72.843-109.259-72.843-178.848 0-46.219 12.245-89.568 33.675-126.997 44.128 77.066 127.168 129.002 222.325 129.002s178.208-51.936 222.325-129.003c21.43 37.43 33.675 80.779 33.675 126.998z" fill="#323b5a"/></g></g></g><g><path d="m481.141 303.915c0 48.747-15.381 93.739-41.547 130.485-.128.149-.277.288-.416.437 0 .011 0 .011-.011.011-46.484 47.605-111.37 77.152-183.167 77.152h-.011c-71.787-.011-136.672-29.557-183.147-77.152-.011 0-.021-.011-.021-.021-26.411-36.896-41.952-82.091-41.952-130.912 0-88.768 51.36-165.515 125.984-202.187 29.92-14.72 63.573-22.955 99.136-22.955 35.595 0 69.259 8.235 99.168 22.955 74.624 36.672 125.984 113.451 125.984 202.187z" fill="#ffe131"/><path d="m481.141 303.915c0 48.832-15.541 94.027-41.963 130.923 0 .011 0 .011-.011.011-46.484 47.604-111.37 77.151-183.167 77.151h-.011v-433.227c35.595 0 69.259 8.235 99.168 22.955 74.624 36.672 125.984 113.451 125.984 202.187z" fill="#ff64b9"/><path d="m339.797 303.915c0 91.808-20.459 170.805-49.803 205.845h-.011c-11.124 1.483-22.452 2.24-33.983 2.24h-.011c-11.52 0-22.869-.757-33.984-2.24-29.333-35.04-49.792-114.037-49.792-205.845 0-124.331 37.515-225.141 83.776-225.141 46.294-.001 83.808 100.81 83.808 225.141z" fill="#24b1ff"/><path d="m339.797 303.915c0 91.808-20.459 170.805-49.803 205.845-11.125 1.483-22.463 2.24-33.994 2.24h-.011v-433.227c46.294 0 83.808 100.811 83.808 225.142z" fill="#0098ff"/><path d="m355.155 101.732c-8.353 9.153-49.568 16.1-99.163 16.1-49.568 0-90.782-6.947-99.135-16.1 29.911-14.721 63.572-22.964 99.135-22.964 35.591.001 69.251 8.243 99.163 22.964z" fill="#fff"/><path d="m355.155 101.732c-8.353 9.153-49.568 16.1-99.163 16.1v-39.063c35.591 0 69.251 8.242 99.163 22.963z" fill="#d1f6ff"/></g></g></svg>