<svg id="Capa_1" enable-background="new 0 0 512.003 512.003" height="512" viewBox="0 0 512.003 512.003" width="512" xmlns="http://www.w3.org/2000/svg"><g><g><path d="m404.642 464.462-4.577 1.464c-93.703 29.969-194.421 29.962-288.12-.02l-4.573-1.464h-.02c-63.32-45.23-105.32-118.66-107.28-202.45-3.31-141.35 108.59-258.61 249.94-261.92 141.35-3.31 258.61 108.59 261.92 249.94 2.06 88.09-40.62 166.83-107.29 214.45z" fill="#ffee73"/><g><g><path d="m449.362 423.762c-12.63 14.56-26.88 27.67-42.48 39.08-.74.54-1.49 1.08-2.24 1.62l-4.577 1.464c-93.703 29.969-194.421 29.962-288.12-.02l-4.573-1.464c-17.67-12.62-33.68-27.43-47.61-44.06-36.04-42.95-58.28-97.99-59.69-158.39-1.08-46.21 10.15-89.84 30.7-127.75 45.91 76.01 130.14 125.98 225.27 123.76 95.15-2.22 176.96-56.09 219.25-134.17 22.3 36.92 35.56 79.97 36.64 126.18 1.55 66.31-22.26 127.32-62.57 173.75z" fill="#ffe131"/></g></g></g><g><g><g><path d="m404.642 464.462c-18.68 13.35-39.26 24.25-61.26 32.23l-.04-.22h-175.31c-18.81-6.88-36.6-15.91-53.07-26.81-2.56-1.69-5.09-3.43-7.59-5.22l2.83-16.51c11.32-65.82 75.91-112.1 145.8-112.1s134.48 46.28 145.8 112.1z" fill="#f99762"/><path d="m404.642 464.462c-18.68 13.35-39.26 24.25-61.26 32.23l-.04-.22h-175.31l7.98-48.54c5.71-65.82 44.74-112.1 79.99-112.1 69.89 0 134.48 46.28 145.8 112.1z" fill="#ec781b"/><path d="m404.642 464.462c-18.68 13.35-39.26 24.25-61.26 32.23l-.04-.22h-87.34v-160.64c69.89 0 134.48 46.28 145.8 112.1z" fill="#e56e3e"/><path d="m343.342 496.712c-25.44 9.23-52.8 14.55-81.35 15.22-2 .05-4 .07-5.99.07-.74 0-1.49 0-2.22-.01h-.15c-30.01-.26-58.84-5.71-85.6-15.52-.02-.01-.03-.01-.05-.02l8.03-49.15c6.19-35.92 41.49-61.22 79.63-61.22h.36c38.03.16 73.12 25.41 79.26 61.22z" fill="#fdf0b2"/><path d="m343.342 496.712c-25.44 9.23-52.8 14.55-81.35 15.22-2 .05-4 .07-5.99.07v-125.92c38.03.16 73.12 25.41 79.26 61.22z" fill="#fede8c"/><g><g><ellipse cx="352.426" cy="139.387" fill="#ce5429" rx="60.834" ry="60.834" transform="matrix(.707 -.707 .707 .707 4.662 290.028)"/><ellipse cx="352.426" cy="139.387" fill="#c4441c" rx="32.417" ry="32.417" transform="matrix(.901 -.433 .433 .901 -25.598 166.424)"/></g><g transform="matrix(.23 -.973 .973 .23 -12.744 262.671)"><ellipse cx="159.577" cy="139.387" fill="#ef7f4d" rx="60.834" ry="60.834"/><ellipse cx="159.577" cy="139.387" fill="#ce5429" rx="32.417" ry="32.417"/></g><path d="m404.983 253.192c0 82.271-66.711 107.598-148.982 107.598s-148.982-25.327-148.982-107.598c0-81.642 65.685-147.922 147.062-148.949.629-.033 1.291-.033 1.92-.033 82.272.001 148.982 66.711 148.982 148.982z" fill="#f99762"/><path d="m404.983 253.192c0 82.271-66.711 107.598-148.982 107.598-41.119 0-74.491-25.327-74.491-107.598 0-80.98 32.346-146.896 72.571-148.949.629-.033 1.291-.033 1.92-.033 82.272.001 148.982 66.711 148.982 148.982z" fill="#ef7f4d"/><path d="m404.983 253.192c0 82.271-66.711 107.598-148.982 107.598v-256.58c82.272.001 148.982 66.711 148.982 148.982z" fill="#e56e3e"/><path d="m323.341 316.361c0 33.537-19.897 41.913-47.31 43.867-.331.033-.662.066-1.026.066-1.225.066-2.45.133-3.675.198-.563 0-1.159.033-1.755.066-4.37.166-8.939.232-13.574.232-37.179 0-67.34-3.145-67.34-44.429 0-41.285 30.161-74.756 67.34-74.756 37.18 0 67.34 33.471 67.34 74.756z" fill="#fdf0b2"/><path d="m323.341 316.361c0 33.537-19.897 41.913-47.31 43.867-.331.033-.662.066-1.026.066-1.225.066-2.45.133-3.675.198-.563 0-1.159.033-1.755.066-4.469.166-9.005.232-13.574.232v-119.185c37.18 0 67.34 33.471 67.34 74.756z" fill="#fede8c"/><g fill="#323b5a"><circle cx="208.3" cy="228.14" r="19.642"/><circle cx="303.703" cy="228.14" r="19.642"/></g><path d="m293.226 310.17c4.259 0 7.355 4.181 5.987 8.214-3.436 10.127-13.041 17.444-24.307 17.444-7.482 0-14.203-3.178-18.904-8.277-4.701 5.099-11.422 8.277-18.904 8.277-11.266 0-20.871-7.317-24.307-17.444-1.368-4.033 1.728-8.214 5.987-8.214h1.087c2.705 0 4.976 1.781 5.945 4.306 2.026 5.283 7.664 8.803 13.861 7.509 5.657-1.18 9.545-6.451 9.545-12.23v-24.018h13.574v24.433c0 6.655 5.43 12.084 12.117 12.084 5.229 0 9.701-3.352 11.377-8.016.906-2.521 3.465-4.068 6.144-4.068z" fill="#ef7f4d"/><path d="m293.226 310.17c4.259 0 7.355 4.181 5.987 8.214-3.436 10.127-13.041 17.444-24.307 17.444-7.482 0-14.203-3.178-18.904-8.277v-41.814h6.787v24.433c0 6.655 5.43 12.084 12.117 12.084 5.229 0 9.701-3.352 11.377-8.016.906-2.521 3.465-4.068 6.144-4.068z" fill="#e56e3e"/><g><path d="m276.296 274.778c0 6.787-9.071 15.892-20.295 15.892-11.223 0-20.295-9.104-20.295-15.892s9.071-12.283 20.295-12.283c11.224.001 20.295 5.496 20.295 12.283z" fill="#ce5429"/></g><path d="m276.296 274.778c0 6.787-9.071 15.892-20.295 15.892v-28.174c11.224 0 20.295 5.495 20.295 12.282z" fill="#c4441c"/></g><g><g><path d="m217.449 418.281c-21.043 0-19.676-17.059-19.676-38.102s-1.367-38.102 19.676-38.102 38.102 17.059 38.102 38.102-17.058 38.102-38.102 38.102z" fill="#ff64b9"/><path d="m236.059 371.649-4.658-4.658c-2.573-2.573-6.744-2.573-9.317 0-2.573 2.573-2.573 6.744 0 9.317l4.658 4.658-4.658 4.658c-2.573 2.573-2.573 6.744 0 9.317 2.573 2.573 6.744 2.573 9.317 0l4.658-4.658 9.317-9.317z" fill="#ff48a4"/><path d="m293.653 418.281c21.043 0 19.676-17.059 19.676-38.102s1.367-38.102-19.676-38.102-38.102 17.059-38.102 38.102 17.059 38.102 38.102 38.102z" fill="#ff48a4"/><path d="m271.947 371.649 4.658-4.658c2.573-2.573 6.744-2.573 9.317 0 2.573 2.573 2.573 6.744 0 9.317l-4.658 4.658 4.658 4.658c2.573 2.573 2.573 6.744 0 9.317-2.573 2.573-6.744 2.573-9.317 0l-4.658-4.658-9.317-9.317z" fill="#f42c9a"/></g><g><path d="m269.711 373.103v14.154c0 3.916-1.591 7.449-4.147 10.006-2.537 2.537-6.01 4.107-9.876 4.148h-.141c-7.812 0-14.154-6.332-14.154-14.154v-14.154c0-3.916 1.581-7.449 4.148-10.016 2.567-2.557 6.1-4.147 10.006-4.147h.141c7.762.08 14.023 6.392 14.023 14.163z" fill="#ff85ce"/><path d="m269.711 373.103v14.154c0 3.916-1.591 7.449-4.147 10.006-2.537 2.537-6.01 4.107-9.876 4.148-.221-6.584-.111-13.751-.111-21.231 0-7.49-.111-14.647.111-21.241 7.762.081 14.023 6.393 14.023 14.164z" fill="#ff64b9"/></g></g></g></g></g></g></svg>