<svg id="Capa_1" enable-background="new 0 0 512 512" height="512" viewBox="0 0 512 512" width="512" xmlns="http://www.w3.org/2000/svg"><g><g><path d="m512 256c0 141.387-114.613 256-256 256-3.648 0-7.275-.075-10.891-.235-13.835-10.293-30.848-15.403-48.064-14.4l-22.741 1.323h-.011c-101.322-34.101-174.293-129.867-174.293-242.688 0-141.387 114.613-256 256-256s256 114.613 256 256z" fill="#374c81"/><g><g><path d="m512 256c0 85.653-42.08 161.504-106.677 207.968-1.099.789-2.208 1.579-3.317 2.347-2.315 1.611-4.651 3.179-7.019 4.693-1.493.96-2.987 1.909-4.501 2.848-1.504.928-3.029 1.856-4.555 2.752-38.091 22.496-82.496 35.392-129.931 35.392-3.648 0-7.275-.075-10.88-.224-13.835-10.304-30.859-15.413-48.075-14.411l-22.752 1.323c-23.072-7.765-44.683-18.731-64.299-32.373-66.474-46.24-109.994-123.2-109.994-210.315 0-46.219 12.245-89.568 33.685-126.997 44.118 77.066 127.158 129.002 222.315 129.002s178.208-51.936 222.315-129.003c21.44 37.43 33.685 80.779 33.685 126.998z" fill="#323b5a"/></g></g></g><g><g><g><path d="m254.955 505.131-9.835 6.645c-24.672-1.035-48.437-5.557-70.827-13.088l-32.907-111.275 84.469-57.045 41.493 140.256c3.841 12.971-1.183 26.933-12.393 34.507z" fill="#00e8e9"/><path d="m254.955 505.131-9.835 6.645c-5.739-.245-11.435-.672-17.077-1.301l-44.779-151.349 42.592-28.757 41.493 140.256c3.84 12.97-1.184 26.932-12.394 34.506z" fill="#00d3cd"/><path d="m170.796 397.969 30.686 103.734c.683 2.333 2.332 3.368 3.606 3.819 1.261.46 3.198.711 5.209-.647l30.55-20.632c2.115-1.428 3.039-4.029 2.321-6.472l-31.73-107.25z" fill="#00d3cd"/><path d="m211.438 370.521 31.73 107.25c.718 2.443-.206 5.044-2.321 6.472l-17.142 11.577-32.934-111.341z" fill="#00c6bc"/><path d="m380.908 176.572 7.045 10.432c3.95 5.849 2.402 13.775-3.433 17.717l-55.264 37.322-21.319-31.568 55.264-37.322c5.835-3.942 13.766-2.417 17.707 3.419z" fill="#fff"/><path d="m384.435 181.794 3.518 5.209c3.95 5.849 2.402 13.775-3.433 17.717l-55.264 37.322-10.66-15.784z" fill="#d1f6ff"/><path d="m342.662 168.525 38.486 56.987c8.848 13.101 5.4 30.894-7.702 39.742l-206.048 139.154c-28.838 19.475-68.003 11.885-87.478-16.952-19.48-28.845-11.889-68.021 16.957-87.501l206.022-139.135c13.108-8.854 30.911-5.404 39.763 7.705z" fill="#ffee73"/><path d="m342.662 168.525 38.477 56.974c8.852 13.108 5.415 30.903-7.693 39.755l-187.764 126.805-70.535-104.444 187.764-126.805c13.108-8.852 30.899-5.393 39.751 7.715z" fill="#ffe131"/><path d="m342.662 168.525 38.477 56.974c8.852 13.108 5.415 30.903-7.693 39.755l-117.265 79.194-70.535-104.444 117.265-79.194c13.108-8.852 30.899-5.393 39.751 7.715z" fill="#fcbf12"/><path d="m268 123.556c7.785 11.528 10.165 25.129 7.72 37.806-2.467 12.673-9.755 24.4-21.283 32.186l-168.012 113.464c-23.069 15.58-54.412 9.506-69.992-13.564-7.785-11.528-10.165-25.129-7.719-37.806 2.454-12.664 9.742-24.392 21.283-32.186l168.012-113.465c23.068-15.578 54.411-9.504 69.991 13.565z" fill="#5cbdff"/><path d="m268 123.556c7.785 11.528 10.165 25.129 7.72 37.806-2.467 12.673-9.755 24.4-21.283 32.186l-105.123 70.994c-23.069 15.58-54.412 9.506-69.992-13.563-7.785-11.528-10.165-25.129-7.72-37.806 2.454-12.664 9.742-24.392 21.283-32.186l105.123-70.994c23.069-15.58 54.412-9.506 69.992 13.563z" fill="#24b1ff"/><path d="m268 123.556c7.785 11.528 10.165 25.129 7.72 37.806-2.467 12.673-9.755 24.4-21.283 32.186l-84.012 56.737-56.428-83.555 84.012-56.737c23.068-15.58 54.411-9.506 69.991 13.563z" fill="#0098ff"/><path d="m122.364 334.17c4.67 6.915 2.85 16.308-4.065 20.978s-16.308 2.85-20.978-4.065-2.85-16.308 4.065-20.978c6.916-4.671 16.308-2.851 20.978 4.065z" fill="#fff"/><path d="m101.387 330.104 16.913 25.043c6.915-4.67 8.735-14.063 4.065-20.978-4.671-6.915-14.063-8.735-20.978-4.065z" fill="#d1f6ff"/><g fill="#fff"><path d="m402.732 93.055c-9.3 4.889-13.972 14.6-13.039 24.094 1.258 12.799 1.352 25.685-1.032 38.322-.471 2.498 2.306 4.324 4.412 2.901l34.622-23.382c11.945-8.067 14.491-24.843 4.89-36.15-7.279-8.573-19.897-11.018-29.853-5.785z"/><path d="m462.644 184.394c-5.767 4.897-13.51 5.405-19.601 2.229-8.21-4.283-16.792-7.811-25.875-9.618-1.795-.357-2.268-2.703-.751-3.727l24.931-16.837c8.601-5.809 20.492-2.997 25.462 6.457 3.769 7.168 2.008 16.254-4.166 21.496z"/></g></g></g></g></g></svg>