<svg id="Capa_1" enable-background="new 0 0 512.005 512.005" height="512" viewBox="0 0 512.005 512.005" width="512" xmlns="http://www.w3.org/2000/svg"><g><g><path d="m261.993 511.932c-122.81 2.88-227.42-81.21-254.93-196.02l9.05-149.48c35.54-95.12 126.17-163.84 233.9-166.36 141.35-3.31 258.61 108.59 261.92 249.94s-108.59 258.61-249.94 261.92z" fill="#ffee73"/><g><g><path d="m449.363 423.762c-12.63 14.56-26.88 27.67-42.48 39.08-40.72 29.76-90.64 47.82-144.89 49.09-2.74.07-5.48.08-8.21.06h-.15c-51.1-.44-98.77-15.93-138.67-42.33-20.69-13.69-39.3-30.3-55.2-49.28-24.98-29.76-43.32-65.33-52.7-104.47l9.05-149.44c4.15-11.13 9.06-21.89 14.66-32.23 45.91 76.01 130.14 125.98 225.27 123.76 95.15-2.22 176.96-56.09 219.25-134.17 22.3 36.92 35.56 79.97 36.64 126.18 1.55 66.31-22.26 127.32-62.57 173.75z" fill="#ffe131"/></g></g></g><g><g><path d="m214.929 316.545h34.126v99.894h-34.126z" fill="#323b5a"/><path d="m214.929 316.545h17.063v99.894h-17.063z" fill="#374c81"/><path d="m336.591 316.545h34.126v99.894h-34.126z" fill="#323b5a"/><path d="m336.591 316.545h17.063v99.894h-17.063z" fill="#374c81"/><path d="m264.305 70.582h30.145v187.99h-30.145z" fill="#4e689b"/><path d="m279.389 70.582h15.061v187.99h-15.061z" fill="#374c81"/><path d="m337.54 181.378v-.023c0-17.427-14.128-31.555-31.555-31.555h-55.171c-17.45 0-31.578 14.128-31.578 31.555v.023z" fill="#4e689b"/><path d="m337.54 181.378v-.023c0-17.427-14.128-31.555-31.555-31.555h-41.611c-8.873 0-16.062 14.128-16.062 31.555v.023z" fill="#374c81"/><path d="m337.54 181.378v-.023c0-17.427-14.128-31.555-31.555-31.555h-26.596v31.578z" fill="#323b5a"/><path d="m337.54 70.582v.023c0 17.427-14.128 31.555-31.555 31.555h-55.171c-17.45 0-31.578-14.128-31.578-31.555v-.023z" fill="#4e689b"/><path d="m337.54 70.582v.023c0 17.427-14.128 31.555-31.555 31.555h-41.611c-8.873 0-16.062-14.128-16.062-31.555v-.023z" fill="#374c81"/><path d="m337.54 70.582v.023c0 17.427-14.128 31.555-31.555 31.555h-26.596v-31.578z" fill="#323b5a"/><path d="m420.444 70.582v.023c0 8.304-6.757 15.061-15.061 15.061h-253.99c-8.304 0-15.061-6.757-15.061-15.061v-.023c0-8.304 6.757-15.061 15.061-15.061h253.99c8.304 0 15.061 6.757 15.061 15.061z" fill="#fff"/><path d="m420.444 70.582v.023c0 8.304-6.757 15.061-15.061 15.061h-190.993c-8.304 0-15.061-6.757-15.061-15.061v-.023c0-8.304 6.757-15.061 15.061-15.061h190.993c8.304 0 15.061 6.757 15.061 15.061z" fill="#d1f6ff"/><path d="m420.444 70.582v.023c0 8.304-6.757 15.061-15.061 15.061h-125.994v-30.145h125.994c8.304 0 15.061 6.757 15.061 15.061z" fill="#b3f4ff"/><path d="m294.973 232.932v60.29h-255.95c-11.86 0-22.93-3.44-32.25-9.35l-.74-83.36v-.01c2.58-11.67 5.96-23.05 10.08-34.07 14.13.65 26.6 9.61 31.67 22.91l16.63 43.59z" fill="#24b1ff"/><path d="m128.483 232.931c-1.866 8.418-2.867 17.177-2.867 26.163 0 11.717 1.661 23.183 4.914 34.126h164.442v-60.289z" fill="#0098ff"/><path d="m434.392 292.694c-7.62 31.83-35.47 58.59-73.85 58.59h-115.44c-4.46 0-8.83-.32-13.1-.94-20.36-2.86-38.59-12.35-52.47-26.2-16.76-16.79-27.14-39.98-27.14-65.57 0-51.21 41.5-92.71 92.71-92.71h64.8c38.42 0 59.08 11.69 80.28 31.71z" fill="#5cbdff"/><path d="m434.392 292.694c-7.62 31.83-35.47 58.59-73.85 58.59h-81.15c-4.08 0-8.08-.32-12.02-.94-18.65-2.86-35.37-12.35-48.09-26.2-15.38-16.79-24.89-39.98-24.89-65.57 0-51.21 38.04-92.71 85-92.71h30.51c38.42 0 59.08 11.69 80.28 31.71z" fill="#24b1ff"/><path d="m434.392 292.694c-7.62 31.83-35.47 58.59-73.85 58.59h-81.15v-185.42h30.51c38.42 0 59.08 11.69 80.28 31.71z" fill="#0098ff"/><path d="m434.39 292.698h-50.074c-26.277 0-47.572-21.295-47.572-47.572 0-13.127 5.324-25.026 13.923-33.626 8.622-8.6 20.521-13.924 33.648-13.924h5.87c8.213 7.758 16.517 16.768 25.959 26.823 18.838 20.067 23.729 45.48 18.246 68.299z" fill="#b3f4ff"/><g><path d="m74.103 258.122c0 32.27-26.15 58.42-58.42 58.42-2.93 0-5.81-.22-8.62-.63-2.82-11.74-4.82-23.79-5.96-36.11-.54-5.88-.89-11.82-1.03-17.81-.5-21.14 1.58-41.73 5.96-61.49 3.14-.52 6.36-.79 9.65-.79 32.27 0 58.42 26.15 58.42 58.41z" fill="#d1f6ff"/><path d="m15.686 199.707v116.838c32.264 0 58.419-26.155 58.419-58.419s-26.155-58.419-58.419-58.419z" fill="#b3f4ff"/><path d="m11.773 280.832c-4.13-.68-7.92-2.51-11.01-5.15-.35-4.53-.58-9.1-.69-13.69-.17-7.11-.04-14.15.37-21.12 4.95-4.39 11.8-6.66 19.16-5.45 9.55 1.57 17.24 9.27 18.8 18.81 2.57 15.77-10.86 29.19-26.63 26.6z" fill="#374c81"/><path d="m38.719 258.123c0 12.72-10.308 23.029-23.029 23.029v-46.057c12.721 0 23.029 10.308 23.029 23.028z" fill="#323b5a"/></g><path d="m459.393 365.819c-23.524 41.748-67.911 67.684-115.824 67.684l-54.976 19.59-43.262-19.59c-47.913 0-92.3-25.936-115.824-67.684-4.641-8.213-1.729-18.61 6.484-23.229 8.213-4.641 18.61-1.729 23.228 6.484 17.495 31.032 50.484 50.302 86.112 50.302h98.238c35.628 0 68.616-19.27 86.089-50.302 4.641-8.213 15.038-11.125 23.251-6.484 8.213 4.618 11.125 15.016 6.484 23.229z" fill="#323b5a"/><path d="m452.909 342.59-8.372 14.856c-20.544 36.447-59.129 58.993-100.968 58.993h-98.238c-41.839 0-80.424-22.546-100.968-58.993l-8.372-14.856c8.213-4.641 18.61-1.729 23.228 6.484 17.495 31.032 50.484 50.302 86.112 50.302h98.238c35.628 0 68.616-19.27 86.089-50.302 4.641-8.213 15.038-11.125 23.251-6.484z" fill="#374c81"/><g><path d="m320.477 304.03v-62.162c0-22.633-17.847-41.819-40.478-42.148-11.57-.168-22.089 4.458-29.662 12.031-7.439 7.44-12.035 17.7-12.035 29.053v63.227c0 6.912 5.603 12.515 12.515 12.515h57.145c6.912-.001 12.515-5.604 12.515-12.516z" fill="#374c81"/><path d="m307.962 316.545c6.912 0 12.515-5.603 12.515-12.515v-63.227c0-22.705-18.405-41.088-41.088-41.088v116.83z" fill="#323b5a"/></g></g></g><path d="m440.463 433.502c-46.57 48.39-112 78.5-184.46 78.5s-137.89-30.11-184.46-78.5z" fill="#374c81"/><path d="m440.463 433.502c-46.57 48.39-112 78.5-184.46 78.5v-78.5z" fill="#323b5a"/></g></svg>