<svg id="Capa_1" enable-background="new 0 0 512 512" height="512" viewBox="0 0 512 512" width="512" xmlns="http://www.w3.org/2000/svg"><g><g><path d="m511.995 254.378c.474 76.437-32.561 145.17-85.264 192.374l-.006.002c-109.917 42.007-231.485 41.88-341.315-.355l-.941-.362c-51.872-46.848-84.469-114.634-84.469-190.037 0-141.186 114.288-255.675 255.399-255.999 141.364-.325 255.72 113.015 256.596 254.377z" fill="#5cbdff"/><g><g><path d="m512 256c0 75.787-32.939 143.883-85.269 190.752-109.92 42.008-231.492 41.88-341.324-.358l-.927-.356h-.011c-51.872-46.849-84.469-114.635-84.469-190.038 0-46.219 12.245-89.568 33.675-126.998 44.128 77.067 127.168 129.003 222.325 129.003s178.208-51.936 222.325-129.003c21.43 37.43 33.675 80.779 33.675 126.998z" fill="#24b1ff"/></g></g></g><g><g><path d="m425.931 337.422v109.64l-169.931 64.938-171.531-65.963v-108.615z" fill="#ff85ce"/><path d="m426.731 337.422v109.33l-170.731 65.248-85.355-32.821v-141.757z" fill="#ff64b9"/><path d="m426.731 337.422v109.33l-170.731 65.248v-174.578z" fill="#ff48a4"/><path d="m438.802 287.389v42.564c0 31.738-81.838 57.475-182.802 57.475-42.18 0-81.008-4.471-111.948-12.038-43.106-10.505-70.853-26.95-70.853-45.437v-42.564z" fill="#ffe131"/><path d="m438.802 287.389v42.564c0 31.738-81.838 57.475-182.802 57.475-42.18 0-81.008-4.471-111.948-12.038v-88h294.75z" fill="#fcbf12"/><path d="m438.802 287.389v42.564c0 31.738-81.838 57.475-182.802 57.475v-100.039z" fill="#ff9f00"/><ellipse cx="256" cy="287.389" fill="#ffee73" rx="182.802" ry="57.475"/><path d="m438.802 287.389c0 31.739-81.838 57.475-182.802 57.475v-114.95c100.964 0 182.802 25.736 182.802 57.475z" fill="#fcbf12"/><path d="m381.423 256.161c-33.303-10.473-77.847-16.284-125.423-16.284s-92.119 5.811-125.423 16.284c-30.653 9.611-44.607 21.489-44.607 28.418 0 1.852.958 4.023 2.938 6.386 5.556 6.705 19.094 14.944 41.669 22.064 33.303 10.473 77.847 16.253 125.423 16.253s92.12-5.779 125.423-16.253c22.575-7.12 36.113-15.359 41.669-22.064 1.979-2.363 2.937-4.534 2.937-6.386 0-6.929-13.953-18.807-44.606-28.418z" fill="#ffe131"/><path d="m426.029 284.579c0 1.852-.958 4.023-2.937 6.386-5.556 6.705-19.094 14.944-41.669 22.064-33.303 10.474-77.847 16.253-125.423 16.253v-89.405c47.576 0 92.12 5.811 125.423 16.284 30.653 9.611 44.606 21.489 44.606 28.418z" fill="#ff9f00"/><path d="m381.423 268.933c-33.303-10.473-77.847-16.284-125.423-16.284s-92.119 5.811-125.423 16.284c-22.575 7.12-36.113 15.359-41.669 22.032 5.556 6.705 19.094 14.944 41.669 22.064 33.303 10.473 77.847 16.253 125.423 16.253s92.12-5.779 125.423-16.253c22.575-7.12 36.113-15.359 41.669-22.064-5.556-6.673-19.094-14.911-41.669-22.032z" fill="#fff"/><path d="m423.092 290.965c-5.556 6.705-19.094 14.944-41.669 22.064-33.303 10.474-77.847 16.253-125.423 16.253v-76.633c47.576 0 92.12 5.811 125.423 16.284 22.575 7.121 36.113 15.359 41.669 22.032z" fill="#d1f6ff"/></g><g><g><path d="m176.373 90.353c-3.755 3.758-6.002 8.446-6.74 13.316-1.543 10.135-5.938 19.609-13.179 26.856l-123.503 122.496c-3.781 3.784-3.785 9.913.005 13.7l.131.131c3.836 3.702 10.024 3.412 13.792-.359l122.893-121.886c7.221-7.227 16.521-12.206 26.649-13.501 5.29-.677 10.389-3.118 14.367-7.321 8.447-8.925 8.71-23.118.565-32.331-.341-.38-.689-.753-1.049-1.114-9.372-9.364-24.56-9.365-33.931.013z" fill="#374c81"/><path d="m176.373 90.353c-3.755 3.758-6.002 8.446-6.74 13.316-1.543 10.135-5.938 19.609-13.179 26.856l-123.503 122.496c-3.781 3.784-3.785 9.913.005 13.7l177.347-176.381c-9.371-9.364-24.559-9.365-33.93.013z" fill="#323b5a"/></g><g><path d="m327.085 59.427c3.755 3.758 6.001 8.446 6.74 13.316 1.543 10.135 5.938 19.609 13.179 26.856l123.502 122.495c3.781 3.784 3.785 9.913-.005 13.701l-.131.131c-3.836 3.702-10.024 3.412-13.792-.359l-122.893-121.886c-7.221-7.227-16.521-12.206-26.649-13.501-5.29-.677-10.389-3.118-14.367-7.321-8.447-8.925-8.71-23.117-.565-32.331.341-.38.689-.754 1.049-1.114 9.373-9.364 24.561-9.365 33.932.013z" fill="#374c81"/><path d="m327.085 59.427c3.755 3.758 6.001 8.446 6.74 13.316 1.543 10.135 5.938 19.609 13.179 26.856l123.502 122.495c3.781 3.784 3.785 9.913-.005 13.701l-177.347-176.381c9.372-9.364 24.56-9.365 33.931.013z" fill="#323b5a"/></g></g><g><path d="m425.931 424.256v23.221c-45.195 40.139-104.715 64.523-169.931 64.523-29.931 0-58.656-5.131-85.355-14.571-32.16-11.371-61.376-28.992-86.176-51.392v-22.432c17.333 7.232 39.189 13.323 64.235 17.867 31.584 5.739 68.203 9.035 107.296 9.035 69.152 0 130.677-10.283 169.931-26.251z" fill="#ffe131"/><path d="m426.731 423.936v22.816c-.267.245-.533.491-.8.725-45.195 40.139-104.715 64.523-169.931 64.523-29.931 0-58.656-5.131-85.355-14.571v-52.49c26.165 3.584 55.008 5.568 85.355 5.568 69.632 0 131.52-10.422 170.731-26.571z" fill="#fcbf12"/><path d="m426.731 423.936v22.816c-.267.245-.533.491-.8.725-45.195 40.139-104.715 64.523-169.931 64.523v-61.493c69.632 0 131.52-10.422 170.731-26.571z" fill="#ff9f00"/></g></g></g></svg>