<svg id="Capa_1" enable-background="new 0 0 480 480" height="512" viewBox="0 0 480 480" width="512" xmlns="http://www.w3.org/2000/svg"><path d="m480 240c0 132.55-107.45 240-240 240-44.81 0-86.74-12.28-122.63-33.64l.01-.01c-7.55-36.36-36.9-64.19-73.6-69.8l-1.31-.2c-26.79-38.72-42.47-85.7-42.47-136.35 0-132.55 107.45-240 240-240s240 107.45 240 240z" fill="#5cbdff"/><g><path d="m480 240c0 81.67-40.8 153.82-103.12 197.17-38.83 27-86 42.83-136.88 42.83-44.81 0-86.73-12.28-122.62-33.65-7.55-36.36-36.9-64.19-73.6-69.8l-1.31-.2c-26.78-38.72-42.47-85.71-42.47-136.35 0-43.33 11.48-83.97 31.58-119.06 41.36 72.25 119.21 120.94 208.42 120.94s167.07-48.69 208.42-120.94c20.1 35.09 31.58 75.73 31.58 119.06z" fill="#24b1ff"/></g><g><g><g><g><g fill="#ffe131"><path d="m113.744 281.897h28.989v66.733h-28.989z" transform="matrix(.707 -.707 .707 .707 -185.365 183.016)"/><path d="m159.864 235.776h28.989v66.733h-28.989z" transform="matrix(.707 -.707 .707 .707 -139.244 202.121)"/><path d="m205.988 189.654h28.989v66.738h-28.989z" transform="matrix(.707 -.707 .707 .707 -93.124 221.227)"/></g><path d="m208.111 194.779h14.494v66.738h-14.494z" fill="#fcbf12" transform="matrix(.707 -.707 .707 .707 -98.248 219.103)"/><path d="m161.989 240.9h14.494v66.738h-14.494z" fill="#fcbf12" transform="matrix(.707 -.707 .707 .707 -144.37 200.002)"/><path d="m115.869 287.021h14.494v66.738h-14.494z" fill="#fcbf12" transform="matrix(.707 -.707 .707 .707 -190.491 180.898)"/><path d="m94.395 281.421-10.249 10.249c-5.66 5.66-5.66 14.838 0 20.498 5.66 5.66 14.838 5.66 20.498 0l10.249-10.249 10.249-10.249c5.66-5.661 5.66-14.838 0-20.498-5.66-5.66-14.838-5.66-20.498 0z" fill="#ffee73"/><path d="m140.516 235.3-10.249 10.249c-5.66 5.66-5.66 14.838 0 20.498 5.66 5.66 14.838 5.66 20.498 0l10.249-10.249 10.249-10.249c5.661-5.66 5.661-14.838 0-20.498-5.66-5.66-14.838-5.66-20.498 0z" fill="#ffee73"/><path d="m217.385 199.428-20.498 20.498c-2.824 2.824-6.548 4.248-10.249 4.236-3.712 0-7.413-1.401-10.249-4.236-5.66-5.66-5.66-14.838 0-20.498l20.498-20.498c2.824-2.824 6.548-4.248 10.249-4.236 3.713 0 7.414 1.401 10.249 4.236 5.66 5.66 5.66 14.838 0 20.498z" fill="#ffee73"/></g><g><path d="m315.569 368.164-47.885 47.885c-28.791 28.791-75.473 28.791-104.264 0l-44.374-44.374 20.064-20.064 44.374 44.374c17.678 17.678 46.447 17.69 64.137 0l47.885-47.885c17.678-17.678 17.678-46.458 0-64.136l-44.374-44.374 20.064-20.064 44.374 44.374c28.79 28.791 28.79 75.473-.001 104.264z" fill="#ffee73"/><path d="m303.152 361.81-42.658 42.657c-24.466 24.466-64.125 24.466-88.592 0l-42.825-42.825 10.032-10.032 44.374 44.374c17.678 17.678 46.447 17.69 64.137 0l47.885-47.885c17.678-17.678 17.678-46.458 0-64.136l-44.374-44.374 9.196-9.196 42.825 42.825c24.466 24.467 24.466 64.126 0 88.592z" fill="#fcbf12"/><path d="m413.791 214.99-41.142 9.062c-60.726 13.354-116.369 43.828-160.33 87.79l-90.766 90.766-33.439-33.439 90.766-90.766c43.962-43.962 74.425-99.616 87.778-160.342l9.062-41.141z" fill="#ffe131"/><path d="m413.791 214.99-41.142 9.062c-60.726 13.354-116.369 43.828-160.33 87.79l-90.766 90.766-25.079-25.079 90.766-90.766c43.961-43.962 80.723-93.318 105.913-142.206l17.088-33.116z" fill="#fcbf12"/><path d="m413.791 214.99-41.142 9.062c-60.726 13.354-116.369 43.828-160.33 87.79l-90.766 90.766-16.72-16.72 239.928-239.928z" fill="#ff9f00"/><path d="m121 443.29c-1.14 1.13-2.35 2.16-3.62 3.06-4.87-2.89-9.62-5.96-14.26-9.18-23.68-16.47-44.25-37.09-60.65-60.82 1.29-2.38 2.95-4.61 4.96-6.62 5.7-5.7 13.15-8.55 20.62-8.55s14.93 2.85 20.62 8.55l32.33 32.32c11.37 11.38 11.39 29.85 0 41.24z" fill="#ffee73"/><path d="m121 443.29c-1.14 1.13-2.35 2.16-3.62 3.06-4.87-2.89-9.62-5.96-14.26-9.18-16.49-11.47-31.47-24.95-44.59-40.1 1.95-3.03 4.4-6.07 7.29-8.96 5.7-5.69 12.01-9.68 17.6-11.55 5.61-1.86 10.49-1.6 13.34 1.25l24.24 24.24c11.37 11.38 11.39 29.85 0 41.24z" fill="#ffe131"/><path d="m121 443.29c-1.14 1.13-2.35 2.16-3.62 3.06-4.87-2.89-9.62-5.96-14.26-9.18-9.67-6.73-18.82-14.14-27.38-22.19l29.09-29.1 16.17 16.17c11.37 11.38 11.39 29.85 0 41.24z" fill="#fcbf12"/><path d="m440.164 241.362c-11.392 11.392-29.85 11.392-41.242 0l-149.574-149.574c-11.381-11.381-11.392-29.85 0-41.242 5.696-5.696 13.153-8.538 20.621-8.538s14.925 2.842 20.621 8.538l149.574 149.574c11.391 11.392 11.391 29.85 0 41.242z" fill="#ffee73"/><path d="m440.164 241.362c-11.392 11.392-29.85 11.392-41.242 0l-107.976-107.976c-11.38-11.381-11.392-29.85 0-41.242 5.696-5.696 13.153-8.538 20.621-8.538s14.925 2.842 20.621 8.538l107.976 107.976c11.391 11.392 11.391 29.85 0 41.242z" fill="#ffe131"/><path d="m440.164 241.362c-11.392 11.392-29.85 11.392-41.242 0l-74.781-74.781 41.242-41.242 74.781 74.781c11.391 11.392 11.391 29.85 0 41.242z" fill="#fcbf12"/></g><g fill="#ffe131"><path d="m207.136 209.677-10.249 10.249c-2.824 2.824-6.548 4.248-10.249 4.236-3.712 0-7.413-1.401-10.249-4.236-5.66-5.66-5.66-14.838 0-20.498l10.249-10.249z"/><path d="m161.015 255.799-10.249 10.249c-2.824 2.824-6.548 4.248-10.249 4.236-3.712 0-7.413-1.401-10.249-4.236-5.66-5.66-5.66-14.838 0-20.498l10.249-10.249z"/><path d="m114.894 301.919-10.249 10.249c-2.824 2.824-6.548 4.248-10.249 4.236-3.712 0-7.413-1.401-10.249-4.236-5.66-5.66-5.66-14.838 0-20.498l10.249-10.249z"/></g></g></g></g></svg>