<svg id="Capa_1" enable-background="new 0 0 512 512" height="512" viewBox="0 0 512 512" width="512" xmlns="http://www.w3.org/2000/svg"><g><g><circle cx="256" cy="256" fill="#5cbdff" r="256"/><g><g><path d="m512 256c0 87.115-43.52 164.075-109.995 210.315-41.418 28.8-91.733 45.685-146.005 45.685-41.685 0-81.024-9.963-115.797-27.637-10.507-5.323-20.597-11.371-30.208-18.048-5.387-3.744-10.613-7.691-15.691-11.85h-.011c-16.875-13.75-31.957-29.632-44.853-47.211-10.773-14.688-20.021-30.571-27.488-47.403-14.112-31.744-21.952-66.88-21.952-103.851 0-46.219 12.245-89.568 33.685-126.997 38.336 66.976 106.08 114.965 185.621 126.389 8.544 1.227 17.227 2.038 26.027 2.389 3.541.15 7.093.224 10.667.224 95.157 0 178.208-51.936 222.315-129.003 21.44 37.43 33.685 80.779 33.685 126.998z" fill="#24b1ff"/></g></g></g><g><g><g><g><path d="m245.333 257.781-14.208-14.208-11.819 11.819-55.819 55.819c-2.325 2.325-4.821 4.416-7.456 6.283-12.821 8.971-28.949 12.288-44.491 8.81-29.301-6.592-61.333 2.08-83.403 26.016-2.229 2.421-4.288 4.939-6.187 7.531 7.467 16.832 16.715 32.715 27.488 47.403.917-9.611 5.067-18.965 12.427-26.325 16.832-16.832 44.107-16.843 60.949-.011l.011.011c16.821 16.821 16.821 44.128-.011 60.96-7.915 7.915-18.144 12.117-28.512 12.576 5.077 4.16 10.304 8.106 15.691 11.85 9.611 6.677 19.701 12.725 30.208 18.048 4.885-3.211 9.525-6.976 13.824-11.275 21.813-21.803 29.643-52.267 23.541-80.309-3.435-15.765-.32-32.096 8.715-45.035 1.824-2.656 3.925-5.173 6.24-7.488l67.648-67.648z" fill="#4e689b"/><path d="m192.523 340.256c-13.739 13.739-19.093 33.536-14.955 52.523 6.101 28.043-1.728 58.507-23.541 80.309-4.299 4.299-8.939 8.064-13.824 11.275-10.507-5.323-20.597-11.371-30.208-18.048-5.387-3.744-10.613-7.691-15.691-11.85 10.368-.459 20.608-4.661 28.512-12.576 16.832-16.832 16.832-44.139.011-60.96l-.011-.011 122.837-122.827 14.517 14.517z" fill="#374c81"/><path d="m186.276 347.737c-5.753-4.114-11.227-8.746-16.377-13.896-5.144-5.144-9.769-10.61-13.876-16.356 2.635-1.85 5.137-3.945 7.456-6.265l67.653-67.653 29.04 29.04-67.646 67.647c-2.325 2.325-4.414 4.834-6.25 7.483z" fill="#374c81"/><path d="m186.276 347.737c-5.753-4.114-11.227-8.746-16.377-13.896l75.755-75.755 14.52 14.52-67.646 67.647c-2.327 2.326-4.416 4.835-6.252 7.484z" fill="#323b5a"/><path d="m399.98 262.711-61.402 53.119c-42.355 36.651-105.825 34.359-145.426-5.242s-41.893-103.071-5.242-145.426l53.119-61.402c40.59-46.91 112.455-49.51 156.317-5.648l8.283 8.283c43.861 43.861 41.261 115.726-5.649 156.316z" fill="#ffee73"/><path d="m399.98 262.711-61.402 53.119c-42.355 36.651-105.825 34.359-145.426-5.242-21.633-21.633-9.005-70.183 28.942-111.242l54.997-59.524c42.019-45.481 98.173-63.792 122.133-39.833l6.405 6.405c43.861 43.862 41.261 115.727-5.649 156.317z" fill="#ffe131"/><path d="m399.98 262.711-61.402 53.119c-42.355 36.651-105.825 34.359-145.426-5.242l208.336-208.336 4.142 4.142c43.86 43.862 41.26 115.727-5.65 156.317z" fill="#fcbf12"/></g><path d="m340.336 248.31-21.829-.273-12.6 17.814c-9.496 13.42-30.253 10.14-35.137-5.564l-6.475-20.841-20.841-6.475c-15.705-4.884-18.984-25.642-5.564-35.137l17.814-12.6-.273-21.829c-.217-16.433 18.522-25.978 31.689-16.146l17.499 13.055 20.666-7.015c7.779-2.635 15.389-.238 20.393 4.765 5.004 5.004 7.4 12.614 4.765 20.393l-7.015 20.666 13.056 17.498c9.83 13.167.286 31.906-16.148 31.689z" fill="#ff85ce"/><path d="m340.336 248.31-21.829-.273-12.6 17.814c-9.496 13.42-30.253 10.14-35.137-5.564l-6.475-20.841 81.382-81.382c5.004 5.004 7.4 12.614 4.765 20.393l-7.015 20.666 13.056 17.498c9.831 13.167.287 31.906-16.147 31.689z" fill="#ff64b9"/></g></g></g></g></svg>