<svg id="Capa_1" enable-background="new 0 0 480 480" height="512" viewBox="0 0 480 480" width="512" xmlns="http://www.w3.org/2000/svg"><path d="m480 240c0 112.55-77.47 207-181.99 232.94-16.11-7.38-34.95-5.5-49.29 4.91l-2.86 2.08c-1.95.05-3.9.07-5.86.07s-3.91-.02-5.86-.07l-2.86-2.08c-14.34-10.41-33.18-12.29-49.29-4.91-104.52-25.94-181.99-120.39-181.99-232.94 0-132.55 107.45-240 240-240s240 107.45 240 240z" fill="#374c81"/><g><path d="m480 240c0 81.67-40.8 153.82-103.12 197.17-23.57 16.39-50.2 28.66-78.87 35.76h-.01c-16.11-7.37-34.94-5.49-49.28 4.92l-2.86 2.08c-1.95.05-3.9.07-5.86.07s-3.91-.02-5.86-.07l-2.86-2.08c-14.34-10.41-33.18-12.29-49.29-4.91-28.67-7.11-55.31-19.39-78.87-35.77-62.32-43.35-103.12-115.5-103.12-197.17 0-43.33 11.48-83.97 31.58-119.06 41.36 72.25 119.21 120.94 208.42 120.94s167.07-48.69 208.42-120.94c20.1 35.09 31.58 75.73 31.58 119.06z" fill="#323b5a"/></g><g><g><g><g><g><path d="m234.14 388.35v91.58c-8.82-.21-17.51-.9-26.07-2.04-8.85-1.17-17.56-2.83-26.08-4.95v-84.59z" fill="#d1f6ff"/><path d="m208.07 388.35v89.54c-8.85-1.17-17.56-2.83-26.08-4.95v-84.59z" fill="#fff"/></g><g><path d="m298.01 388.35v84.58c-8.52 2.12-17.22 3.78-26.08 4.96-8.56 1.14-17.25 1.83-26.07 2.04v-91.58z" fill="#b3f4ff"/><path d="m271.93 388.35v89.54c-8.56 1.14-17.25 1.83-26.07 2.04v-91.58z" fill="#d1f6ff"/></g></g><g><g><g><g><path d="m402.377 155.169v106.273h-124.548v-35.983h88.566v-70.29z" fill="#b3f4ff"/><path d="m366.395 155.169v70.29h-88.566v19.038h106.557v-89.328z" fill="#d1f6ff"/></g><g><path d="m411.453 244.497c0 14.945-12.117 27.062-27.07 27.062-14.945 0-27.062-12.117-27.062-27.062s12.117-27.062 27.062-27.062c14.953 0 27.07 12.116 27.07 27.062z" fill="#fcbf12"/><path d="m411.453 244.497c0 14.945-12.117 27.062-27.07 27.062v-54.124c14.953 0 27.07 12.116 27.07 27.062z" fill="#ff9f00"/><path d="m397.696 244.497c0 7.347-5.958 13.313-13.313 13.313-7.347 0-13.305-5.966-13.305-13.313s5.958-13.313 13.305-13.313c7.355-.001 13.313 5.966 13.313 13.313z" fill="#ffe131"/></g><path d="m423.799 115.697v16.552c0 21.732-17.681 39.413-39.413 39.413s-39.413-17.681-39.413-39.413v-16.552h20.083v16.552c0 10.661 8.669 19.33 19.33 19.33s19.33-8.669 19.33-19.33v-16.552z" fill="#ff48a4"/><path d="m413.758 115.697v16.552c0 16.217-13.146 29.371-29.371 29.371s-29.371-13.155-29.371-29.371v-16.552h10.042v16.552c0 10.661 8.669 19.33 19.33 19.33s19.33-8.669 19.33-19.33v-16.552z" fill="#ff64b9"/></g><g><g><path d="m77.623 155.169v106.273h124.548v-35.983h-88.566v-70.29z" fill="#fff"/><path d="m113.605 155.169v70.29h88.566v19.038h-106.557v-89.328z" fill="#d1f6ff"/></g><g><ellipse cx="95.614" cy="244.496" fill="#ffe131" rx="27.065" ry="27.064" transform="matrix(.383 -.924 .924 .383 -166.861 239.267)"/><path d="m122.678 244.497c0 14.945-12.117 27.062-27.07 27.062v-54.124c14.954 0 27.07 12.116 27.07 27.062z" fill="#fcbf12"/><ellipse cx="95.614" cy="244.496" fill="#ffee73" rx="13.31" ry="13.31" transform="matrix(.383 -.924 .924 .383 -166.861 239.267)"/></g><path d="m56.201 115.697v16.552c0 21.732 17.681 39.413 39.413 39.413s39.413-17.681 39.413-39.413v-16.552h-20.083v16.552c0 10.661-8.669 19.33-19.33 19.33s-19.33-8.669-19.33-19.33v-16.552z" fill="#ff64b9"/><path d="m66.242 115.697v16.552c0 16.217 13.146 29.371 29.371 29.371 16.226 0 29.371-13.155 29.371-29.371v-16.552h-10.041v16.552c0 10.661-8.669 19.33-19.33 19.33s-19.33-8.669-19.33-19.33v-16.552z" fill="#ff85ce"/></g></g><g><path d="m272.395 65.662c2.602 1.502 3.493 4.829 1.991 7.431l-34.384 59.563-.828-1.431-33.563-58.132c-1.502-2.602-.611-5.929 1.991-7.431 2.602-1.502 5.928-.61 7.43 1.991l24.141 41.815.828 1.431 24.962-43.245c1.503-2.602 4.83-3.494 7.432-1.992z" fill="#fcbf12"/><path d="m264.964 67.654-24.962 43.245v21.757l34.384-59.563c1.502-2.602.61-5.929-1.991-7.431-2.602-1.502-5.929-.61-7.431 1.992z" fill="#ff9f00"/><g><path d="m168.266 150.564c-9.555 0-17.302 7.746-17.302 17.302s7.746 17.302 17.302 17.302h15.382v-34.603h-15.382z" fill="#ff85ce"/><path d="m313.391 150.564c9.556 0 17.302 7.746 17.302 17.302s-7.746 17.302-17.302 17.302h-15.382v-34.603h15.382z" fill="#ff64b9"/><path d="m313.389 149.713v35.455c0 5.69-4.611 10.301-10.301 10.301h-124.515c-5.69 0-10.309-4.611-10.309-10.301v-35.455c0-5.69 4.619-10.309 10.309-10.309h124.515c5.691 0 10.301 4.619 10.301 10.309z" fill="#fff"/><path d="m313.389 149.713v35.455c0 5.69-4.611 10.301-10.301 10.301h-63.086v-56.065h63.086c5.691 0 10.301 4.619 10.301 10.309z" fill="#d1f6ff"/><path d="m298.009 131.479v73.036c0 11.414-9.247 20.66-20.66 20.66h-73.044c-11.406 0-20.66-9.247-20.66-20.66v-73.036c0-11.414 9.255-20.66 20.66-20.66h73.044c11.413 0 20.66 9.246 20.66 20.66z" fill="#5cbdff"/><path d="m298.009 131.479v73.036c0 11.414-9.247 20.66-20.66 20.66h-44.861c-11.406 0-20.66-9.247-20.66-20.66v-73.036c0-11.414 9.255-20.66 20.66-20.66h44.861c11.413 0 20.66 9.246 20.66 20.66z" fill="#24b1ff"/><path d="m298.009 131.479v73.036c0 11.414-9.247 20.66-20.66 20.66h-37.346v-114.356h37.346c11.413 0 20.66 9.246 20.66 20.66z" fill="#0098ff"/><path d="m321.381 225.175v162.765c0 12.668-10.27 22.938-22.938 22.938h-116.889c-12.668 0-22.938-10.27-22.938-22.938v-162.765z" fill="#24b1ff"/><path d="m321.381 225.175v162.765c0 12.668-10.27 22.938-22.938 22.938h-99.954v-185.703z" fill="#0098ff"/><path d="m321.381 225.175v162.765c0 12.668-10.27 22.938-22.938 22.938h-58.44v-185.703z" fill="#0086ff"/><g><g><ellipse cx="216.486" cy="149.024" fill="#374c81" rx="16.369" ry="16.369" transform="matrix(.23 -.973 .973 .23 21.711 325.481)"/><ellipse cx="216.486" cy="149.024" fill="#ffee73" rx="8.05" ry="8.05" transform="matrix(.16 -.987 .987 .16 34.709 338.844)"/></g><g><ellipse cx="265.171" cy="149.024" fill="#323b5a" rx="16.369" ry="16.369" transform="matrix(.23 -.973 .973 .23 59.209 372.863)"/><ellipse cx="265.171" cy="149.024" fill="#ffee73" rx="8.05" ry="8.05" transform="matrix(.23 -.973 .973 .23 59.21 372.863)"/></g></g><g><path d="m273.627 192.448c0 4.376-1.774 8.343-4.644 11.213s-6.837 4.644-11.213 4.644h-35.535c-8.761 0-15.857-7.104-15.857-15.857 0-4.385 1.774-8.351 4.644-11.221s6.837-4.644 11.213-4.644h35.535c8.753-.001 15.857 7.104 15.857 15.865z" fill="#374c81"/><path d="m273.627 192.448c0 4.376-1.774 8.343-4.644 11.213s-6.837 4.644-11.213 4.644h-35.535c-8.761 0-15.857-7.104-15.857-15.857z" fill="#323b5a"/><path d="m257.77 184.532h-35.539c-4.36 0-7.908 3.548-7.908 7.916 0 4.36 3.548 7.908 7.908 7.908h35.539c4.36 0 7.908-3.548 7.908-7.908-.001-4.368-3.548-7.916-7.908-7.916z" fill="#fff"/></g><path d="m251.349 171.344h-22.694l11.347-20.778z" fill="#fff"/><path d="m265.677 192.448c0 4.36-3.548 7.908-7.908 7.908h-35.539c-4.36 0-7.908-3.548-7.908-7.908z" fill="#d1f6ff"/></g></g><path d="m280.712 272.228v32.677c0 6.962-5.648 12.611-12.611 12.611h-57.346c-6.962 0-12.602-5.648-12.602-12.611v-32.677c0-6.962 5.64-12.602 12.602-12.602h57.346c6.963 0 12.611 5.64 12.611 12.602z" fill="#ffe131"/><path d="m280.712 272.228v32.677c0 6.962-5.648 12.611-12.611 12.611h-28.928v-57.889h28.928c6.963-.001 12.611 5.639 12.611 12.601z" fill="#fcbf12"/><path d="m397.696 244.497c0 7.347-5.958 13.313-13.313 13.313v-26.627c7.355 0 13.313 5.967 13.313 13.314z" fill="#fcbf12"/><path d="m108.924 244.497c0 7.347-5.958 13.313-13.313 13.313v-26.627c7.355 0 13.313 5.967 13.313 13.314z" fill="#ffe131"/><path d="m251.349 171.344h-11.347v-20.778z" fill="#d1f6ff"/></g></g></g></g></svg>