<svg id="Capa_1" enable-background="new 0 0 512.003 512.003" height="512" viewBox="0 0 512.003 512.003" width="512" xmlns="http://www.w3.org/2000/svg"><g><g><ellipse cx="256.001" cy="256.001" fill="#ffee73" rx="256" ry="256" transform="matrix(.707 -.707 .707 .707 -106.039 256.001)"/><path d="m511.931 250.013c-1.08-46.21-14.34-89.26-36.64-126.18-42.29 78.08-124.1 131.95-219.25 134.17-95.13 2.22-179.36-47.75-225.27-123.76-20.55 37.91-31.78 81.54-30.7 127.75 1.41 60.4 23.65 115.44 59.69 158.39 15.9 18.98 34.51 35.59 55.2 49.28 5.07 3.35 10.26 6.53 15.57 9.52 16.1 9.08 33.27 16.46 51.27 21.9 22.79 6.89 46.9 10.69 71.83 10.91h.15c.73.01 1.48.01 2.22.01 1.99 0 3.99-.02 5.99-.07 43.43-1.02 84.09-12.8 119.47-32.72 8.81-4.97 17.3-10.44 25.42-16.37 15.6-11.41 29.85-24.53 42.48-39.08 40.31-46.43 64.12-107.44 62.57-173.75z" fill="#ffe131"/></g><g><g><g><g><path d="m367.48 162.262-238.034 259.641-39.352-39.352 138.411-138.411 14.342-2.214 1.188-13.317 16.496-16.496 12.791-2.519 2.83-13.101 16.421-16.421 12.922-2.68 2.747-12.99 30.69-30.689z" fill="#374c81"/><path d="m378.284 173.065-30.66 30.661-14.15 10.567-1.523 5.105-16.379 16.379-12.666.325-2.99 15.331-16.411 16.412-14.288-1.045-1.377 16.709-138.394 138.394-19.67-19.67 248.838-248.838z" fill="#323b5a"/><path d="m460.262 145.679-89.788 35.219-39.364-39.364c0-20.747 15.125-38.391 35.62-41.574l58.954-9.171c9.812-1.523 19.739 1.717 26.758 8.736l14.438 14.438c.824.824 1.557 1.695 2.187 2.599 7.03 9.985 3.102 24.446-8.805 29.117z" fill="#ff85ce"/><path d="m460.262 145.679-89.788 35.219-19.682-19.224c0-20.747 15.194-38.78 35.688-41.963l58.965-9.16c8.427-1.328 16.957.905 23.621 6.011 7.031 9.985 3.103 24.446-8.804 29.117z" fill="#ff48a4"/><path d="m188.776 500.697c-.629.629-1.259 1.245-1.895 1.853-39.103-10.932-76.184-31.353-107.615-61.342-1.45-1.379-2.878-2.779-4.285-4.186-.523-.523-1.054-1.054-1.563-1.577l-.106-.106c-17.473-17.784-31.834-37.519-43.077-58.506-8.881-16.574-15.804-33.934-20.768-51.739.269-.283.544-.559.82-.848 20.45-20.902 46.372-33.135 73.228-36.656 16.377-2.15 30.222-13.152 35.659-28.758l13.852-39.69c1.817-5.197 4.646-9.596 8.174-13.124 12.869-12.869 34.839-14.135 49.017.042 2.602 3.012 4.646 6.442 6.011 10.126.035.106.071.184.106.29 1.315 3.578 1.987 7.418 1.98 11.3.007 23.724 9.624 45.205 25.166 60.747 15.486 15.486 36.854 25.088 60.486 25.159 8.407.021 16.631 3.139 22.811 8.839 18.264 16.865 12.113 47.383-11.618 55.656l-40.227 14.022c-16.256 5.678-28.263 19.849-30.604 36.911-3.584 26.183-15.421 51.455-35.552 71.587z" fill="#ff85ce"/><path d="m188.776 500.697c-.629.629-1.259 1.245-1.895 1.853-39.103-10.932-76.184-31.353-107.615-61.342-1.45-1.379-2.878-2.779-4.285-4.186-.523-.523-1.054-1.054-1.563-1.577l-.106-.106c-17.473-17.784-31.834-37.519-43.077-58.506 3.203-3.882 6.767-7.799 10.72-11.752 21.786-21.786 50.983-30.717 69.127-39.895 24.254-12.247 44.901-31.678 53.761-58.061 4.928-14.715 11.943-32.223 23.653-43.763 3.967-3.896 10.811-1.266 10.819 4.299.007.035 0 .071 0 .113.007 23.724 9.624 45.205 25.166 60.747 15.486 15.486 36.854 25.088 60.486 25.159 8.407.021 16.631 3.139 22.811 8.839 18.264 16.865 12.113 47.383-11.618 55.656l-40.227 14.022c-16.256 5.678-28.263 19.849-30.604 36.911-3.585 26.185-15.422 51.457-35.553 71.589z" fill="#ff64b9"/><path d="m188.776 500.697c-.629.629-1.259 1.245-1.895 1.853-39.103-10.932-76.184-31.353-107.615-61.342-1.45-1.379-2.878-2.779-4.285-4.186l148.499-148.5c15.486 15.486 36.854 25.088 60.486 25.159 8.407.021 16.631 3.139 22.811 8.839 18.264 16.865 12.113 47.383-11.618 55.656l-40.227 14.022c-16.256 5.678-28.263 19.849-30.604 36.911-3.584 26.184-15.421 51.456-35.552 71.588z" fill="#ff48a4"/><path d="m150.548 443.394c-8.633 8.633-22.647 8.633-31.292-.011l-50.642-50.642c-8.633-8.633-8.633-22.647 0-31.28 4.316-4.316 9.984-6.48 15.652-6.492 5.656 0 11.324 2.164 15.64 6.48l50.641 50.642c8.645 8.644 8.645 22.659.001 31.303z" fill="#ffee73"/><path d="m195.991 377.776c-6.515 6.515-17.071 6.515-23.586 0l-38.173-38.173c-6.515-6.515-6.526-17.083-.011-23.598 3.263-3.263 7.522-4.889 11.804-4.889 4.271.012 8.553 1.637 11.805 4.889l38.173 38.173c6.514 6.516 6.503 17.084-.012 23.598z" fill="#374c81"/><path d="m195.991 377.776c-6.515 6.515-17.071 6.515-23.586 0l-19.086-19.086 23.598-23.598 19.086 19.086c6.514 6.516 6.503 17.084-.012 23.598z" fill="#323b5a"/><g fill="#fff"><path d="m309.016 164.054h22.2v55.653h-22.2z" transform="matrix(.707 -.707 .707 .707 -41.92 282.557)"/><path d="m276.958 196.113h22.2v55.653h-22.2z" transform="matrix(.707 -.707 .707 .707 -73.979 269.278)"/><path d="m244.899 228.172h22.2v55.653h-22.2z" transform="matrix(.707 -.707 .707 .707 -106.038 255.999)"/></g><path d="m318.857 187.813h22.2v27.818h-22.2z" fill="#d1f6ff" transform="matrix(.707 -.707 .707 .707 -45.997 292.398)"/><path d="m286.798 219.871h22.2v27.818h-22.2z" fill="#d1f6ff" transform="matrix(.707 -.707 .707 .707 -78.055 279.119)"/><path d="m254.74 251.93h22.2v27.818h-22.2z" fill="#d1f6ff" transform="matrix(.707 -.707 .707 .707 -110.114 265.839)"/><path d="m150.548 443.394c-8.633 8.633-22.647 8.633-31.292-.011l-25.315-25.315 31.292-31.292 25.315 25.315c8.644 8.644 8.644 22.659 0 31.303z" fill="#ffe131"/><path d="m389.184 155.525c-2.841 3.762-8.193 4.51-11.955 1.669-3.762-2.84-4.509-8.193-1.669-11.955 2.841-3.762 8.193-4.509 11.955-1.669s4.509 8.193 1.669 11.955z" fill="#fff"/><path d="m419.185 144.119c-2.84 3.762-8.193 4.51-11.955 1.669-3.762-2.84-4.51-8.193-1.669-11.955 2.84-3.762 8.193-4.51 11.955-1.669s4.51 8.193 1.669 11.955z" fill="#fff"/><path d="m449.187 132.714c-2.84 3.762-8.193 4.51-11.955 1.669s-4.51-8.193-1.669-11.955c2.84-3.762 8.193-4.51 11.955-1.669s4.509 8.193 1.669 11.955z" fill="#fff"/></g></g></g></g></g></svg>