<svg id="Capa_1" enable-background="new 0 0 512 512" height="512" viewBox="0 0 512 512" width="512" xmlns="http://www.w3.org/2000/svg"><g><g><path d="m440.46 433.51v-.01c-117.859 50.157-251.061 50.157-368.92 0s0 0-.01 0c-43.98-45.708-71.148-107.706-71.526-176.055-.779-141.028 111.493-255.546 252.511-257.422 142.977-1.902 259.485 113.437 259.485 255.977 0 68.92-27.24 131.48-71.54 177.51z" fill="#374c81"/><g><g><path d="m512 256c0 68.91-27.24 131.48-71.54 177.5-117.859 50.157-251.061 50.157-368.92 0-44.3-46.02-71.54-108.59-71.54-177.5 0-46.22 12.25-89.57 33.68-127 44.12 77.07 127.16 129 222.32 129s178.21-51.93 222.32-129c21.43 37.43 33.68 80.78 33.68 127z" fill="#323b5a"/></g></g></g><g><g><path d="m290.497 84.825v348.512h-68.994v-348.512c0-19.049 15.443-34.492 34.492-34.492h.011c19.048 0 34.491 15.443 34.491 34.492z" fill="#fff"/><path d="m290.497 84.825v348.512h-34.492v-383.004c19.049 0 34.492 15.443 34.492 34.492z" fill="#d1f6ff"/><path d="m399.339 278.719c0 28.487-23.102 51.59-51.59 51.59h-183.498c-28.5 0-51.602-23.102-51.602-51.59 0-28.5 23.102-51.602 51.602-51.602h183.499c14.25 0 27.144 5.782 36.482 15.12 9.338 9.337 15.107 22.231 15.107 36.482z" fill="#ffee73"/><path d="m399.339 278.719c0 28.487-23.102 51.59-51.59 51.59h-118.043c-28.513 0-51.602-23.102-51.602-51.59 0-28.5 23.089-51.602 51.602-51.602h118.044c14.25 0 27.144 5.782 36.482 15.12 9.338 9.337 15.107 22.231 15.107 36.482z" fill="#ffe131"/><path d="m346.739 175.527c0 28.5-23.089 51.59-51.59 51.59h-79.309c-28.5 0-51.59-23.089-51.59-51.59 0-28.487 23.089-51.589 51.59-51.589h79.309c14.25 0 27.144 5.782 36.482 15.107 9.339 9.337 15.108 22.245 15.108 36.482z" fill="#ff85ce"/><path d="m346.739 175.527c0 28.5-23.089 51.59-51.59 51.59h-39.655c-28.5 0-51.589-23.089-51.589-51.59 0-28.487 23.089-51.589 51.589-51.589h39.655c14.25 0 27.144 5.782 36.482 15.107 9.339 9.337 15.108 22.245 15.108 36.482z" fill="#ff64b9"/><path d="m450.941 381.898c0 28.5-23.102 51.602-51.602 51.602h-286.691c-28.487 0-51.59-23.102-51.59-51.602 0-28.487 23.102-51.589 51.59-51.589h286.691c14.25 0 27.157 5.769 36.495 15.107 9.338 9.337 15.107 22.232 15.107 36.482z" fill="#5cbdff"/><path d="m450.941 381.898c0 28.5-23.102 51.602-51.602 51.602h-195.945c-28.487 0-51.602-23.102-51.602-51.602 0-28.487 23.115-51.589 51.602-51.589h195.946c14.25 0 27.157 5.769 36.495 15.107 9.337 9.337 15.106 22.232 15.106 36.482z" fill="#24b1ff"/><path d="m346.739 175.527c0 28.5-23.089 51.59-51.59 51.59h-39.655v-103.18h39.655c14.25 0 27.144 5.782 36.482 15.107 9.339 9.338 15.108 22.246 15.108 36.483z" fill="#ff48a4"/><path d="m399.339 278.719c0 28.487-23.102 51.59-51.59 51.59h-92.255v-103.193h92.255c14.25 0 27.144 5.782 36.482 15.12 9.339 9.338 15.108 22.232 15.108 36.483z" fill="#fcbf12"/><path d="m450.941 381.898c0 28.5-23.102 51.602-51.602 51.602h-143.844v-103.192h143.844c14.25 0 27.157 5.769 36.495 15.107s15.107 22.233 15.107 36.483z" fill="#0098ff"/></g></g><path d="m440.46 433.5c-46.57 48.39-112 78.5-184.46 78.5s-137.89-30.11-184.46-78.5z" fill="#00e8e9"/><path d="m440.46 433.5c-46.57 48.39-112 78.5-184.46 78.5v-78.5z" fill="#00d3cd"/></g></svg>