<svg id="Capa_1" enable-background="new 0 0 512 512" height="512" viewBox="0 0 512 512" width="512" xmlns="http://www.w3.org/2000/svg"><g><g><path d="m512 256c0 110.56-70.1 204.76-168.27 240.57l-.04.01-67.03 14.59-.03.01c-6.81.54-13.69.82-20.63.82-6.01 0-11.97-.21-17.88-.62h-.01l-67.04-13.81-.04-.01c-99.62-35.04-171.03-129.97-171.03-241.56 0-141.38 114.62-256 256-256s256 114.62 256 256z" fill="#5cbdff"/><g><g><path d="m512 256c0 87.11-43.52 164.07-110 210.31-17.89 12.44-37.45 22.66-58.27 30.26l-67.1 14.61c-6.81.54-13.68.82-20.63.82-6.01 0-11.97-.21-17.88-.62l-67.09-13.82c-21.85-7.69-42.35-18.26-61.03-31.25-66.48-46.24-110-123.2-110-210.31 0-46.22 12.25-89.57 33.68-127 44.12 77.07 127.16 129 222.32 129s178.21-51.93 222.32-129c21.43 37.43 33.68 80.78 33.68 127z" fill="#24b1ff"/></g></g></g><g><g><g><g><path d="m173.357 209.967c.521 36.591-28.71 66.68-65.313 67.202-5.307.076-10.469-.477-15.426-1.589-1.252-4.935-1.952-10.079-2.028-15.386-.521-36.592 28.721-66.68 65.313-67.202 5.307-.076 10.481.477 15.438 1.577 1.24 4.936 1.941 10.092 2.016 15.398z" fill="#323b5a"/><path d="m338.643 209.967c-.521 36.591 28.71 66.68 65.313 67.202 5.307.076 10.469-.477 15.426-1.589 1.252-4.935 1.952-10.079 2.028-15.386.522-36.592-28.721-66.68-65.313-67.202-5.307-.076-10.481.477-15.438 1.577-1.241 4.936-1.941 10.092-2.016 15.398z" fill="#232c44"/></g><g><path d="m238.12 474.91v36.47c-23.37-1.61-45.87-6.36-67.09-13.82v-22.65c0-18.53 15.01-33.55 33.54-33.55 9.27 0 17.65 3.75 23.72 9.82 6.07 6.08 9.83 14.46 9.83 23.73z" fill="#fdf0b2"/><path d="m343.73 474.91v21.66c-21.2 7.73-43.71 12.75-67.1 14.61v-36.27c0-18.53 15.02-33.55 33.55-33.55 9.26 0 17.65 3.75 23.72 9.82 6.08 6.08 9.83 14.46 9.83 23.73z" fill="#fede8c"/></g><g><path d="m170.818 408.532v-50.934c0-23.421 18.987-42.408 42.408-42.408v-74.429c-34.128 0-64.274 19.584-78.795 48.855-4.906 9.89-7.66 20.708-8.559 31.711l-6.835 83.714c-2.115 15.609 10.021 29.5 25.772 29.5 14.365-.001 26.009-11.645 26.009-26.009z" fill="#fdf0b2"/><path d="m343.727 357.598v50.934c0 14.364 11.644 26.008 26.008 26.008 15.751 0 27.887-13.891 25.773-29.5l-6.835-83.714c-.898-11.003-3.652-21.822-8.559-31.711-14.521-29.271-44.667-48.855-78.795-48.855v74.429c23.422.001 42.408 18.987 42.408 42.409z" fill="#fede8c"/></g><path d="m363.54 131.445v14.24c0 29.33-11.89 55.9-31.12 75.13-19.49 19.5-46.53 31.45-76.36 31.12h-.06c-58.41-.69-105-49.2-105-107.62v-12.87c0-58.03 47.01-105.07 105-105.14h2.45c58.05.03 105.09 47.09 105.09 105.14z" fill="#323b5a"/><path d="m363.54 131.445v14.24c0 29.33-11.89 55.9-31.12 75.13-19.49 19.5-46.53 31.45-76.36 31.12h-.06v-225.63h2.45c58.05.03 105.09 47.09 105.09 105.14z" fill="#232c44"/><path d="m343.73 343.865v131.94h-172.91v-131.94c0-13.99 7.41-26.69 19.08-34.4 8.49-5.61 14.4-14.86 15.42-25.67l4.08-43.03h95.74l4.08 43.03c1.02 10.81 6.94 20.06 15.42 25.67 11.68 7.71 19.09 20.41 19.09 34.4z" fill="#ff85ce"/><path d="m343.73 343.865v131.94h-87.73v-235.04h49.14l4.08 43.03c1.02 10.81 6.94 20.06 15.42 25.67 11.68 7.71 19.09 20.41 19.09 34.4z" fill="#ff64b9"/><path d="m281.09 218.225v23.83c0 13.15-10.66 23.82-23.82 23.82-.43 0-.85-.01-1.27-.03-12.56-.67-22.55-11.07-22.55-23.79v-23.83z" fill="#fede8c"/><path d="m281.09 218.225v23.83c0 13.15-10.66 23.82-23.82 23.82-.43 0-.85-.01-1.27-.03v-47.62z" fill="#f7c96f"/><g><path d="m141.734 161.037c0 15.147 8.75 28.251 21.47 34.533 7.837 3.87 17.021-1.765 17.021-10.505v-28.475c0-22.379-32.153-26.384-37.414-4.632-.704 2.911-1.077 5.952-1.077 9.079z" fill="#fede8c"/><path d="m372.813 161.037c0 15.147-8.75 28.251-21.47 34.533-7.837 3.87-17.021-1.765-17.021-10.505v-28.475c0-22.379 32.154-26.384 37.414-4.632.704 2.911 1.077 5.952 1.077 9.079z" fill="#f7c96f"/></g><g><path d="m170.32 153.805c0 .25 0 .5.01.75-.01.18-.01.36-.01.54z" fill="#fdf0b2"/><path d="m344.23 155.095c0 48.41-39.56 87.58-88.11 86.95h-.12c-47.48-.68-85.28-40.08-85.67-87.49.22-17.27 11.4-32.44 27.8-37.98 12.91-4.36 24.46-11.67 33.85-21.13 6.42-6.46 14.96-10.34 24.02-10.67.42-.02.84-.03 1.27-.03 9.53 0 18.58 3.94 25.29 10.7 9.4 9.46 20.94 16.77 33.85 21.13 8.29 2.8 15.25 8.06 20.13 14.8 4.88 6.75 7.69 14.97 7.69 23.72z" fill="#fdf0b2"/><path d="m344.23 155.095c0 48.41-39.56 87.58-88.11 86.95h-.12v-157.27c.42-.02.84-.03 1.27-.03 9.53 0 18.58 3.94 25.29 10.7 9.4 9.46 20.94 16.77 33.85 21.13 8.29 2.8 15.25 8.06 20.13 14.8 4.88 6.75 7.69 14.97 7.69 23.72z" fill="#fede8c"/></g></g><path d="m293.8 367.935-18.2 18.2c-5.42 5.41-12.51 8.12-19.6 8.12s-14.18-2.71-19.6-8.12l-18.2-18.2c-5.22-5.22-7.83-12.06-7.83-18.9s2.61-13.68 7.83-18.9c10.44-10.44 27.36-10.44 37.8 0 10.44-10.44 27.36-10.44 37.8 0s10.44 27.36 0 37.8z" fill="#fff"/><path d="m293.8 367.935-18.2 18.2c-5.42 5.41-12.51 8.12-19.6 8.12v-64.12c10.44-10.44 27.36-10.44 37.8 0s10.44 27.36 0 37.8z" fill="#d1f6ff"/><g fill="#323b5a"><ellipse cx="222.328" cy="164.305" rx="19.642" ry="19.642" transform="matrix(.232 -.973 .973 .232 10.981 342.514)"/><ellipse cx="289.672" cy="164.305" rx="19.642" ry="19.642" transform="matrix(.621 -.784 .784 .621 -18.928 289.494)"/></g></g></g></g></svg>