<svg id="Capa_1" enable-background="new 0 0 512 512" height="512" viewBox="0 0 512 512" width="512" xmlns="http://www.w3.org/2000/svg"><g><g><circle cx="256" cy="256" fill="#5cbdff" r="256"/><g><g><path d="m512 256c0 87.11-43.52 164.07-110 210.31-41.41 28.8-91.73 45.69-146 45.69s-104.59-16.89-146-45.69c-66.48-46.24-110-123.2-110-210.31 0-46.22 12.25-89.57 33.68-127 44.12 77.07 127.16 129 222.32 129s178.21-51.93 222.32-129c21.43 37.43 33.68 80.78 33.68 127z" fill="#24b1ff"/></g></g></g><path d="m440.46 433.5c-46.57 48.39-112 78.5-184.46 78.5s-137.89-30.11-184.46-78.5z" fill="#66e1d2"/><path d="m440.46 433.5c-46.57 48.39-112 78.5-184.46 78.5v-78.5z" fill="#00cec9"/><g><g><path d="m374.065 120.441-118.065 50.001v-100.024z" fill="#ff85ce"/><path d="m374.065 120.441-118.065 50.001v-50.001z" fill="#ff64b9"/><path d="m268.528 73.751v157.412h-25.055v-157.412c0-6.919 5.609-12.528 12.528-12.528 6.918 0 12.527 5.609 12.527 12.528z" fill="#fff"/><path d="m268.528 73.751v157.412h-12.528v-169.94c6.919 0 12.528 5.609 12.528 12.528z" fill="#d1f6ff"/><g><path d="m419.229 233.799v132.622h-326.436v-132.622c0-22.31 18.062-40.372 40.371-40.372h245.693c22.289.001 40.372 18.062 40.372 40.372z" fill="#4e689b"/><path d="m419.229 233.799v132.622h-244.821v-132.622c0-22.31 18.04-40.372 40.35-40.372h164.101c22.287.001 40.37 18.062 40.37 40.372z" fill="#374c81"/><path d="m419.229 233.799v132.622h-163.229v-172.993h122.858c22.288 0 40.371 18.061 40.371 40.371z" fill="#323b5a"/></g><path d="m486.535 334.315-2.617 23.498c-.329 2.924-.802 5.794-1.44 8.609-8.456 39.196-43.802 67.079-88.23 67.079h-276.505c-44.428 0-79.774-27.882-88.23-67.079-.638-2.815-1.111-5.685-1.44-8.609l-2.594-23.498c-1.739-15.527 12.788-30.221 29.536-30.221h401.963c16.747 0 31.274 14.694 29.557 30.221z" fill="#f99762"/><path d="m486.535 334.315-2.617 23.498c-.329 2.924-.802 5.794-1.44 8.609-8.456 39.196-43.802 67.079-88.23 67.079h-203.348c-36.855 0-67.239-27.882-75.754-67.079-.638-2.815-1.136-5.685-1.518-8.609l-3.053-23.498c-2.059-15.527 9.431-30.221 23.334-30.221h323.068c16.748 0 31.275 14.694 29.558 30.221z" fill="#ef7f4d"/><path d="m486.535 334.315-2.617 23.498c-.329 2.924-.802 5.794-1.44 8.609-8.456 39.196-43.802 67.079-88.23 67.079h-138.248v-129.406h200.977c16.748-.001 31.275 14.693 29.558 30.22z" fill="#e56e3e"/><g><path d="m482.478 366.421c-8.456 39.196-43.802 67.079-88.23 67.079h-276.505c-44.428 0-79.774-27.882-88.23-67.079z" fill="#374c81"/></g><path d="m482.478 366.421c-8.456 39.196-43.802 67.079-88.23 67.079h-203.348c-36.855 0-67.239-27.882-75.754-67.079z" fill="#323b5a"/><circle cx="157.152" cy="256.218" fill="#fff" r="25.055"/><circle cx="256" cy="256.218" fill="#fff" r="25.055"/><path d="m281.056 256.218c0 13.835-11.22 25.055-25.055 25.055v-50.11c13.834 0 25.055 11.22 25.055 25.055z" fill="#d1f6ff"/><circle cx="354.849" cy="256.218" fill="#fff" r="25.055"/><circle cx="157.152" cy="256.218" fill="#4e689b" r="11.372"/><path d="m267.373 256.218c0 6.275-5.098 11.373-11.373 11.373s-11.373-5.098-11.373-11.373 5.098-11.373 11.373-11.373 11.373 5.098 11.373 11.373z" fill="#4e689b"/><circle cx="354.849" cy="256.218" fill="#323b5a" r="11.372"/><path d="m267.373 256.218c0 6.275-5.098 11.373-11.373 11.373v-22.746c6.275 0 11.373 5.098 11.373 11.373z" fill="#323b5a"/><path d="m482.478 366.421c-8.456 39.196-43.802 67.079-88.23 67.079h-138.248v-67.079z" fill="#232c44"/></g></g></g></svg>