<svg id="Capa_1" enable-background="new 0 0 512 512" height="512" viewBox="0 0 512 512" width="512" xmlns="http://www.w3.org/2000/svg"><g><g><path d="m512 256c0 141.38-114.62 256-256 256-24.2 0-47.62-3.36-69.81-9.64l-176.66-176.97-.01.01c-6.2-22.07-9.52-45.35-9.52-69.4 0-141.38 114.62-256 256-256s256 114.62 256 256z" fill="#ffee73"/><g><g><path d="m512 256c0 87.11-43.52 164.07-110 210.31-41.41 28.8-91.73 45.69-146 45.69-24.13 0-47.47-3.34-69.6-9.58-.07-.02-.14-.04-.21-.06l-176.66-176.97c-6.21-22.07-9.53-45.34-9.53-69.39 0-46.22 12.25-89.57 33.68-127 20.47 35.76 49.32 66.1 83.87 88.36 18.38 11.84 38.38 21.4 59.59 28.25 23.74 7.69 48.99 12 75.2 12.36 1.22.02 2.44.03 3.66.03 72.49 0 137.95-30.13 184.51-78.56.04-.04.08-.09.13-.13 14.52-15.11 27.2-32 37.68-50.31 21.43 37.43 33.68 80.78 33.68 127z" fill="#ffe131"/></g></g></g><g><g><path d="m475.08 213.75-288.37 288.37c-.08.08-.17.17-.26.24-27.57-7.79-53.25-20.09-76.19-36.05-48.13-33.47-84.22-83.05-100.47-140.92.02-.03.06-.07.09-.1l264.51-264.51c13.17-13.17 34.55-13.17 47.73.02l118.65 118.64z" fill="#374c81"/><path d="m475.08 213.75-288.37 288.37c-.1.1-.2.2-.31.3-.07-.02-.14-.04-.21-.06-27.57-7.79-53.25-20.09-76.19-36.05-25.57-17.78-47.74-40.11-65.34-65.81-.02 0-.01-.01-.01-.01-2.51-10.94.49-22.89 9.02-31.41l123.47-123.47 141.03-141.04c13.17-13.17 34.56-13.17 47.74.01z" fill="#323b5a"/><path d="m475.08 213.75-288.37 288.37c-.1.1-.2.2-.31.3-.07-.02-.14-.04-.21-.06-27.57-7.79-53.25-20.09-76.19-36.05-12.87-8.95-24.87-19.04-35.86-30.14l311.68-311.68z" fill="#232c44"/><path d="m442.492 181.168-16.28 16.279c-8.997 8.997-8.997 23.584 0 32.581 8.997 8.997 23.584 8.997 32.581 0l16.279-16.279 16.279-16.28c8.997-8.997 8.997-23.584 0-32.581-8.997-8.997-23.584-8.997-32.581 0z" fill="#232c44"/><path d="m475.08 213.75-264.506 264.506c-13.181 13.181-34.558 13.17-47.739-.011l-129.08-129.08c-13.181-13.181-13.192-34.558-.011-47.739l240.642-240.642c13.17-13.17 34.558-13.17 47.739.011z" fill="#4e689b"/><path d="m475.08 213.75-264.506 264.506c-13.18 13.18-34.548 13.18-47.728 0l-109.18-109.18 264.506-264.506c13.17-13.17 34.557-13.17 47.739.011z" fill="#374c81"/><path d="m475.08 213.75-264.506 264.506c-13.181 13.181-34.558 13.17-47.739-.011l-65.384-65.384 288.37-288.37z" fill="#323b5a"/><g><path d="m186.897 289.379-35.724-35.724 26.004-26.004c5.369-5.369 14.073-5.369 19.441 0l26.004 26.004z" fill="#5cbdff"/><path d="m197.356 264.115h50.521v50.536h-50.521z" fill="#ffee73" transform="matrix(.707 -.707 .707 .707 -139.422 242.172)"/><path d="m258.345 360.828-35.724-35.724 35.724-35.724 26.004 26.004c5.369 5.369 5.369 14.073 0 19.441z" fill="#0098ff"/><path d="m125.911 264.118h50.522v50.522h-50.522z" fill="#ffee73" transform="matrix(.707 .707 -.707 .707 248.899 -22.138)"/><path d="m161.633 299.839h50.521v50.536h-50.521z" fill="#5cbdff" transform="matrix(.707 -.707 .707 .707 -175.145 227.375)"/><path d="m197.36 335.567h50.522v50.522h-50.522z" fill="#ffe131" transform="matrix(.707 .707 -.707 .707 320.348 -51.733)"/><path d="m115.448 360.828-26.004-26.004c-5.369-5.369-5.369-14.073 0-19.441l26.004-26.004 35.724 35.724z" fill="#5cbdff"/><path d="m125.91 335.562h50.521v50.536h-50.521z" fill="#ffee73" transform="matrix(.707 -.707 .707 .707 -210.869 212.578)"/><path d="m177.176 422.556-26.004-26.004 35.724-35.724 35.724 35.724-26.004 26.004c-5.367 5.368-14.071 5.368-19.44 0z" fill="#0098ff"/></g><path d="m391.262 227.92-48.51 48.51c-9.239 9.239-24.23 9.239-33.48-.011l-73.69-73.69c-9.25-9.25-9.25-24.241-.011-33.48l48.51-48.51c9.239-9.239 24.23-9.239 33.48.011l73.69 73.69c9.25 9.249 9.25 24.24.011 33.48z" fill="#fff"/><path d="m391.262 227.92-48.51 48.51c-9.239 9.239-24.23 9.239-33.48-.011l-37.689-37.689 81.979-81.979 37.689 37.689c9.25 9.249 9.25 24.24.011 33.48z" fill="#d1f6ff"/><path d="m170.145 320.388h50.521v26.462h-50.521z" fill="#0098ff" transform="matrix(.707 -.707 .707 .707 -178.671 235.887)"/><g fill="#ffe131"><path d="m205.868 284.664h50.521v26.462h-50.521z" transform="matrix(.707 -.707 .707 .707 -142.948 250.684)"/><path d="m134.421 356.111h50.521v26.462h-50.521z" transform="matrix(.707 -.707 .707 .707 -214.395 221.09)"/></g></g></g></g></svg>