<svg id="Capa_1" enable-background="new 0 0 512 512" height="512" viewBox="0 0 512 512" width="512" xmlns="http://www.w3.org/2000/svg"><g><g><circle cx="256" cy="256" fill="#ffee73" r="256"/><g><g><path d="m512 256c0 87.115-43.52 164.075-109.995 210.315-41.418 28.8-91.733 45.685-146.005 45.685-36.576 0-71.36-7.669-102.827-21.493h-.011c-11.979-5.248-23.467-11.403-34.4-18.357-2.965-1.888-5.888-3.829-8.768-5.835-11.189-7.787-21.728-16.437-31.52-25.877-11.307-10.869-21.611-22.784-30.763-35.573-7.541-10.539-14.304-21.675-20.203-33.323-17.599-34.71-27.508-73.963-27.508-115.542 0-46.219 12.245-89.568 33.685-126.997 44.118 77.066 127.158 129.002 222.315 129.002s178.208-51.936 222.315-129.003c21.44 37.43 33.685 80.779 33.685 126.998z" fill="#ffe131"/></g></g></g><g><g><path d="m214.24 304.683-.085-.075c-42.805-42.816-112.213-42.816-155.04 0-18.709 18.709-29.248 42.507-31.605 66.933 19.253 38.027 47.733 70.603 82.485 94.773 13.504 9.387 27.957 17.515 43.179 24.192 22.315-3.381 43.787-13.675 60.971-30.859 42.804-42.794 42.826-112.148.095-154.964zm-27.328 127.722c-27.701 27.701-72.747 27.723-100.48.075l-.075-.075c-27.723-27.723-27.723-72.832 0-100.555 27.723-27.733 72.843-27.733 100.565-.011l.075.075c27.638 27.734 27.616 72.779-.085 100.491z" fill="#4e689b"/><path d="m214.144 459.648c-17.184 17.184-38.656 27.477-60.971 30.859h-.011c-11.979-5.248-23.467-11.403-34.4-18.357-2.965-1.888-5.888-3.829-8.768-5.835-11.189-7.787-21.728-16.437-31.52-25.877l7.957-7.957c27.723 27.648 72.779 27.627 100.469-.075 27.712-27.712 27.733-72.757.096-100.491l27.243-27.232c42.732 42.816 42.71 112.17-.095 154.965z" fill="#374c81"/><path d="m201.6 317.312-.085-.075c-35.829-35.84-93.931-35.84-129.771 0-23.744 23.744-31.755 57.28-24.032 87.627 17.088 23.872 38.176 44.683 62.283 61.451 2.88 2.005 5.803 3.947 8.768 5.835 29.024 5.728 60.277-2.645 82.752-25.131 35.818-35.819 35.84-93.856.085-129.707zm-14.688 115.093c-27.701 27.701-72.747 27.723-100.48.075l-.075-.075c-27.723-27.723-27.723-72.832 0-100.555 27.723-27.733 72.843-27.733 100.565-.011l.075.075c27.638 27.734 27.616 72.779-.085 100.491z" fill="#374c81"/><path d="m201.515 447.019c-22.475 22.485-53.728 30.859-82.752 25.131-2.965-1.888-5.888-3.829-8.768-5.835-11.189-7.787-21.728-16.437-31.52-25.877l7.957-7.957c27.733 27.648 72.779 27.627 100.48-.075 27.701-27.712 27.723-72.757.085-100.491l14.603-14.603c35.755 35.851 35.733 93.888-.085 129.707z" fill="#323b5a"/><path d="m330.003 332.006-22.109 22.109-143.249-143.248 22.109-22.109c12.215-12.215 32.015-12.226 44.23-.011l.763.697c11.943 11.028 31.143 8.608 39.621-5.274.044-.087.109-.174.152-.261 13.828-22.785 28.909-44.753 45.352-65.642 1.504-1.918 3.095-3.705 4.773-5.383 22.959-22.959 60.728-23.657 84.308-.077 25.302 25.302 22.643 66.928-5.459 89.081-20.889 16.443-42.857 31.524-65.642 45.352-.087.044-.174.109-.262.153-13.882 8.478-16.302 27.678-5.274 39.621l.022.022.676.741c12.215 12.214 12.204 32.014-.011 44.229z" fill="#f99762"/><path d="m330.003 332.006-22.109 22.109-103.869-103.455 22.109-22.109c12.215-12.215 26.25-17.991 31.339-12.902l.338.272c5.241 4.326 19.549-2.986 29.606-15.288.055-.076.131-.152.185-.229 16.432-20.181 33.529-40.133 51.269-59.725 1.624-1.798 3.269-3.531 4.947-5.208 22.96-22.96 52.306-32.493 62.135-22.664 25.302 25.302 22.643 66.928-5.459 89.081-20.889 16.443-42.857 31.524-65.642 45.352-.087.044-.174.109-.262.153-13.882 8.478-16.302 27.678-5.274 39.621l.022.022.676.741c12.215 12.214 12.204 32.014-.011 44.229z" fill="#ef7f4d"/><path d="m330.003 332.006-22.109 22.109-71.624-71.624 169.684-169.684c25.302 25.302 22.643 66.928-5.459 89.081-20.889 16.443-42.857 31.524-65.642 45.352-.087.044-.174.109-.262.153-13.882 8.478-16.302 27.678-5.274 39.621l.022.022.676.741c12.214 12.214 12.203 32.014-.012 44.229z" fill="#e56e3e"/><path d="m280.499 238.261-44.23 44.23-71.624-71.624 22.109-22.109c12.215-12.215 32.015-12.226 44.23-.011z" fill="#ef7f4d"/><path d="m280.499 238.261-44.23 44.23-35.812-35.812 21.902-21.902c12.215-12.215 30.026-14.215 35.115-9.126l.338.272c.294.251.621.447.97.621z" fill="#e56e3e"/><path d="m330.003 332.006-22.109 22.109-71.624-71.624 44.23-44.23 48.785 48.785.055-.011.676.741c12.213 12.215 12.202 32.015-.013 44.23z" fill="#ce5429"/><path d="m258.379 304.601-47.368 47.368c-6.102 6.102-14.111 9.164-22.11 9.164-7.966.011-15.953-3.029-22.044-9.077l-.076-.076c-12.215-12.215-12.204-32.014.011-44.23l47.368-47.368z" fill="#0098ff"/><path d="m258.379 304.601-47.368 47.368c-6.102 6.102-14.111 9.164-22.11 9.164-7.966.011-15.953-3.029-22.044-9.077l69.488-69.488z" fill="#008ddb"/><path d="m342.872 391.273c-6.113 6.113-14.111 9.164-22.12 9.153-7.998 0-15.996-3.051-22.109-9.164l-171.144-171.144c-12.215-12.215-12.226-32.014-.011-44.23 6.113-6.113 14.111-9.164 22.12-9.153 7.998 0 15.996 3.051 22.109 9.164l171.144 171.144c12.215 12.215 12.226 32.015.011 44.23z" fill="#5cbdff"/><path d="m342.872 391.273c-6.113 6.113-14.111 9.164-22.12 9.153-7.998 0-15.996-3.051-22.109-9.164l-121.63-121.629c-12.215-12.215-12.226-32.014-.011-44.23 6.113-6.113 14.111-9.164 22.12-9.153 7.998 0 15.996 3.051 22.109 9.164l121.629 121.629c12.216 12.215 12.227 32.015.012 44.23z" fill="#24b1ff"/><path d="m342.872 391.273c-6.113 6.113-14.111 9.164-22.12 9.153-7.998 0-15.996-3.051-22.109-9.164l-85.496-85.496 44.219-44.219 85.496 85.496c12.214 12.215 12.225 32.015.01 44.23z" fill="#0098ff"/></g></g></g></svg>