<svg id="Capa_1" enable-background="new 0 0 512.005 512.005" height="512" viewBox="0 0 512.005 512.005" width="512" xmlns="http://www.w3.org/2000/svg"><g><g><path d="m512.002 256.005c0 17.83-1.82 35.24-5.29 52.04-19.65 0-35.57 15.92-35.57 35.57v51.18c-36.57 56.58-94.84 97.79-163.04 111.89-4.99-9.33-18.56-8.79-22.77.93l-1.24 2.84c-9.22 1.04-18.59 1.55-28.09 1.55s-18.87-.51-28.09-1.55c-3.71-9.7-16.32-12.12-23.35-4.48l-.66.71c-68.2-14.1-126.47-55.31-163.04-111.89v-51.19c0-19.64-15.93-35.56-35.57-35.56-3.47-16.8-5.29-34.21-5.29-52.04 0-141.38 114.62-256 256-256s256 114.62 256 256z" fill="#374c81"/><g><g><path d="m512.002 256.005c0 17.83-1.82 35.24-5.29 52.04-19.65 0-35.57 15.92-35.57 35.57v51.18c-18.17 28.1-41.7 52.43-69.14 71.52-27.79 19.33-59.59 33.29-93.9 40.37-4.99-9.33-18.56-8.79-22.77.93l-1.25 2.87c-9.22 1-18.59 1.52-28.08 1.52s-18.86-.52-28.08-1.52c-3.69-9.72-16.32-12.16-23.36-4.51l-.66.71c-34.31-7.08-66.11-21.04-93.9-40.37-27.44-19.09-50.97-43.42-69.14-71.52v-51.19c0-19.64-15.93-35.56-35.57-35.56-3.47-16.8-5.29-34.21-5.29-52.04 0-46.22 12.25-89.58 33.68-127 44.12 77.07 127.16 129 222.32 129s178.21-51.93 222.32-129c21.43 37.42 33.68 80.78 33.68 127z" fill="#323b5a"/></g></g></g><g><g><g><path d="m239.742 198.74h32.52v193.95h-32.52z" fill="#fff"/><path d="m256.002 198.74h16.26v193.95h-16.26z" fill="#d1f6ff"/><path d="m44.924 198.74h32.518v134.268h-32.518z" fill="#fff"/><path d="m434.562 198.74h32.52v134.27h-32.52z" fill="#fff"/><path d="m450.822 198.74h16.26v134.27h-16.26z" fill="#d1f6ff"/><path d="m61.181 198.74h16.26v134.27h-16.26z" fill="#d1f6ff"/><g><path d="m234.712 0h42.58v198.74h-42.58z" fill="#ff64b9"/><path d="m256.002 0h21.29v198.74h-21.29z" fill="#ff48a4"/><path d="m339.002 198.74h-166c0-26.17 21.21-47.38 47.38-47.38h71.24c13.08 0 24.93 5.3 33.5 13.88 8.58 8.57 13.88 20.42 13.88 33.5z" fill="#fff"/><path d="m339.002 198.74h-83v-47.38h35.62c13.08 0 24.93 5.3 33.5 13.88 8.58 8.57 13.88 20.42 13.88 33.5z" fill="#d1f6ff"/><g><path d="m467.08 198.74c0 11.936-9.68 21.609-21.609 21.609h-378.938c-11.929 0-21.609-9.673-21.609-21.609 0-11.929 9.68-21.609 21.609-21.609h378.938c5.961 0 11.364 2.422 15.279 6.33 3.909 3.915 6.33 9.317 6.33 15.279z" fill="#ff85ce"/><path d="m467.08 198.74h-422.156c0-11.929 9.68-21.609 21.609-21.609h378.938c5.961 0 11.364 2.422 15.279 6.33 3.909 3.915 6.33 9.317 6.33 15.279z" fill="#ff64b9"/></g></g><g><path d="m333.032 435.05-20.06 19.55 4.73 27.59c1.74 10.15-2.57 19.12-9.6 24.5-7.88 1.64-15.89 2.9-24.02 3.79-1.11-.4-2.21-.89-3.3-1.46l-24.78-13.03-24.78 13.03c-1.09.57-2.19 1.06-3.3 1.46-8.13-.89-16.14-2.15-24.02-3.79-7.03-5.38-11.34-14.35-9.6-24.5l4.73-27.59-20.05-19.55c-15.11-14.71-6.77-40.37 14.1-43.4l27.71-4.03 12.39-25.11c4.66-9.45 13.74-14.18 22.82-14.18s18.16 4.73 22.82 14.18l12.39 25.11 27.71 4.03c20.87 3.03 29.21 28.69 14.11 43.4z" fill="#ffee73"/><path d="m333.032 435.05-20.06 19.55 4.73 27.59c1.74 10.15-2.57 19.12-9.6 24.5-7.88 1.64-15.89 2.9-24.02 3.79-1.11-.4-2.21-.89-3.3-1.46l-24.78-13.03v-147.66c9.08 0 18.16 4.73 22.82 14.18l12.39 25.11 27.71 4.03c20.87 3.03 29.21 28.69 14.11 43.4z" fill="#ffe131"/></g><g><g><path d="m506.712 308.04c-6.49 31.4-18.73 60.7-35.57 86.75-.5-.22-1-.46-1.5-.72l-18.82-9.9-18.82 9.9c-14.19 7.45-30.75-4.59-28.04-20.37l3.59-20.96-15.23-14.85c-11.47-11.17-5.13-30.66 10.71-32.96l21.05-3.06 9.41-19.07c3.54-7.17 10.44-10.77 17.33-10.77s13.79 3.6 17.33 10.77l9.41 19.07 21.05 3.06c3.08.45 5.8 1.54 8.1 3.11z" fill="#ffee73"/><path d="m506.712 308.04c-6.49 31.4-18.73 60.7-35.57 86.75-.5-.22-1-.46-1.5-.72l-18.82-9.9v-112.14c6.89 0 13.79 3.6 17.33 10.77l9.41 19.07 21.05 3.06c3.08.45 5.8 1.54 8.1 3.11z" fill="#ffe131"/></g></g><g><g><path d="m119.682 337.89-15.23 14.85 3.59 20.96c2.7 15.78-13.86 27.82-28.04 20.37l-18.82-9.9-18.82 9.9c-.5.26-1 .5-1.5.72-16.84-26.05-29.08-55.35-35.57-86.75 2.3-1.57 5.02-2.66 8.1-3.11l21.05-3.06 9.41-19.07c3.54-7.17 10.43-10.77 17.33-10.77 6.89 0 13.79 3.6 17.33 10.77l9.41 19.07 21.05 3.06c15.84 2.3 22.18 21.79 10.71 32.96z" fill="#ffee73"/><path d="m119.679 337.89-15.228 14.851 3.592 20.954c2.704 15.788-13.857 27.829-28.042 20.375l-18.82-9.898v-112.137c6.895 0 13.789 3.592 17.333 10.767l9.405 19.071 21.051 3.061c15.846 2.298 22.181 21.784 10.709 32.956z" fill="#ffe131"/></g></g></g></g></g></g></svg>