<svg id="Capa_1" enable-background="new 0 0 512.004 512.004" height="512" viewBox="0 0 512.004 512.004" width="512" xmlns="http://www.w3.org/2000/svg"><g><g><path d="m453.042 419.432-.013.006c-124.814 58.635-269.258 58.629-394.067-.016l-.01.02c-35.56-42.82-57.48-97.48-58.88-157.45-3.31-141.35 108.59-258.61 249.94-261.92 141.35-3.31 258.61 108.59 261.92 249.94 1.51 64.271-20.81 123.561-58.89 169.42z" fill="#ffee73"/><g><g><path d="m453.042 419.432-.013.006c-124.814 58.635-269.258 58.629-394.067-.016-35.57-42.81-57.49-97.48-58.89-157.43-1.08-46.21 10.15-89.84 30.7-127.75 8.22 13.61 17.67 26.38 28.19 38.17 48.22 54.05 118.95 87.4 197.03 85.59h.05c80.5-1.88 151.45-40.73 197-99.93 8.29-10.77 15.74-22.22 22.25-34.24 22.3 36.92 35.56 79.97 36.64 126.18 1.5 64.271-20.82 123.561-58.89 169.42z" fill="#ffe131"/></g></g></g><g><g><g><g><path d="m453.042 110.382v309.05c-1.21 1.46-2.44 2.9-3.68 4.33-12.63 14.55-26.88 27.67-42.48 39.08-8.81 6.44-18.04 12.32-27.66 17.61-34.86 19.17-74.71 30.48-117.23 31.48-2 .05-4.01.07-6 .07-.74 0-1.48 0-2.21-.01h-.15c-43.68-.38-84.85-11.75-120.8-31.54-6.11-3.35-12.07-6.95-17.87-10.79-20.69-13.69-39.3-30.3-55.2-49.28-.27-.32-.53-.64-.8-.96v-309.04c0-13.27 10.75-24.02 24.02-24.02h346.04c13.27 0 24.02 10.75 24.02 24.02z" fill="#374c81"/></g><g><path d="m453.042 110.382v309.05c-1.21 1.46-2.44 2.9-3.68 4.33-12.63 14.55-26.88 27.67-42.48 39.08-8.81 6.44-18.04 12.32-27.66 17.61-34.86 19.17-74.71 30.48-117.23 31.48-2 .05-4.01.07-6 .07v-425.64h173.03c13.27 0 24.02 10.75 24.02 24.02z" fill="#323b5a"/></g></g><g><g><path d="m453.042 110.382v309.05c-1.21 1.46-2.44 2.9-3.68 4.33-12.63 14.55-26.88 27.67-42.48 39.08-8.81 6.44-18.04 12.32-27.66 17.61h-246.39c-6.11-3.35-12.07-6.95-17.87-10.79-20.69-13.69-39.3-30.3-55.2-49.28-.27-.32-.53-.64-.8-.96v-309.04c0-13.27 10.75-24.02 24.02-24.02h346.04c13.27 0 24.02 10.75 24.02 24.02z" fill="#4e689b"/></g><g><path d="m453.042 110.382v309.05c-1.21 1.46-2.44 2.9-3.68 4.33-12.63 14.55-26.88 27.67-42.48 39.08-8.81 6.44-18.04 12.32-27.66 17.61h-123.23v-394.09h173.03c13.27 0 24.02 10.75 24.02 24.02z" fill="#374c81"/></g><g><path d="m233.094 163.702v85.818c0 10.521-8.542 19.064-19.085 19.064h-85.818c-10.521 0-19.064-8.542-19.064-19.064v-85.818c0-10.542 8.542-19.084 19.064-19.084h85.818c10.543 0 19.085 8.542 19.085 19.084z" fill="#24b1ff"/><path d="m233.094 163.702v85.818c0 10.521-8.542 19.064-19.085 19.064h-42.898v-123.966h42.898c10.543 0 19.085 8.542 19.085 19.084z" fill="#0098ff"/><path d="m403.313 210.809-14.709 14.334 3.479 20.251c2.771 16.168-14.209 28.502-28.752 20.876l-18.168-9.563-18.168 9.563c-14.543 7.625-31.523-4.709-28.752-20.876l3.479-20.251-14.709-14.334c-11.751-11.459-5.271-31.419 10.98-33.773l20.314-2.959 9.084-18.418c3.625-7.354 10.709-11.042 17.772-11.042s14.126 3.688 17.751 11.042l9.105 18.418 20.314 2.959c16.251 2.355 22.73 22.314 10.98 33.773z" fill="#ffee73"/><path d="m219.78 422.197h-95.61c-15.834 0-25.731-17.147-17.814-30.856l47.815-82.818c3.959-6.855 10.876-10.271 17.814-10.271s13.855 3.417 17.814 10.271l47.815 82.818c7.918 13.709-1.978 30.856-17.834 30.856z" fill="#00e8e9"/><circle cx="345.163" cy="360.214" fill="#ff64b9" r="61.983"/></g><path d="m219.78 422.197h-47.794v-123.945c6.938 0 13.855 3.417 17.814 10.271l47.815 82.818c7.917 13.709-1.979 30.856-17.835 30.856z" fill="#00d3cd"/><g><path d="m407.146 360.214c0 34.231-27.752 61.983-61.983 61.983v-123.966c34.232 0 61.983 27.752 61.983 61.983z" fill="#ff48a4"/><path d="m363.331 266.271-18.168-9.563v-112.09c7.063 0 14.126 3.688 17.751 11.042l9.105 18.418 20.314 2.959c16.251 2.354 22.731 22.314 10.98 33.773l-14.709 14.334 3.479 20.251c2.771 16.167-14.209 28.501-28.752 20.876z" fill="#ffe131"/></g></g></g></g></g></svg>