<svg id="Capa_1" enable-background="new 0 0 512 512" height="512" viewBox="0 0 512 512" width="512" xmlns="http://www.w3.org/2000/svg"><g><g><path d="m512 256c0 141.38-114.62 256-256 256-25.77 0-50.66-3.81-74.12-10.9l-170.41-169.12c-7.46-24.01-11.47-49.52-11.47-75.98 0-141.38 114.62-256 256-256s256 114.62 256 256z" fill="#374c81"/><g><g><path d="m512 256c0 87.11-43.52 164.07-110 210.31-41.41 28.8-91.73 45.69-146 45.69-25.78 0-50.66-3.81-74.12-10.9l-170.41-169.12c-7.46-24-11.47-49.52-11.47-75.98 0-46.22 12.25-89.57 33.68-127 22.01 38.45 53.7 70.63 91.75 93.24 19.44 11.55 40.55 20.61 62.87 26.7 20.97 5.75 43.04 8.89 65.79 9.04.64.02 1.27.02 1.91.02 29.87 0 58.54-5.12 85.19-14.53 58.27-20.55 106.87-61.59 137.13-114.47 21.43 37.43 33.68 80.78 33.68 127z" fill="#323b5a"/></g></g></g><g><g><g><g><path d="m373.89 275.94-148.5 197.23c-11.23 14.9-26.82 24.29-43.51 27.93-25.94-7.83-50.14-19.67-71.88-34.79-46.29-32.2-81.45-79.29-98.53-134.33 3.5-16.75 12.79-32.44 27.63-43.79l86.33-65.95 109.86-83.92 105.9 105.15z" fill="#fff"/><path d="m373.89 275.94-148.5 197.23c-11.23 14.9-26.82 24.29-43.51 27.93-25.94-7.83-50.14-19.67-71.88-34.79-24.01-16.7-45.02-37.41-62.08-61.15.5-18.85 15.95-46.1 40.59-67.9l99.79-88.32 83.75-74.12 69.14 68.65z" fill="#d1f6ff"/><path d="m373.89 275.94-148.5 197.23c-11.23 14.9-26.82 24.29-43.51 27.93-25.94-7.83-50.14-19.67-71.88-34.79-12.28-8.54-23.77-18.13-34.36-28.63l178.45-179.7 50.5-50.85 36.6 36.34z" fill="#b3f4ff"/><path d="m388.338 245.14-19.853 19.993-122.353-121.496 19.853-19.993c13.555-13.651 35.604-13.729 49.255-.173l5.906 5.865c4.106 4.077 11.04 2.719 13.294-2.613 2.868-6.783 5.294-13.775 7.216-20.938 2.464-9.156 7.483-17.785 15.055-24.745 19.611-18.007 50.13-18.108 69.861-.245.608.553 1.204 1.119 1.78 1.692 20.339 20.196 20.461 53.065.258 73.41-6.285 6.329-13.808 10.703-21.786 13.112-7.429 2.241-14.703 4.903-21.778 7.992-5.303 2.304-6.606 9.228-2.507 13.299l5.624 5.585c13.653 13.556 13.731 35.604.175 49.255z" fill="#ffe131"/><path d="m388.338 245.14-19.853 19.993-61.177-60.748 121.045-121.899c20.339 20.196 20.461 53.065.258 73.41-6.285 6.329-13.808 10.703-21.786 13.112-7.429 2.241-14.703 4.903-21.778 7.992-5.303 2.304-6.606 9.228-2.507 13.299l5.624 5.585c13.652 13.557 13.73 35.605.174 49.256z" fill="#fcbf12"/><path d="m351.703 159.678-44.394 44.707-61.177-60.748 19.853-19.993c13.555-13.651 35.604-13.729 49.255-.173z" fill="#ffee73"/><path d="m388.338 245.14-19.853 19.993-61.177-60.748 44.394-44.707 36.463 36.207c13.651 13.556 13.729 35.604.173 49.255z" fill="#ffe131"/><path d="m398.241 301.791-8.969 9.033c-12.328 12.415-32.385 12.485-44.799.158l-144.019-143.01c-12.415-12.328-12.485-32.385-.157-44.799l8.969-9.033c12.328-12.415 32.385-12.485 44.799-.157l144.019 143.009c12.414 12.328 12.484 32.385.157 44.799z" fill="#5cbdff"/><path d="m398.241 301.791-8.969 9.033c-12.328 12.415-32.385 12.485-44.799.158l-96.775-96.097c-12.415-12.328-12.485-32.385-.158-44.8l8.969-9.032c12.328-12.415 32.385-12.485 44.799-.157l96.775 96.097c12.415 12.327 12.485 32.384.158 44.798z" fill="#24b1ff"/><g fill="#374c81"><path d="m289.979 288.32-10.73-10.655c-5.926-5.885-15.5-5.851-21.385.075-5.885 5.926-5.851 15.5.075 21.385l10.73 10.655 10.73 10.655c5.926 5.884 15.5 5.851 21.385-.075 5.884-5.926 5.851-15.5-.075-21.385z"/><path d="m247.36 331.24-10.73-10.655c-5.926-5.884-15.5-5.851-21.385.075-5.884 5.926-5.851 15.5.075 21.385l10.73 10.655 10.73 10.655c5.926 5.884 15.5 5.851 21.385-.075 5.884-5.926 5.851-15.5-.075-21.385z"/><path d="m204.74 374.159-10.73-10.655c-5.926-5.884-15.5-5.851-21.385.075-5.885 5.926-5.851 15.5.075 21.385l10.73 10.655 10.73 10.655c5.926 5.884 15.5 5.851 21.385-.075 5.885-5.926 5.851-15.5-.075-21.385z"/><path d="m162.121 417.079-10.73-10.655c-5.926-5.884-15.5-5.851-21.385.075-5.885 5.926-5.851 15.5.075 21.385l10.73 10.655 10.73 10.655c5.926 5.884 15.5 5.851 21.385-.075 5.885-5.926 5.851-15.5-.075-21.385z"/></g><path d="m398.241 301.791-8.969 9.033c-12.328 12.415-32.385 12.485-44.799.158l-72.009-71.505 53.611-53.989 72.009 71.505c12.414 12.327 12.484 32.384.157 44.798z" fill="#0098ff"/></g></g></g></g></g></svg>