<svg id="Capa_1" enable-background="new 0 0 512.003 512.003" height="512" viewBox="0 0 512.003 512.003" width="512" xmlns="http://www.w3.org/2000/svg"><g><path d="m261.991 511.932c-44.52 1.04-86.64-9.34-123.57-28.48-24.12-47.31-62.59-85.77-109.9-109.88-17.33-33.49-27.51-71.34-28.45-111.58-3.31-141.35 108.59-258.61 249.94-261.92 141.35-3.31 258.61 108.59 261.92 249.94s-108.589 258.61-249.94 261.92z" fill="#374c81"/><path d="m449.361 423.762c-12.63 14.55-26.88 27.67-42.48 39.08-8.12 5.93-16.61 11.4-25.42 16.37-35.38 19.92-76.04 31.7-119.47 32.72-2 .05-4 .07-5.99.07-.74 0-1.49 0-2.22-.01h-.15c-24.93-.22-49.04-4.02-71.83-10.91-15.09-4.56-29.6-10.49-43.38-17.64-24.12-47.29-62.57-85.75-109.87-109.86-17.36-33.49-27.54-71.35-28.48-111.59-1.08-46.21 10.15-89.84 30.7-127.75 45.91 76.01 130.14 125.98 225.27 123.76 95.15-2.22 176.96-56.09 219.25-134.17 22.3 36.92 35.56 79.97 36.64 126.18 1.551 66.31-22.26 127.32-62.57 173.75z" fill="#323b5a"/></g><g><g><g><g><path d="m466.125 375.672-62.501 62.501c-11.229 11.229-28.892 12.714-41.896 3.599-60.641-42.526-144.872-36.699-199.05 17.479l-24.24 24.24c-22.847-11.816-44.286-27.301-63.456-46.471s-34.655-40.609-46.471-63.456l24.24-24.24c30.356-30.356 45.538-70.145 45.523-109.927.007-31.233-9.341-62.459-28.044-89.124-9.115-13.004-7.63-30.667 3.599-41.896l62.501-62.501c12.431-12.431 31.452-14.241 45.813-5.438 2.447 1.499 4.759 3.316 6.88 5.438l277.101 277.101c2.121 2.121 3.939 4.434 5.438 6.88 8.804 14.363 6.994 33.384-5.437 45.815z" fill="#fff"/><path d="m466.125 375.672-62.501 62.501c-11.229 11.229-28.892 12.714-41.896 3.599-60.641-42.526-144.872-36.699-199.05 17.479l-24.24 24.24c-22.847-11.816-44.286-27.301-63.456-46.471l252.593-252.593 138.551 138.55c2.121 2.121 3.939 4.434 5.438 6.88 8.802 14.363 6.992 33.384-5.439 45.815z" fill="#d1f6ff"/><g><path d="m172.619 146.841c-6.104 6.104-14.106 9.163-22.108 9.163s-15.997-3.052-22.102-9.156l-46.524-46.524 44.216-44.216 46.524 46.524c12.209 12.208 12.202 32.001-.006 44.209z" fill="#369cef"/><path d="m455.896 385.902-44.216 44.216-46.524-46.524c-12.208-12.208-12.201-32.002.007-44.21 6.104-6.104 14.106-9.163 22.108-9.163s15.997 3.052 22.101 9.156z" fill="#008add"/></g></g><g><g><path d="m242.781 184.603 44.783 39.836 28.485 25.341 10.666-10.666-28.435-25.392-45.345-40.485c-16.767-14.978-42.252-14.228-58.124 1.644l-.166.166c-.087.087-.173.173-.253.267-15.534 15.952-16.017 41.3-1.075 57.857l40.564 44.949 25.536 28.29 10.421-10.421-25.391-28.435-39.829-44.589c-9.512-10.55-9.252-26.66.541-36.887.108-.108.209-.224.31-.324l.108-.108c10.161-10.158 26.48-10.627 37.204-1.043z" fill="#4e689b"/><path d="m326.715 239.115-10.666 10.665-28.485-25.341 10.716-10.716z" fill="#374c81"/><path d="m259.416 306.41-66.098-73.242c-14.948-16.555-14.456-41.9 1.071-57.858l10.77 10.77c-9.792 10.223-10.057 26.335-.538 36.884l65.214 73.027z" fill="#374c81"/><path d="m244.446 267.557 25.392 28.435-10.421 10.42-25.535-28.29z" fill="#323b5a"/><path d="m254.191 175.014c-16.413-16.413-43.11-16.413-59.523 0l-.288.288c-16.118 16.435-16.017 42.915.296 59.228s42.786 16.406 59.221.288l.288-.288c16.412-16.413 16.412-43.11.006-59.516zm-44.048 44.047c-7.788-7.788-7.882-20.387-.296-28.29l.288-.288c7.882-7.882 20.704-7.882 28.586 0 7.875 7.875 7.875 20.697-.007 28.579l-.288.288c-7.896 7.593-20.502 7.492-28.283-.289z" fill="#374c81"/><path d="m259.757 317.207-11.545-11.545c-2.646-2.646-2.646-6.931 0-9.577l5.93-5.93c7.609-7.609 19.946-7.609 27.555 0l.003.003c3.321 3.321 8.707 3.321 12.028 0l15.507-15.507c3.324-3.324 3.324-8.71 0-12.034-3.804-3.805-5.705-8.791-5.708-13.777.003-4.986 1.904-9.973 5.708-13.777l5.93-5.93c2.646-2.646 6.931-2.646 9.577 0l11.964 11.964c21.133 21.133 21.133 55.395-.003 76.525l-.134.134c-21.225 21.079-55.664 20.599-76.812-.549z" fill="#ffee73"/></g><path d="m259.757 317.207-11.545-11.545c-2.646-2.646-2.646-6.931 0-9.577l5.93-5.93c7.609-7.609 19.946-7.609 27.555 0l.003.003c3.321 3.321 8.707 3.321 12.028 0l7.755-7.755 35.219 35.219-.134.134c-21.224 21.079-55.663 20.599-76.811-.549z" fill="#ffe131"/><path d="m253.895 234.818c-16.435 16.118-42.908 16.024-59.221-.288s-16.413-42.793-.296-59.228l15.469 15.469c-7.586 7.904-7.493 20.502.296 28.29 7.781 7.781 20.387 7.882 28.283.289z" fill="#323b5a"/></g></g></g></g></svg>