<svg id="Capa_1" enable-background="new 0 0 512 512" height="512" viewBox="0 0 512 512" width="512" xmlns="http://www.w3.org/2000/svg"><g><g><path d="m512 256c0 95.712-52.523 179.147-130.315 223.072-5.92-2.688-12.832.629-14.421 6.933l-.181.693.011.021c-33.601 16.204-71.286 25.281-111.094 25.281-8.448 0-16.811-.405-25.045-1.216l-1.013-1.131c-3.894-4.32-10.528-4.736-14.923-.928-121.899-19.594-215.019-125.29-215.019-252.725 0-141.387 114.613-256 256-256s256 114.613 256 256z" fill="#ffee73"/><g><g><path d="m512 256c0 87.115-43.52 164.075-109.995 210.315-6.56 4.555-13.333 8.821-20.32 12.757-5.92-2.688-12.832.629-14.421 6.933l-.181.693c-33.6 16.214-71.275 25.302-111.083 25.302-8.448 0-16.811-.405-25.045-1.216l-1.013-1.131c-3.894-4.32-10.528-4.736-14.923-.928-26.528-4.256-51.68-12.608-74.816-24.363-10.507-5.323-20.597-11.371-30.208-18.048-5.387-3.744-10.613-7.691-15.691-11.85h-.01c-16.875-13.75-31.958-29.632-44.853-47.211-10.773-14.688-20.021-30.571-27.488-47.403-14.113-31.743-21.953-66.879-21.953-103.85 0-46.219 12.245-89.568 33.685-126.997 38.336 66.976 106.08 114.965 185.621 126.389 8.544 1.227 17.227 2.038 26.027 2.389 3.541.15 7.093.224 10.667.224 95.157 0 178.208-51.936 222.315-129.003 21.44 37.43 33.685 80.779 33.685 126.998z" fill="#ffe131"/></g></g></g><g><g><g><g><path d="m280.171 458.699c0 19.925-16.213 36.138-36.149 36.138-7.2 0-13.067 5.867-13.067 13.067v2.88c-5.365-.512-10.677-1.205-15.936-2.059v-.821c0-16 13.013-29.003 29.003-29.003 11.147 0 20.213-9.067 20.213-20.203 0-11.147-9.067-20.213-20.213-20.213h-29.6c-15.989 0-28.992-13.013-28.992-28.992v-38.912h15.936v38.912c0 7.2 5.856 13.056 13.056 13.056h29.6c19.935 0 36.149 16.224 36.149 36.15z" fill="#fff"/><path d="m280.171 458.699c0 19.925-16.213 36.138-36.149 36.138-7.2 0-13.067 5.867-13.067 13.067v2.88c-2.667-.256-5.323-.555-7.968-.896v-1.984c0-5.813 2.357-11.061 6.165-14.88 3.797-3.808 9.067-6.155 14.869-6.155 7.787 0 14.827-3.157 19.925-8.256 5.099-5.099 8.256-12.139 8.256-19.915 0-15.563-12.619-28.181-28.181-28.181h-29.6c-11.616 0-21.024-9.408-21.024-21.024v-38.912h7.968v38.912c0 7.2 5.856 13.056 13.056 13.056h29.6c19.936 0 36.15 16.224 36.15 36.15z" fill="#d1f6ff"/></g><g><path d="m290.326 290.446-80.127 80.136 3.434 5.817c6.53 11.032-1.434 24.977-14.255 24.977h-11.964c-12.822 0-20.785-13.945-14.265-24.977l3.443-5.817-80.127-80.136c-53.543-53.534-53.543-140.337 0-193.871 22.584-22.593 51.105-35.653 80.557-39.178 5.434-.649 10.913-.977 16.374-.977h.018c35.077 0 70.155 13.388 96.912 40.155 53.543 53.534 53.543 140.337 0 193.871z" fill="#5cbdff"/><path d="m290.326 290.446-80.127 80.136 3.434 5.817c6.53 11.032-1.434 24.977-14.255 24.977h-8.978c-6.411 0-10.393-13.945-7.123-24.977l1.717-5.817-40.064-80.136c-26.776-53.534-26.776-140.337 0-193.871 11.297-22.593 25.552-35.653 40.283-39.178 2.712-.649 5.452-.968 8.182-.968v-.009h.018c35.077 0 70.155 13.388 96.912 40.155 53.544 53.534 53.544 140.337.001 193.871z" fill="#24b1ff"/><path d="m290.326 290.446-80.127 80.136 3.434 5.817c6.53 11.032-1.434 24.977-14.255 24.977h-5.982v-344.956h.018c35.077 0 70.155 13.388 96.912 40.155 53.543 53.534 53.543 140.337 0 193.871z" fill="#0098ff"/><path d="m199.377 401.376h-11.964c-12.822 0-20.785-13.945-14.265-24.977l3.443-5.817h33.607l3.434 5.817c6.531 11.032-1.433 24.977-14.255 24.977z" fill="#5cbdff"/><path d="m199.377 401.376h-5.982v-30.794h16.804l3.434 5.817c6.53 11.032-1.434 24.977-14.256 24.977z" fill="#24b1ff"/></g></g><g><g><path d="m381.685 479.072c-4.768 2.699-9.643 5.248-14.603 7.627-1.867-11.936-12.213-21.088-24.661-21.088h-19.616c-13.141 0-23.829-10.688-23.829-23.829s10.688-23.829 23.829-23.829h13.312c4.352 0 7.893-3.541 7.893-7.893v-31.98h15.936v31.979c0 13.131-10.688 23.829-23.829 23.829h-13.312c-4.363 0-7.893 3.531-7.893 7.893 0 4.342 3.531 7.894 7.893 7.894h19.616c18.56 0 34.272 12.416 39.264 29.397z" fill="#fff"/><path d="m381.685 479.072c-2.379 1.344-4.779 2.645-7.2 3.925-3.435-14.539-16.48-25.355-32.064-25.355h-19.616c-4.384 0-8.352-1.781-11.221-4.651-2.869-2.869-4.64-6.837-4.64-11.211 0-8.768 7.093-15.861 15.861-15.861h13.312c8.757 0 15.861-7.104 15.861-15.862v-31.977h7.968v31.979c0 13.131-10.688 23.829-23.829 23.829h-13.312c-4.363 0-7.893 3.531-7.893 7.893 0 4.342 3.531 7.894 7.893 7.894h19.616c18.56 0 34.272 12.416 39.264 29.397z" fill="#d1f6ff"/></g><g><path d="m425.312 317.454-60.619 60.626 2.598 4.401c4.94 8.346-1.085 18.896-10.785 18.896h-9.051c-9.7 0-15.725-10.55-10.792-18.896l2.605-4.401-60.619-60.626c-40.507-40.5-40.507-106.169 0-146.67 17.086-17.093 38.662-26.973 60.944-29.639 4.111-.491 8.256-.739 12.388-.739h.014c26.537 0 53.074 10.128 73.318 30.379 40.506 40.499 40.506 106.169-.001 146.669z" fill="#ff85ce"/><path d="m425.312 317.454-60.619 60.626 2.598 4.401c4.94 8.346-1.085 18.896-10.785 18.896h-6.792c-4.85 0-7.862-10.55-5.389-18.896l1.299-4.401-30.31-60.626c-20.257-40.5-20.257-106.169 0-146.67 8.547-17.093 19.331-26.973 30.475-29.639 2.052-.491 4.125-.732 6.19-.732v-.007h.014c26.537 0 53.074 10.128 73.318 30.379 40.508 40.499 40.508 106.169.001 146.669z" fill="#ff64b9"/><path d="m425.312 317.454-60.619 60.626 2.598 4.401c4.94 8.346-1.085 18.896-10.785 18.896h-4.525v-260.971h.014c26.537 0 53.074 10.128 73.318 30.379 40.506 40.499 40.506 106.169-.001 146.669z" fill="#ff48a4"/><path d="m356.506 401.376h-9.051c-9.7 0-15.725-10.55-10.792-18.896l2.605-4.401h25.425l2.598 4.401c4.94 8.347-1.085 18.896-10.785 18.896z" fill="#ff85ce"/><path d="m356.506 401.376h-4.525v-23.297h12.712l2.598 4.401c4.94 8.347-1.085 18.896-10.785 18.896z" fill="#ff64b9"/></g></g></g></g></g></svg>