<svg id="Capa_1" enable-background="new 0 0 512.516 512.516" height="512" viewBox="0 0 512.516 512.516" width="512" xmlns="http://www.w3.org/2000/svg"><g><g><path d="m512 256.258c0 60.971-21.315 116.965-56.902 160.935-46.931 57.989-118.683 36.783-199.098 36.783-76.474 0-145.119 24.746-192.029-28.421-39.813-45.125-63.971-104.391-63.971-169.297 0-141.38 114.62-256 256-256 79.07 0 149.76 35.85 196.71 92.17 4.84 5.79 9.42 11.8 13.72 18.01 2.09 3 4.11 6.04 6.06 9.13 25.03 39.55 39.51 86.43 39.51 136.69z" fill="#ffee73"/><g><g><path d="m512.516 256.258c0 70.162-28.233 133.74-73.956 179.984-11.045 11.17-23.11 15.329-36.044 24.326-41.41 28.8-91.73 45.69-146 45.69s-104.59-16.89-146-45.69c-12.957-9.012-25.041-13.191-36.102-24.385-45.689-46.239-73.898-109.793-73.898-179.925 0-46.22 12.25-89.57 33.68-127 44.12 77.07 127.16 129 222.32 129s178.21-51.93 222.32-129c21.43 37.43 33.68 80.78 33.68 127z" fill="#ffe131"/></g></g></g><g><g><g><g><g><circle cx="181.165" cy="371.714" fill="#4e689b" r="62.044"/><path d="m181.165 309.67v124.088c34.266 0 62.044-27.778 62.044-62.044 0-34.265-27.778-62.044-62.044-62.044z" fill="#374c81"/><path d="m207.779 371.704c0 14.701-11.909 26.611-26.611 26.611-14.701 0-26.611-11.91-26.611-26.611 0-14.679 11.91-26.589 26.611-26.589 14.702.001 26.611 11.91 26.611 26.589z" fill="#fff"/><path d="m207.779 371.704c0 14.701-11.909 26.611-26.611 26.611v-53.2c14.702.001 26.611 11.91 26.611 26.589z" fill="#d1f6ff"/></g><g><circle cx="329.49" cy="371.714" fill="#374c81" r="62.044"/><path d="m329.49 309.67v124.088c34.266 0 62.044-27.778 62.044-62.044 0-34.265-27.778-62.044-62.044-62.044z" fill="#323b5a"/><ellipse cx="329.49" cy="371.714" fill="#fff" rx="26.608" ry="26.608" transform="matrix(.924 -.383 .383 .924 -117.168 154.386)"/></g><path d="m342.792 378.616c-.022.022-.022.067-.045.09-.676 1.464-1.599 2.837-2.814 4.03-.068.068-.09.113-.09.113-.113.135-.248.27-.383.383-2.814 2.612-6.394 3.917-9.974 3.917-3.917 0-7.835-1.576-10.716-4.682l-63.51-68.283-64.276 68.351c-2.882 3.062-6.777 4.615-10.671 4.615-3.579 0-7.182-1.329-10.018-3.985-.113-.09-.203-.202-.315-.315-5.561-5.538-5.764-14.589-.315-20.352l71.03-75.555v-87.555c0-8.083 6.551-14.634 14.634-14.634 8.082 0 14.634 6.551 14.634 14.634v87.622l70.242 75.533c4.163 4.478 4.996 10.85 2.587 16.073z" fill="#374c81"/><g><path d="m342.792 378.616c-.022.022-.022.067-.045.09-1.509 2.162-2.544 3.625-2.814 4.03-.068.068-.09.113-.09.113l-84.516-90.099 14.634-5.741 70.242 75.533c4.165 4.479 4.998 10.851 2.589 16.074z" fill="#323b5a"/></g><path d="m255.328 184.752v107.997l-85.348 90.099c-5.561-5.538-5.764-14.589-.315-20.352l71.03-75.555v-87.555c-.001-8.082 6.55-14.634 14.633-14.634z" fill="#4e689b"/></g><g><path d="m472.49 119.568c-3.13 5.32-8.91 8.88-15.53 8.88h-62.41c-1.67 0-3.02 1.35-3.02 3.01v26.82c0 4.97-2.02 9.48-5.26 12.74-3.27 3.27-7.77 5.27-12.75 5.27-9.95 0-18.01-8.06-18.01-18.01v-26.82c0-21.56 17.47-39.03 39.04-39.03h58.16c7.17 8.59 13.78 17.65 19.78 27.14z" fill="#374c81"/><path d="m472.49 119.568c-3.14 5.31-8.92 8.88-15.53 8.88h-62.41c-1.67 0-3.02 1.35-3.02 3.02v26.81c0 4.97-2.01 9.47-5.27 12.73s-7.76 5.28-12.74 5.28v-44.82c0-11.62 9.42-21.03 21.03-21.03h71.88c2.09 3 4.11 6.04 6.06 9.13z" fill="#323b5a"/></g><path d="m230.39 22.616c12.966-2.4 24.938 7.567 24.938 20.753v126.907c0 15.647-12.675 28.322-28.345 28.322h-79.517c-15.67 0-28.345-12.675-28.345-28.322v-13.733c0-50.408 27.399-94.421 68.103-117.993 13.158-7.599 27.704-13.072 43.166-15.934z" fill="#ff85ce"/><path d="m230.39 22.616c12.966-2.4 24.938 7.567 24.938 20.753v126.907c0 15.647-12.675 28.322-28.345 28.322h-39.759v-160.048c13.158-7.599 27.704-13.072 43.166-15.934z" fill="#ff64b9"/><path d="m119.121 182.573v44.684c0 36.157 29.335 65.492 65.492 65.492h141.429c36.157 0 65.492-29.335 65.492-65.492v-44.684z" fill="#5cbdff"/><path d="m187.224 182.573v50.442c0 32.99 26.744 59.734 59.734 59.734h79.084c36.17 0 65.492-29.322 65.492-65.492v-44.684z" fill="#24b1ff"/><path d="m326.031 292.749h-70.704v-136.206h136.206v70.704c.001 36.176-29.326 65.502-65.502 65.502z" fill="#0098ff"/><path d="m119.121 156.543h272.413v42.055h-272.413z" fill="#fff"/><path d="m187.224 156.543h204.309v42.055h-204.309z" fill="#d1f6ff"/><path d="m255.328 156.543h136.206v42.055h-136.206z" fill="#b3f4ff"/><path d="m472.49 119.568c-3.13 5.32-8.91 8.88-15.53 8.88h-41.72v-36.02h37.47c7.17 8.59 13.78 17.65 19.78 27.14z" fill="#24b1ff"/><path d="m466.43 110.438h-51.19v18.01h41.72c6.62 0 12.4-3.56 15.53-8.88z" fill="#0098ff"/></g><path d="m440.72 433.758c-46.57 48.39-112 78.5-184.46 78.5s-137.89-30.11-184.46-78.5z" fill="#374c81"/><path d="m440.72 433.758c-46.57 48.39-112 78.5-184.46 78.5v-78.5z" fill="#323b5a"/></g></g></g></svg>