<svg id="Capa_1" enable-background="new 0 0 512 512" height="512" viewBox="0 0 512 512" width="512" xmlns="http://www.w3.org/2000/svg"><g><g><path d="m512 256c0 25.365-3.691 49.867-10.56 73.003l-86.507 127.701-.011.011c-43.658 34.613-98.869 55.285-158.922 55.285-141.387 0-256-114.613-256-256s114.613-256 256-256 256 114.613 256 256z" fill="#5cbdff"/><g><g><path d="m512 256c0 25.365-3.691 49.867-10.56 73.003l-86.517 127.712c-4.203 3.328-8.512 6.539-12.918 9.6-41.418 28.8-91.733 45.685-146.005 45.685-41.685 0-81.024-9.963-115.797-27.637-10.507-5.323-20.597-11.371-30.208-18.048-5.387-3.744-10.613-7.691-15.691-11.85h-.01c-16.875-13.75-31.958-29.632-44.853-47.211-10.773-14.688-20.021-30.571-27.488-47.403-14.113-31.744-21.953-66.88-21.953-103.851 0-46.219 12.245-89.568 33.685-126.997 38.336 66.976 106.08 114.965 185.621 126.389 8.544 1.227 17.227 2.038 26.027 2.389 3.541.15 7.093.224 10.667.224 95.157 0 178.208-51.936 222.315-129.003 21.44 37.43 33.685 80.779 33.685 126.998z" fill="#24b1ff"/></g></g></g><g><g><g><g><path d="m430.645 433.504-15.712 23.2-.011.011c-43.658 34.602-98.879 55.285-158.922 55.285-72.459 0-137.888-30.112-184.459-78.496z" fill="#00e8e9"/><path d="m430.645 433.504-15.712 23.2-.011.011c-43.658 34.602-98.879 55.285-158.922 55.285v-78.496z" fill="#00d3cd"/><g><g><path d="m294.642 57.39c0 3.225-2.61 5.834-5.835 5.834-30.764 0-55.799 25.035-55.799 55.799 0 3.225-2.609 5.835-5.834 5.835s-5.835-2.61-5.835-5.835c0-30.764-25.035-55.799-55.799-55.799-3.225 0-5.835-2.61-5.835-5.834s2.61-5.834 5.835-5.834c27.454 0 51.11 16.485 61.633 40.077 10.523-23.593 34.179-40.077 61.633-40.077 3.226 0 5.836 2.609 5.836 5.834z" fill="#374c81"/><path d="m294.642 57.39c0 3.225-2.61 5.834-5.835 5.834-30.764 0-55.799 25.035-55.799 55.799 0 3.225-2.609 5.835-5.834 5.835v-33.225c10.523-23.593 34.179-40.077 61.633-40.077 3.225 0 5.835 2.609 5.835 5.834z" fill="#323b5a"/><g><ellipse cx="217.517" cy="133.518" fill="#374c81" rx="16.6" ry="16.6" transform="matrix(.23 -.973 .973 .23 37.596 314.54)"/><ellipse cx="236.83" cy="133.518" fill="#323b5a" rx="16.6" ry="16.6" transform="matrix(.707 -.707 .707 .707 -25.046 206.571)"/></g><g><path d="m105.932 92.844h-7.928c-31.37 0-56.801 25.431-56.801 56.801s25.431 56.801 56.801 56.801h43.16c-20.229 0-36.629 16.399-36.629 36.629s16.399 36.629 36.629 36.629h5.113c40.459 0 73.258-32.799 73.258-73.258-.001-62.741-50.862-113.602-113.603-113.602z" fill="#ffee73"/><path d="m348.415 92.844h7.928c31.37 0 56.801 25.431 56.801 56.801s-25.431 56.801-56.801 56.801h-43.16c20.229 0 36.629 16.399 36.629 36.629s-16.399 36.629-36.629 36.629h-5.112c-40.459 0-73.258-32.799-73.258-73.258 0-62.741 50.862-113.602 113.602-113.602z" fill="#ffe131"/></g><path d="m249.695 199.306c0 25.852-3.936 50.452-11.032 72.761-1.782 5.601-6.63 8.401-11.489 8.401s-9.707-2.8-11.489-8.401c-7.097-22.309-11.032-46.909-11.032-72.761 0-28.78 4.88-56.022 13.578-80.282 1.506-4.201 5.23-6.301 8.943-6.301s7.436 2.1 8.942 6.301c8.699 24.26 13.579 51.502 13.579 80.282z" fill="#4e689b"/></g><path d="m249.695 199.306c0 25.852-3.936 50.452-11.032 72.761-1.782 5.601-6.63 8.401-11.489 8.401v-167.746c3.713 0 7.436 2.1 8.942 6.301 8.699 24.261 13.579 51.503 13.579 80.283z" fill="#374c81"/><g><g fill="#ffe131"><ellipse cx="95.461" cy="147.63" rx="34.907" ry="34.907" transform="matrix(.924 -.383 .383 .924 -49.229 47.769)"/><circle cx="161.485" cy="158.826" r="23.711"/></g><g><ellipse cx="358.886" cy="147.63" fill="#fcbf12" rx="34.907" ry="34.907" transform="matrix(.383 -.924 .924 .383 85.155 422.702)"/><circle cx="292.862" cy="158.826" fill="#fcbf12" r="23.711"/><path d="m292.862 135.115v47.422c13.095 0 23.711-10.616 23.711-23.711 0-13.096-10.616-23.711-23.711-23.711z" fill="#ff9f00"/></g></g><g><circle cx="306.541" cy="242.749" fill="#fcbf12" r="23.711"/><path d="m306.541 219.038v47.422c13.095 0 23.711-10.616 23.711-23.711s-10.616-23.711-23.711-23.711z" fill="#ff9f00"/><circle cx="147.806" cy="242.749" fill="#ffe131" r="23.711"/></g><path d="m95.461 112.722v69.815c19.279 0 34.907-15.628 34.907-34.907s-15.628-34.908-34.907-34.908z" fill="#fcbf12"/><path d="m358.886 112.722v69.815c19.279 0 34.907-15.628 34.907-34.907s-15.628-34.908-34.907-34.908z" fill="#ff9f00"/><g fill="#fcbf12"><path d="m147.806 219.038v47.422c13.095 0 23.711-10.616 23.711-23.711s-10.615-23.711-23.711-23.711z"/><path d="m161.485 135.115v47.422c13.095 0 23.711-10.616 23.711-23.711.001-13.096-10.615-23.711-23.711-23.711z"/></g></g><g><path d="m223.349 433.023c0 .16-.011.32-.011.48h-151.807c-5.408-5.611-10.571-11.477-15.445-17.579-8.981-11.2-17.035-23.179-24.053-35.819 12.245-19.179 33.707-31.883 58.144-31.883 25.909 0 48.469 14.293 60.267 35.424 6.101-2.443 12.757-3.797 19.733-3.797 29.364.001 53.172 23.798 53.172 53.174z" fill="#00e8e9"/><path d="m171.467 433.226c0 .085-.011.181-.011.277h-99.925c-5.408-5.611-10.571-11.477-15.445-17.579 3.776-17.963 19.712-31.456 38.805-31.456 14.89 0 27.872 8.213 34.645 20.363 3.509-1.408 7.339-2.187 11.35-2.187 16.895.001 30.581 13.697 30.581 30.582z" fill="#00d3cd"/></g><g><g><path d="m443.705 300.686c0 2.491-2.016 4.508-4.508 4.508-23.769 0-43.112 19.343-43.112 43.111 0 2.492-2.016 4.508-4.508 4.508s-4.508-2.016-4.508-4.508c0-23.769-19.343-43.111-43.112-43.111-2.492 0-4.508-2.016-4.508-4.508s2.016-4.508 4.508-4.508c21.212 0 39.489 12.737 47.619 30.965 8.13-18.228 26.408-30.965 47.619-30.965 2.494 0 4.51 2.016 4.51 4.508z" fill="#374c81"/><path d="m443.705 300.686c0 2.491-2.016 4.508-4.508 4.508-23.769 0-43.112 19.343-43.112 43.111 0 2.492-2.016 4.508-4.508 4.508v-25.67c8.13-18.228 26.408-30.965 47.619-30.965 2.493 0 4.509 2.016 4.509 4.508z" fill="#323b5a"/><g><ellipse cx="384.117" cy="359.504" fill="#374c81" rx="12.826" ry="12.826" transform="matrix(.23 -.973 .973 .23 -54.022 650.749)"/><ellipse cx="399.038" cy="359.504" fill="#323b5a" rx="12.826" ry="12.826" transform="matrix(.707 -.707 .707 .707 -137.332 387.459)"/></g><g><path d="m297.903 328.078h-6.125c-24.237 0-43.886 19.648-43.886 43.886 0 24.237 19.649 43.886 43.886 43.886h33.347c-15.63 0-28.3 12.671-28.3 28.3 0 15.63 12.671 28.3 28.3 28.3h3.95c31.26 0 56.601-25.341 56.601-56.601-.001-48.474-39.298-87.771-87.773-87.771z" fill="#ffee73"/><path d="m501.44 329.003c-15.168 51.051-45.824 95.445-86.517 127.712-10.752-10.293-17.44-24.8-17.44-40.864 0-24.245 9.824-46.176 25.707-62.059s37.835-25.707 62.069-25.707h6.123c3.381 0 6.815.267 10.058.918z" fill="#ffe131"/></g><path d="m408.978 410.333c0 19.974-3.041 38.981-8.524 56.217-1.377 4.328-5.123 6.491-8.876 6.491-3.754 0-7.5-2.164-8.876-6.491-5.483-17.236-8.524-36.243-8.524-56.217 0-22.236 3.77-43.284 10.491-62.028 1.164-3.246 4.041-4.868 6.909-4.868 2.869 0 5.745 1.623 6.909 4.868 6.721 18.744 10.491 39.792 10.491 62.028z" fill="#4e689b"/></g><path d="m408.978 410.333c0 19.974-3.041 38.981-8.524 56.217-1.377 4.328-5.123 6.491-8.876 6.491v-129.604c2.869 0 5.745 1.623 6.909 4.868 6.721 18.744 10.491 39.792 10.491 62.028z" fill="#374c81"/><g><g fill="#ffe131"><circle cx="289.813" cy="370.407" r="26.97"/><ellipse cx="340.825" cy="379.057" rx="18.32" ry="18.32" transform="matrix(.29 -.957 .957 .29 -120.733 595.414)"/></g><g><path d="m496.608 343.627c-5.888 16.149-13.344 31.531-22.197 45.973-4.96-4.875-8.032-11.68-8.032-19.189 0-14.901 12.075-26.976 26.965-26.976 1.099 0 2.187.064 3.264.192z" fill="#fcbf12"/><ellipse cx="442.33" cy="379.057" fill="#fcbf12" rx="18.32" ry="18.32" transform="matrix(.973 -.23 .23 .973 -75.257 111.767)"/><path d="m442.33 360.737v36.64c10.118 0 18.32-8.202 18.32-18.32 0-10.117-8.202-18.32-18.32-18.32z" fill="#ff9f00"/></g></g><g><ellipse cx="330.256" cy="443.898" fill="#ffe131" rx="18.32" ry="18.32" transform="matrix(.973 -.23 .23 .973 -93.153 87.753)"/></g><g fill="#fcbf12"><path d="m289.813 343.437v53.94c14.895 0 26.97-12.075 26.97-26.97.001-14.895-12.075-26.97-26.97-26.97z"/><path d="m330.256 425.579v36.639c10.118 0 18.32-8.202 18.32-18.32 0-10.117-8.202-18.319-18.32-18.319z"/><path d="m340.825 360.737v36.64c10.118 0 18.32-8.202 18.32-18.32 0-10.117-8.202-18.32-18.32-18.32z"/></g></g></g></g></g></g></g></svg>