<svg id="Capa_1" enable-background="new 0 0 512 512" height="512" viewBox="0 0 512 512" width="512" xmlns="http://www.w3.org/2000/svg"><g><g><path d="m512 256c0 51.392-15.147 99.253-41.216 139.349-6.261-2.165-13.013 1.621-14.453 8.085l-3.627 16.416c-40.629 48.715-99.019 82.112-165.227 90.229-4.896-7.115-15.285-7.424-20.597-.619l-1.856 2.379c-2.997.107-6.005.16-9.024.16-87.627 0-164.981-44.032-211.115-111.168l13.942-308.127c46.954-56.629 117.856-92.704 197.173-92.704 141.387 0 256 114.613 256 256z" fill="#374c81"/><g><g><path d="m512 256c0 51.392-15.147 99.243-41.216 139.349h-.011c-6.261-2.165-13.003 1.621-14.443 8.085l-3.627 16.416c-14.731 17.664-31.787 33.312-50.699 46.464-33.291 23.147-72.32 38.592-114.528 43.765-4.896-7.115-15.285-7.424-20.597-.619l-1.867 2.389c-2.996.098-5.993.151-9.012.151-41.685 0-81.024-9.963-115.797-27.637-10.507-5.323-20.597-11.371-30.208-18.048-5.387-3.744-10.613-7.691-15.691-11.85h-.011c-16.875-13.75-31.957-29.632-44.853-47.211-1.557-2.112-3.072-4.256-4.555-6.421l10.827-239.381c39.701 49.792 97.579 84.459 163.595 93.941 8.544 1.227 17.227 2.038 26.027 2.389 3.541.15 7.093.224 10.667.224 95.157 0 178.208-51.936 222.315-129.003 21.439 37.429 33.684 80.778 33.684 126.997z" fill="#323b5a"/></g></g></g><g><g><path d="" fill="#5cbdff"/><path d="m90.699 136.021v219.467c0 23.499-17.952 43.115-41.365 45.173-1.344.117-2.667.181-3.979.181h-.064c-.128 0-.267 0-.405-.011-28.321-41.183-44.886-91.071-44.886-144.831 0-62.069 22.08-118.976 58.827-163.296 7.787 2.421 14.635 6.869 19.968 12.683 7.424 8.106 11.904 18.89 11.904 30.634z" fill="#5cbdff"/><path d="m174.163 140.047v211.414c0 21.625-16.528 39.672-38.071 41.567-1.226.112-2.452.162-3.658.162h-.061c-22.77 0-41.669-18.504-41.669-41.729v-211.414c0-23.246 18.929-41.76 41.729-41.729 1.206 0 2.432.051 3.658.162 10.772.953 20.287 5.938 27.117 13.386 6.821 7.448 10.955 17.369 10.955 28.181z" fill="#ffee73"/><path d="m251.218 143.887v203.733c0 19.963-15.261 36.622-35.153 38.375-1.135.102-2.26.152-3.374.152h-.051c-21.017 0-38.477-17.075-38.477-38.527v-203.733c0-21.473 17.48-38.558 38.527-38.527 1.115 0 2.24.051 3.374.152 9.941.871 18.737 5.482 25.04 12.363 6.304 6.871 10.114 16.031 10.114 26.012z" fill="#00e8e9"/><path d="m322.557 147.556v196.396c0 18.493-14.126 33.917-32.538 35.538-1.044.091-2.098.142-3.131.142h-.051c-19.476 0-35.619-15.818-35.619-35.68v-196.396c0-19.882 16.173-35.7 35.67-35.68 1.034 0 2.087.051 3.131.142 9.211.811 17.338 5.067 23.175 11.441s9.363 14.845 9.363 24.097z" fill="#ff85ce"/><path d="m90.709 136.021v219.467c0 23.499-17.963 43.115-41.376 45.173-1.344.117-2.667.181-3.989.181v-290.357c4.235-6.133 8.736-12.064 13.483-17.781 7.787 2.421 14.635 6.859 19.968 12.683 7.424 8.106 11.914 18.89 11.914 30.634z" fill="#24b1ff"/><path d="m174.163 140.047v211.414c0 21.625-16.528 39.672-38.071 41.567-1.226.112-2.452.162-3.658.162v-294.873c1.206 0 2.432.051 3.658.162 10.772.953 20.287 5.938 27.117 13.386 6.82 7.449 10.954 17.37 10.954 28.182z" fill="#ffe131"/><path d="m251.218 143.887v203.733c0 19.963-15.261 36.622-35.153 38.375-1.135.102-2.26.152-3.374.152v-280.787c1.115 0 2.24.051 3.374.152 9.941.871 18.737 5.482 25.04 12.363 6.303 6.871 10.113 16.031 10.113 26.012z" fill="#00d3cd"/><path d="m322.557 147.556v196.396c0 18.493-14.126 33.917-32.538 35.538-1.044.091-2.098.142-3.131.142v-267.756c1.034 0 2.087.051 3.131.142 9.211.811 17.338 5.067 23.175 11.441s9.363 14.845 9.363 24.097z" fill="#ff64b9"/><g><g><ellipse cx="45.347" cy="156.394" fill="#4e689b" rx="14.053" ry="14.053" transform="matrix(.707 -.707 .707 .707 -97.306 77.872)"/><path d="m45.347 142.341v28.106c7.761 0 14.053-6.292 14.053-14.053s-6.292-14.053-14.053-14.053z" fill="#374c81"/></g><g><path d="m31.294 335.113c0 7.762 6.292 14.053 14.053 14.053 7.762 0 14.053-6.292 14.053-14.053s-6.292-14.053-14.053-14.053-14.053 6.292-14.053 14.053z" fill="#4e689b"/><path d="m45.347 321.06v28.106c7.761 0 14.053-6.292 14.053-14.053s-6.292-14.053-14.053-14.053z" fill="#374c81"/></g></g><g><g><ellipse cx="132.434" cy="156.394" fill="#4e689b" rx="14.053" ry="14.053" transform="matrix(.707 -.707 .707 .707 -71.799 139.452)"/><path d="m132.434 142.341v28.106c7.761 0 14.053-6.292 14.053-14.053s-6.292-14.053-14.053-14.053z" fill="#374c81"/></g><g><path d="m118.381 335.113c0 7.762 6.292 14.053 14.053 14.053s14.053-6.292 14.053-14.053-6.292-14.053-14.053-14.053-14.053 6.292-14.053 14.053z" fill="#4e689b"/><path d="m132.434 321.06v28.106c7.761 0 14.053-6.292 14.053-14.053s-6.292-14.053-14.053-14.053z" fill="#374c81"/></g></g><g><g><ellipse cx="212.691" cy="156.394" fill="#4e689b" rx="14.053" ry="14.053" transform="matrix(.973 -.23 .23 .973 -30.242 53.05)"/><path d="m212.691 142.341v28.106c7.761 0 14.053-6.292 14.053-14.053s-6.292-14.053-14.053-14.053z" fill="#374c81"/></g><g><path d="m198.637 335.113c0 7.762 6.292 14.053 14.053 14.053s14.053-6.292 14.053-14.053-6.292-14.053-14.053-14.053-14.053 6.292-14.053 14.053z" fill="#4e689b"/><path d="m212.691 321.06v28.106c7.761 0 14.053-6.292 14.053-14.053s-6.292-14.053-14.053-14.053z" fill="#374c81"/></g></g><g><g><ellipse cx="286.888" cy="156.394" fill="#4e689b" rx="14.053" ry="14.053" transform="matrix(.987 -.16 .16 .987 -21.347 47.974)"/><path d="m286.888 142.341v28.106c7.761 0 14.053-6.292 14.053-14.053s-6.292-14.053-14.053-14.053z" fill="#374c81"/></g></g><g><path d="m470.784 395.349c-2.837 4.384-5.813 8.672-8.917 12.853-2.944 3.979-5.995 7.861-9.163 11.648l-27.733-147.328c-2.176-11.552-7.787-22.315-16.576-30.123-4.587-4.075-7.851-9.696-8.896-16.267-2.24-13.963 6.709-27.627 20.427-31.093.576-.139 1.152-.277 1.728-.384 14.976-2.816 29.408 7.029 32.235 22.027 1.131 6.005.224 11.915-2.229 17.024-5.109 10.635-7.083 22.485-4.896 34.069z" fill="#fff"/><path d="m470.784 395.349c-2.837 4.384-5.813 8.672-8.917 12.853l-40.213-213.547c14.976-2.816 29.408 7.029 32.235 22.027 1.131 6.005.224 11.915-2.229 17.024-5.109 10.635-7.083 22.485-4.896 34.069z" fill="#d1f6ff"/></g><g><path d="m318.848 299.712c-.437 6.101-2.805 11.584-6.485 15.904-7.637 8.981-12.555 19.957-13.387 31.712l-11.499 162.752c-3.733.459-7.477.843-11.253 1.131-3.723.288-7.456.501-11.211.64l11.691-165.472c.821-11.723-1.867-23.563-8.384-33.333-3.403-5.109-5.131-11.37-4.48-18.005 1.376-14.069 13.504-25.003 27.659-24.885.587.011 1.173.032 1.76.075 15.2 1.076 26.666 14.27 25.589 29.481z" fill="#fff"/><path d="m318.848 299.712c-.437 6.101-2.805 11.584-6.485 15.904-7.637 8.981-12.555 19.957-13.387 31.712l-11.499 162.752c-3.733.459-7.477.843-11.253 1.131l17.035-240.981c15.2 1.077 26.666 14.271 25.589 29.482z" fill="#d1f6ff"/></g></g></g></g></svg>