<svg id="Capa_1" enable-background="new 0 0 512.001 512.001" height="512" viewBox="0 0 512.001 512.001" width="512" xmlns="http://www.w3.org/2000/svg"><g><g><path d="m511.997 254.595c.513 95.552-51.33 179.043-128.498 223.453l-.057.015c-83.505 22.237-171.376 22.23-254.878-.02l-.063-.017v.032c-76.788-44.202-128.5-127.093-128.5-222.058 0-141.215 114.336-255.722 255.486-255.999 140.584-.277 255.755 114.011 256.51 254.594z" fill="#5cbdff"/><g><g><path d="m512.001 256c0 87.115-43.52 164.075-109.995 210.315-6.005 4.182-12.203 8.107-18.571 11.755-83.501 22.233-171.366 22.225-254.863-.024l-.07-.019c-6.347-3.637-12.523-7.552-18.507-11.712-66.474-46.24-109.994-123.2-109.994-210.315 0-46.219 12.245-89.568 33.675-126.997 44.128 77.067 127.168 129.003 222.325 129.003s178.208-51.936 222.325-129.003c21.429 37.429 33.675 80.778 33.675 126.997z" fill="#24b1ff"/></g></g></g><g><g><g><g><path d="m401.194 276.001-17.696 202.048c-37.547 21.6-81.077 33.952-127.499 33.952-21.472 0-42.325-2.645-62.251-7.627-23.157-5.781-45.077-14.72-65.248-26.347l-17.696-202.027h290.39z" fill="#ffee73"/><path d="m401.194 276.001-17.696 202.048c-37.547 21.6-81.077 33.952-127.499 33.952-21.472 0-42.325-2.645-62.251-7.627l-9.931-228.373z" fill="#ffe131"/><path d="m401.194 276.001-17.696 202.048c-37.547 21.6-81.077 33.952-127.499 33.952v-236z" fill="#fcbf12"/><path d="m301.551 418.323-11.858 11.564 2.797 16.317c2.105 12.294-10.79 21.671-21.836 15.866l-14.655-7.707-14.655 7.707c-11.046 5.805-23.942-3.572-21.836-15.866l2.797-16.317-11.858-11.564c-8.933-8.7-4-23.874 8.339-25.664l16.392-2.384 7.324-14.851c2.76-5.587 8.128-8.384 13.497-8.384s10.738 2.797 13.497 8.384l7.324 14.851 16.392 2.384c12.34 1.79 17.272 16.964 8.339 25.664z" fill="#ff85ce"/><path d="m301.551 418.323-11.858 11.564 2.797 16.317c2.105 12.294-10.79 21.671-21.836 15.866l-14.655-7.707v-87.322c5.369 0 10.738 2.797 13.497 8.384l7.324 14.851 16.392 2.384c12.34 1.789 17.272 16.963 8.339 25.663z" fill="#ff64b9"/><path d="m417.51 276.226-4.682 24.807c-1.642 8.612-9.207 14.832-17.994 14.745l-138.833-1.38-139.69-1.398c-8.787-.087-16.229-6.447-17.697-15.112l-4.193-24.877c-1.887-11.128 6.761-21.243 18.046-21.138l143.533 1.432 143.9 1.433c11.286.122 19.724 10.412 17.61 21.488z" fill="#fcbf12"/></g><path d="m417.51 276.226-4.682 24.807c-1.642 8.612-9.207 14.832-17.994 14.745l-138.833-1.38v-61.092l143.9 1.433c11.285.121 19.723 10.411 17.609 21.487z" fill="#ff9f00"/></g><g><path d="m169.538 148.456c-.385 6.216.804 12.611 3.769 18.589l22.771 45.911c2.965 5.978 7.337 10.795 12.518 14.25 10.595 7.067 24.573 8.432 36.802 2.367l44.547-22.094c22.913-11.364 35.771-34.908 34.633-58.915-.436-9.179 4.477-17.777 12.708-21.859l32.822-16.279c1.879-.932 4.157-.165 5.089 1.715l.156.314c6.826 13.763 23.637 19.357 37.358 12.383 13.589-6.909 18.872-23.647 12.098-37.303l-13.389-27.001c-6.932-13.976-24.168-19.531-38.008-12.036-13.155 7.12-18.095 23.556-11.448 36.959.465.938.508 1.979.198 2.9s-.974 1.724-1.912 2.189l-32.822 16.279c-8.231 4.082-18.049 2.791-25.093-3.111-18.425-15.437-44.951-19.447-67.863-8.083l-44.547 22.094c-12.23 6.066-19.601 18.02-20.387 30.731zm208.099-71.167c-2.455-4.95-.426-10.974 4.524-13.429s10.974-.426 13.429 4.524l13.547 27.313c2.455 4.95.427 10.977-4.523 13.432s-10.975.423-13.431-4.527z" fill="#4e689b"/><path d="m189.924 117.726 44.547-22.094c22.913-11.364 49.438-7.354 67.863 8.083 7.044 5.902 16.862 7.193 25.093 3.111l32.822-16.279c.938-.465 1.602-1.268 1.912-2.189s.268-1.962-.198-2.9c-6.648-13.403-1.707-29.839 11.448-36.959 13.84-7.495 31.076-1.94 38.008 12.036l6.775 13.659-15.829 7.851-6.775-13.659c-2.455-4.95-8.479-6.98-13.429-4.524-4.95 2.455-6.98 8.479-4.524 13.429l6.775 13.66-199.717 99.055-11.387-22.958c-2.965-5.978-4.154-12.374-3.769-18.589.785-12.714 8.156-24.668 20.385-30.733z" fill="#374c81"/><path d="m173.307 167.046 22.771 45.911c2.965 5.978 7.337 10.795 12.518 14.25l73.141-36.276c15.645-7.76 25.218-24.047 24.39-41.492-.004-.08-.007-.158-.011-.238-.253-6.064-1.778-11.921-4.411-17.231-2.631-5.304-6.368-10.063-11.038-13.933-.066-.053-.129-.108-.195-.161-13.389-11.218-32.148-13.454-47.794-5.694l-73.141 36.276c-.384 6.214.806 12.61 3.77 18.588z" fill="#374c81"/><path d="m169.538 148.456 73.141-36.276c15.645-7.76 34.405-5.524 47.794 5.694.066.053.129.108.195.161 4.67 3.87 8.407 8.629 11.038 13.933l-117.011 58.035-11.387-22.958c-2.965-5.977-4.155-12.373-3.77-18.589z" fill="#323b5a"/></g></g></g></g></svg>