<svg id="Capa_1" enable-background="new 0 0 512 512" height="512" viewBox="0 0 512 512" width="512" xmlns="http://www.w3.org/2000/svg"><g><g><path d="m273.482 511.39h-35.103v.011c-126.622-8.555-230.161-110.111-237.916-240.146-8.426-141.128 99.156-262.374 240.284-270.79 141.128-8.426 262.374 99.156 270.79 240.284 8.383 140.382-98.025 261.094-238.055 270.641z" fill="#374c81"/><g><g><path d="m511.995 256.002c0 87.113-43.519 164.072-109.993 210.311-36.895 25.653-80.841 41.855-128.36 45.087v-.011h-35.263v.011c-47.519-3.232-91.486-19.434-128.382-45.087-66.473-46.239-109.993-123.198-109.993-210.311 0-46.218 12.245-89.566 33.674-126.995 44.127 77.065 127.166 129 222.321 129s178.205-51.935 222.321-129c21.43 37.429 33.675 80.777 33.675 126.995z" fill="#323b5a"/></g></g></g><g><g><g><path d="m273.642 258.424v252.966c-5.824.405-11.701.608-17.632.608h-.01c-5.92 0-11.797-.203-17.621-.608v-252.966z" fill="#fff"/><path d="m273.642 258.424v252.966c-5.824.405-11.701.608-17.632.608v-253.574z" fill="#d1f6ff"/></g><g><g><path d="m448.809 245.296h-96.402v63.967c0 20.767-8.255 40.689-22.94 55.375l-73.472 73.461v-96.402h-63.967c-20.767 0-40.689-8.255-55.375-22.94l-73.461-73.461h96.402v-63.979c0-11.296 2.444-22.343 7.039-32.423 3.852-8.458 9.201-16.24 15.902-22.94l73.461-73.472v96.401h63.979c.327 0 .653 0 .98.011 20.406.248 39.923 8.469 54.384 22.929z" fill="#ffee73"/><path d="m166.631 148.895c-4.595 10.079-7.039 21.127-7.039 32.423v63.979h96.402z" fill="#ffe131"/><path d="m448.809 245.296h-192.815v-96.413h63.979c11.307 0 22.355 2.444 32.434 7.05 8.458 3.84 16.24 9.201 22.929 15.891z" fill="#00e8e9"/><path d="m352.407 155.933-96.413 89.363v-96.413h63.979c11.307 0 22.355 2.444 32.434 7.05z" fill="#00d3cd"/><path d="m352.407 245.296v63.967c0 11.296-2.444 22.343-7.05 32.434-3.84 8.458-9.19 16.24-15.891 22.94l-73.472 73.461v-192.802z" fill="#5cbdff"/><path d="m352.407 245.296v63.967c0 11.296-2.444 22.343-7.05 32.434l-89.363-96.402h96.413z" fill="#24b1ff"/><path d="m255.994 245.296v96.402h-63.967c-11.296 0-22.344-2.444-32.434-7.039-8.458-3.852-16.24-9.201-22.94-15.902l-73.461-73.461z" fill="#ff85ce"/><path d="m255.994 245.296v96.402h-63.967c-11.296 0-22.344-2.444-32.434-7.039z" fill="#ff64b9"/></g><g><circle cx="256.005" cy="245.292" fill="#fff" r="36.245"/></g><g><circle cx="256.005" cy="245.292" fill="#323b5a" r="13.329"/></g></g></g></g></g></svg>