<svg id="Capa_1" enable-background="new 0 0 512 512" height="512" viewBox="0 0 512 512" width="512" xmlns="http://www.w3.org/2000/svg"><g><g><circle cx="256" cy="256" fill="#5cbdff" r="256"/><g><g><path d="m512 256c0 87.11-43.52 164.07-110 210.31-41.41 28.8-91.73 45.69-146 45.69s-104.59-16.89-146-45.69c-66.48-46.24-110-123.2-110-210.31 0-46.22 12.25-89.57 33.68-127 44.12 77.07 127.16 129 222.32 129s178.21-51.93 222.32-129c21.43 37.43 33.68 80.78 33.68 127z" fill="#24b1ff"/></g></g></g><g><g><g><g><path d="m274.912 347.125-9.451 15.915-9.461 15.925-72.789 122.539c-5.344-1.579-10.603-3.328-15.797-5.248-5.163-1.899-10.251-3.968-15.243-6.187l84.917-142.944z" fill="#374c81"/><path d="m274.912 347.125-9.451 15.915-9.461 15.925-72.789 122.539c-5.344-1.579-10.603-3.328-15.797-5.248l79.136-133.216 9.45-15.915z" fill="#323b5a"/></g><g><path d="m359.829 490.069c-4.992 2.219-10.08 4.288-15.243 6.187-5.195 1.92-10.453 3.669-15.797 5.248l-72.789-122.539-9.451-15.925-9.461-15.915h37.824z" fill="#374c81"/><path d="m344.587 496.256c-5.195 1.92-10.453 3.669-15.797 5.248l-72.79-122.539-9.451-15.925-9.461-15.915h18.912l9.461 15.915z" fill="#323b5a"/></g></g><path d="m463.221 156.119v208.267c0 9.739-7.883 17.621-17.621 17.621h-379.2c-9.739 0-17.621-7.883-17.621-17.621v-208.267c0-9.728 7.883-17.621 17.621-17.621h379.2c9.739-.001 17.621 7.893 17.621 17.621z" fill="#ff85ce"/><path d="m463.221 156.119v208.267c0 9.739-7.883 17.621-17.621 17.621h-189.6v-243.51h189.6c9.739 0 17.621 7.894 17.621 17.622z" fill="#ff64b9"/><g><path d="m463.221 121.237v208.267c0 9.739-7.883 17.621-17.621 17.621h-379.2c-9.739 0-17.621-7.883-17.621-17.621v-208.267c0-9.728 7.883-17.621 17.621-17.621h379.2c9.739 0 17.621 7.893 17.621 17.621z" fill="#ff64b9"/><path d="m463.221 121.237v208.267c0 9.739-7.883 17.621-17.621 17.621h-189.6v-243.509h189.6c9.739 0 17.621 7.893 17.621 17.621z" fill="#ff48a4"/><path d="m463.221 121.237v186.581c0 9.728-7.883 17.621-17.621 17.621h-379.2c-9.739 0-17.621-7.893-17.621-17.621v-186.581c0-9.728 7.883-17.621 17.621-17.621h379.2c9.739 0 17.621 7.893 17.621 17.621z" fill="#ff85ce"/><path d="m463.221 121.237v186.581c0 9.728-7.883 17.621-17.621 17.621h-189.6v-221.823h189.6c9.739 0 17.621 7.893 17.621 17.621z" fill="#ff64b9"/><path d="m424.256 183.573v132.192c0 5.344-4.331 9.675-9.675 9.675h-317.162c-5.344 0-9.675-4.331-9.675-9.675v-132.192c0-5.344 4.331-9.675 9.675-9.675h317.163c5.343.001 9.674 4.331 9.674 9.675z" fill="#ff64b9"/><path d="m424.256 183.573v132.192c0 5.344-4.331 9.675-9.675 9.675h-158.581v-151.541h158.581c5.344 0 9.675 4.33 9.675 9.674z" fill="#ff48a4"/><g><path d="m87.744 204.741v111.023c0 5.344 4.332 9.676 9.676 9.676h46.41v-130.375h-46.41c-5.344 0-9.676 4.332-9.676 9.676z" fill="#fff"/><path d="m143.829 195.065h56.085v130.374h-56.085z" fill="#d1f6ff"/><path d="m368.171 195.065v130.374h46.41c5.344 0 9.676-4.332 9.676-9.676v-111.022c0-5.344-4.332-9.676-9.676-9.676z" fill="#d1f6ff"/><path d="m199.915 195.065h56.085v130.374h-56.085z" fill="#fff"/><path d="m256 195.065h56.085v130.374h-56.085z" fill="#d1f6ff"/><path d="m312.085 195.065h56.085v130.374h-56.085z" fill="#fff"/></g><path d="m297.643 132.768v12.331c0 6.923-5.621 12.544-12.555 12.544h-58.176c-6.933 0-12.555-5.621-12.555-12.544v-12.331c0-6.933 5.621-12.555 12.555-12.555h58.176c6.933 0 12.555 5.622 12.555 12.555z" fill="#fff"/><g fill="#ffee73"><path d="m102.007 132.543h-6.163c-3.404 0-6.163-2.759-6.163-6.163 0-3.404 2.759-6.163 6.163-6.163h6.163c3.404 0 6.163 2.759 6.163 6.163 0 3.404-2.759 6.163-6.163 6.163z"/><path d="m102.007 152.284h-6.163c-3.404 0-6.163-2.759-6.163-6.163 0-3.404 2.759-6.163 6.163-6.163h6.163c3.404 0 6.163 2.759 6.163 6.163 0 3.404-2.759 6.163-6.163 6.163z"/></g><g fill="#00e8e9"><path d="m128.113 132.543h-6.163c-3.404 0-6.163-2.759-6.163-6.163 0-3.404 2.759-6.163 6.163-6.163h6.163c3.404 0 6.163 2.759 6.163 6.163-.001 3.404-2.76 6.163-6.163 6.163z"/><path d="m128.113 152.284h-6.163c-3.404 0-6.163-2.759-6.163-6.163 0-3.404 2.759-6.163 6.163-6.163h6.163c3.404 0 6.163 2.759 6.163 6.163-.001 3.404-2.76 6.163-6.163 6.163z"/></g><g fill="#ffee73"><path d="m154.218 132.543h-6.163c-3.404 0-6.163-2.759-6.163-6.163 0-3.404 2.759-6.163 6.163-6.163h6.163c3.404 0 6.163 2.759 6.163 6.163 0 3.404-2.759 6.163-6.163 6.163z"/><path d="m154.218 152.284h-6.163c-3.404 0-6.163-2.759-6.163-6.163 0-3.404 2.759-6.163 6.163-6.163h6.163c3.404 0 6.163 2.759 6.163 6.163 0 3.404-2.759 6.163-6.163 6.163z"/></g></g></g><path d="m297.643 132.768v12.331c0 6.923-5.621 12.544-12.555 12.544h-29.088v-37.429h29.088c6.933-.001 12.555 5.621 12.555 12.554z" fill="#d1f6ff"/><g><path d="m160.697 195.068v79.136c0 6.339-5.14 11.474-11.474 11.474h-10.781c-6.333 0-11.474-5.135-11.474-11.474v-79.136z" fill="#374c81"/><path d="m160.697 195.068v79.136c0 6.339-5.14 11.474-11.474 11.474h-5.393v-90.61z" fill="#323b5a"/></g><g><path d="m272.869 195.068v79.136c0 6.339-5.14 11.474-11.474 11.474h-10.781c-6.333 0-11.474-5.135-11.474-11.474v-79.136z" fill="#374c81"/><path d="m272.869 195.068v79.136c0 6.339-5.14 11.474-11.474 11.474h-5.393v-90.61z" fill="#323b5a"/></g><g><path d="m385.038 195.068v79.136c0 6.339-5.14 11.474-11.474 11.474h-10.781c-6.333 0-11.474-5.135-11.474-11.474v-79.136z" fill="#374c81"/><path d="m385.038 195.068v79.136c0 6.339-5.14 11.474-11.474 11.474h-5.393v-90.61z" fill="#323b5a"/></g></g></g></svg>