<svg id="Capa_1" enable-background="new 0 0 512 512" height="512" viewBox="0 0 512 512" width="512" xmlns="http://www.w3.org/2000/svg"><g><g><circle cx="256" cy="256" fill="#5cbdff" r="256"/><g><g><path d="m512 256c0 87.115-43.52 164.075-109.995 210.315-41.418 28.8-91.733 45.685-146.005 45.685-41.685 0-81.024-9.963-115.797-27.637-8.416-4.267-16.565-8.992-24.405-14.144-10.464-33.077-35.669-59.424-68.245-71.349l-5.301-1.941c-7.744-11.723-14.549-24.117-20.299-37.077-14.113-31.745-21.953-66.881-21.953-103.852 0-46.219 12.245-89.568 33.685-126.997 38.336 66.976 106.08 114.965 185.621 126.389 8.544 1.227 17.227 2.038 26.027 2.389 3.541.15 7.093.224 10.667.224 95.157 0 178.208-51.936 222.315-129.003 21.44 37.43 33.685 80.779 33.685 126.998z" fill="#24b1ff"/></g></g></g><g><g><g><path d="m124.286 427.302c-10.705 10.706-28.172 10.815-38.997-.01-11.145-11.145-10.706-29.341.979-39.926l149.739-135.877 25.086 25.086-135.868 149.748c-.3.34-.62.659-.939.979z" fill="#374c81"/><path d="m124.286 427.302c-10.705 10.706-28.172 10.815-38.997-.01l163.26-163.26 12.543 12.543-135.867 149.748c-.3.34-.62.659-.939.979z" fill="#323b5a"/><g><g><path d="m395.591 290.737c23.988 9.947 51.491-1.458 61.427-25.436 7.5-18.106 2.846-38.219-10.196-51.261-4.244-4.244-9.367-7.729-15.25-10.176 23.988-9.926 35.372-37.43 25.436-61.427-2.437-5.892-5.932-11.005-10.176-15.25-13.033-13.032-33.145-17.686-51.241-10.196 9.927-23.988-1.458-51.491-25.446-61.417-18.106-7.5-38.209-2.856-51.251 10.186-4.244 4.244-7.75 9.367-10.176 15.249-9.947-23.988-37.44-35.382-61.427-25.436-5.892 2.437-11.005 5.932-15.249 10.176-13.042 13.043-17.686 33.145-10.196 51.241-23.988-9.926-51.491 1.458-61.427 25.456-7.5 18.106-2.856 38.209 10.196 51.261 4.234 4.234 9.367 7.73 15.24 10.166-23.988 9.927-35.372 37.43-25.436 61.427 2.437 5.872 5.932 11.005 10.166 15.24 13.042 13.043 33.155 17.696 51.261 10.196-9.937 23.998 1.458 51.491 25.436 61.427 18.106 7.5 38.219 2.846 51.261-10.196 4.234-4.234 7.74-9.358 10.166-15.24 9.947 23.988 37.45 35.372 61.437 25.446 5.882-2.447 11.005-5.932 15.25-10.176 13.042-13.041 17.695-33.154 10.195-51.26z" fill="#ffee73"/><path d="m385.395 341.998c-4.244 4.244-9.368 7.73-15.25 10.176-23.988 9.927-51.491-1.458-61.437-25.446-2.427 5.882-5.932 11.005-10.166 15.24-13.042 13.043-33.155 17.696-51.261 10.196-23.978-9.937-35.372-37.43-25.436-61.427l173.746-173.746c18.096-7.49 38.209-2.836 51.241 10.196 4.244 4.244 7.74 9.358 10.176 15.25 9.937 23.998-1.448 51.501-25.436 61.427 5.882 2.447 11.005 5.932 15.25 10.176 13.042 13.042 17.696 33.155 10.196 51.261-9.937 23.978-37.44 35.383-61.427 25.436 7.5 18.106 2.847 38.219-10.196 51.261z" fill="#ffe131"/><circle cx="308.715" cy="203.869" fill="#ffe131" r="122.857"/><path d="m395.588 116.996-173.746 173.746c47.979 47.978 125.767 47.979 173.746 0 47.978-47.979 47.978-125.768 0-173.746z" fill="#fcbf12"/><path d="m368.877 264.023c-33.235 33.235-87.103 33.235-120.328.01s-33.225-87.093.01-120.328c33.225-33.225 87.093-33.225 120.318 0 33.226 33.225 33.226 87.093 0 120.318z" fill="#fff"/><path d="m368.877 264.023c-33.235 33.235-87.103 33.235-120.328.01l120.328-120.328c33.226 33.225 33.226 87.093 0 120.318z" fill="#d1f6ff"/></g><g><path d="m321.31 174.047c-6.71 6.71-17.589 6.71-24.299 0s-6.71-17.589 0-24.299 17.589-6.71 24.299 0c6.711 6.71 6.711 17.589 0 24.299z" fill="#374c81"/><circle cx="350.69" cy="203.427" fill="#323b5a" r="17.182"/></g><path d="m342.951 251.239c-22.5 22.5-59.11 22.499-81.61 0-22.49-22.49-22.49-59.101.01-81.6 4.135-4.135 10.845-4.135 14.98 0 4.135 4.134 4.135 10.845 0 14.98-14.241 14.241-14.241 37.41-.01 51.641 14.241 14.241 37.409 14.241 51.65 0 4.135-4.135 10.835-4.145 14.98 0 4.135 4.134 4.135 10.845 0 14.979z" fill="#5cbdff"/><path d="m342.951 251.239c-22.5 22.5-59.11 22.499-81.61 0l14.98-14.98c14.241 14.241 37.409 14.241 51.65 0 4.135-4.135 10.835-4.145 14.98 0 4.135 4.135 4.135 10.846 0 14.98z" fill="#24b1ff"/></g><path d="m119.093 467.2c-1.067 1.067-2.165 2.08-3.296 3.019-1.952-1.269-3.894-2.571-5.803-3.904-5.387-3.744-10.613-7.691-15.691-11.85h-.01c-16.875-13.75-31.958-29.632-44.853-47.211-2.475-3.381-4.875-6.816-7.189-10.325.981-1.173 2.027-2.325 3.136-3.435 20.352-20.352 53.333-20.363 73.707 0h.01c20.352 20.362 20.341 53.365-.011 73.706z" fill="#00e8e9"/><path d="m119.093 467.2c-1.067 1.067-2.165 2.08-3.296 3.019-1.952-1.269-3.894-2.571-5.803-3.904-5.387-3.744-10.613-7.691-15.691-11.85h-.01c-6.624-5.397-12.981-11.125-19.019-17.163l43.819-43.808h.01c20.353 20.362 20.342 53.365-.01 73.706z" fill="#00d3cd"/></g></g></g></g></svg>