<svg id="Capa_1" enable-background="new 0 0 512 512" height="512" viewBox="0 0 512 512" width="512" xmlns="http://www.w3.org/2000/svg"><g><g><path d="m512 256c0 83.232-39.712 157.173-101.227 203.936h-.011c-12.032-1.931-23.883 4.331-29.088 15.339l-2.432 5.152v.011c-36.554 20.117-78.559 31.562-123.242 31.562-75.573 0-143.499-32.747-190.368-84.821l.021-.011-2.304-13.216c-2.741-15.659-14.592-28.139-30.08-31.68l-.011.011c-21.173-37.259-33.258-80.363-33.258-126.283 0-141.387 114.613-256 256-256s256 114.613 256 256z" fill="#ffee73"/><g><g><path d="m512 256c0 83.221-39.723 157.173-101.227 203.936-12.032-1.931-23.893 4.331-29.099 15.339l-2.432 5.152c-36.554 20.138-78.549 31.573-123.242 31.573-41.685 0-81.024-9.963-115.797-27.637-10.507-5.323-20.597-11.371-30.208-18.048-5.387-3.744-10.613-7.691-15.691-11.851h-.01c-10.24-8.341-19.819-17.472-28.64-27.296l-2.304-13.216c-2.741-15.659-14.592-28.139-30.08-31.68-4.128-7.253-7.915-14.741-11.317-22.421-14.113-31.744-21.953-66.88-21.953-103.851 0-46.219 12.245-89.568 33.685-126.997 19.232 33.6 45.867 62.421 77.675 84.245 6.261 4.288 12.715 8.32 19.36 12.043 5.728 3.221 11.584 6.229 17.568 9.003 14.069 6.549 28.832 11.84 44.139 15.744h.01c8.79 2.251 17.75 4.043 26.869 5.355 8.544 1.227 17.227 2.037 26.027 2.389 3.541.149 7.093.224 10.667.224 6.315 0 12.576-.224 18.773-.683 7.52-.544 14.955-1.419 22.283-2.603 7.52-1.205 14.923-2.741 22.208-4.597 16.981-4.309 33.28-10.325 48.715-17.845l.011-.011c46.325-22.571 84.832-58.72 110.325-103.264 21.44 37.429 33.685 80.778 33.685 126.997z" fill="#ffe131"/></g></g></g><g><g><g><g><g><path d="m297.387 155.307c-2.048 9.067-18.15 8.635-23.067 17.083-3.829 6.581 4.337 21.872-.709 27.13-8.555 8.928-18.677 15.904-29.653 20.736-3.115 1.376-16.536-9.774-19.586-8.292-14.069 6.827-17.139 27.406-29.726 36.452-.747.533-1.482 1.067-2.219 1.621-9.536 6.976-18.603 14.571-27.136 22.731-10.219 9.76-19.691 20.331-28.32 31.605-8.139 10.624-15.509 21.888-22.037 33.707l-49.28 89.088c-5.739-6.357-11.136-13.003-16.213-19.915-5.856-7.989-11.264-16.32-16.171-24.981l41.653-68.224c6.944-11.349 12.96-23.125 18.069-35.253 5.525-13.088 9.984-26.56 13.376-40.299 2.059-8.32 3.723-16.757 4.992-25.248.629-4.096 1.152-8.213 1.579-12.341.674-6.402 13.19-11.069 13.42-17.522.324-9.071-11.854-19.947-12.396-29.059-.214-3.541-.491-7.083-.832-10.635-1.152-11.765-.064-23.829 3.413-35.509 2.187-7.392 23.376.051 27.525-6.872 4.79-7.979-7.419-29.672-.848-35.645 17.387-15.797 40.107-24.32 63.2-24.32 15.723 0 31.637 3.947 46.165 12.267l.576.331c.01.011.01.011.021.011 36.161 21.033 52.95 62.601 44.204 101.353z" fill="#f99762"/><path d="m297.387 155.307c-2.048 9.067-16.613 9.019-21.53 17.467-3.829 6.581 2.8 21.487-2.246 26.746-8.555 8.928-32.49 4.923-43.476 9.755-18.315 8.075-21.75 29.061-37.697 40.763-.01 0-.01 0-.01 0-31.712 23.264-58.229 53.216-77.493 88.043l-49.28 89.088c-5.739-6.357-11.136-13.003-16.213-19.915-3.371-4.608-6.603-9.323-9.664-14.155l43.947-73.931c18.443-31.04 34.645-62.709 46.997-93.877 8.117-20.437 14.56-40.661 18.923-60.363 2.176-9.845 5.739-20.469 10.592-31.339 3.061-6.891 6.048-14.219 10.144-21.173 4.725-8.021 9.824-15.445 15.115-22.176 23.488-29.867 51.413-45.419 67.424-36.448l.256.149s0 0 .011.011c36.168 21.035 52.957 62.603 44.2 101.355z" fill="#ef7f4d"/><path d="m297.387 155.307c-2.048 9.067-23.52 6.773-28.437 15.221-3.829 6.581 9.706 23.734 4.661 28.992-8.555 8.928-18.667 15.904-29.653 20.736-3.118 1.375-6.205 2.805-9.26 4.29-7.82 3.802-22.863.531-30.245 5.031-6.676 4.07-5.732 15.849-12.016 20.46-.01 0-.01 0-.01 0-31.712 23.264-58.229 53.216-77.493 88.043l-49.28 89.088c-5.739-6.357-11.136-13.003-16.213-19.915-.32-.437-.64-.885-.96-1.333l99.808-171.627 104.884-180.352c36.171 21.035 52.971 62.614 44.214 101.366z" fill="#e56e3e"/><path d="m286.991 181.737c-3.829 6.584-8.336 12.523-13.38 17.785l-157.067-91.342c2.192-7.39 5.347-14.625 9.496-21.55 4.789-7.985 10.606-14.993 17.191-20.969l154.162 89.653c-2.047 9.061-5.486 17.969-10.402 26.423z" fill="#00e8e9"/><path d="m286.991 181.737c-3.829 6.584-8.336 12.523-13.38 17.785l-113.381-65.937c3.064-6.883 6.055-14.213 10.149-21.17 4.729-8.02 9.825-15.447 15.116-22.177l111.898 65.074c-2.047 9.063-5.486 17.971-10.402 26.425z" fill="#00d3cd"/></g><path d="m286.991 181.737c-3.829 6.584-8.336 12.523-13.38 17.785l-78.536-45.673 25.222-43.371 77.096 44.835c-2.047 9.062-5.486 17.97-10.402 26.424z" fill="#00c1b7"/></g><path d="m165.296 272.768c-10.228 9.762-19.701 20.328-28.321 31.6l-43.976-25.574c5.52-13.084 9.978-26.557 13.368-40.296z" fill="#5cbdff"/><path d="m165.296 272.768c-10.228 9.762-19.701 20.328-28.321 31.6l-33.858-19.69c6.585-12.464 12.726-24.959 18.318-37.417z" fill="#24b1ff"/><path d="m165.296 272.768c-10.228 9.762-19.701 20.328-28.321 31.6l-21.997-12.792 20.89-35.922z" fill="#0098ff"/><path d="m234.699 224.543c-14.065 6.835-27.459 14.828-40.058 23.876l-81.701-47.513c1.619-15.4 1.957-30.979 1.02-46.578z" fill="#fff"/><path d="m234.699 224.543c-5.323 2.581-10.545 5.335-15.666 8.252-.803.448-1.598.909-2.396 1.376-.821.478-1.642.957-2.454 1.448-.055.025-.104.053-.147.085-.805.479-1.614.965-2.407 1.451-.711.429-1.41.865-2.109 1.3-5.078 3.161-10.037 6.481-14.881 9.964l-59.527-34.619c4.947-13.465 9.132-26.815 12.421-39.948z" fill="#d1f6ff"/><path d="m234.699 224.543c-5.323 2.581-10.545 5.335-15.666 8.252-.803.448-1.598.909-2.396 1.376-.827.475-1.642.957-2.454 1.448-.055.025-.104.053-.147.085-.805.479-1.61.958-2.407 1.451-.705.432-1.41.865-2.109 1.3-5.078 3.161-10.037 6.481-14.881 9.964l-40.775-23.713 20.499-35.25z" fill="#b3f4ff"/></g><g><g><g><path d="m410.773 459.936c-2.87 2.187-5.803 4.309-8.768 6.379-2.197 1.525-4.427 3.029-6.677 4.48-2.944 1.909-5.92 3.765-8.949 5.547-2.357 1.397-4.736 2.763-7.136 4.085l-5.675-17.717c-3.125-9.739-6.955-19.168-11.445-28.235-4.843-9.792-10.443-19.157-16.736-28.032-5.653-7.979-11.872-15.573-18.581-22.709-3.884-4.139 4.492-9.898.276-13.73-4.629-4.208-21.882-6.457-26.878-10.27-2.165-1.664-4.373-3.275-6.603-4.864-7.435-5.248-13.909-11.936-18.965-19.829-3.2-4.992 3.113-10.464 1.161-16.352-2.24-6.805-12.328-13.717-12.499-20.555-.373-14.571 3.755-28.789 11.477-40.811 8.341-12.992 20.875-23.403 36.448-28.896l.501-.171c0-.011 0-.011.011-.011 19.264-6.645 39.435-4.608 56.245 4.032 9.717 4.981 18.315 12.171 24.971 21.173 4.245 5.739-9.455 16.688-7.001 23.792 1.909 5.536 20.26 6.683 20.782 12.262.896 9.472-.128 18.859-2.827 27.68-.768 2.507-1.493 5.024-2.154 7.541-1.981 7.444-15.1 13.185-16.247 20.749-.644 4.25 10.398 10.293 10.018 14.568-.875 9.76-1.077 19.552-.576 29.323.544 10.859 1.931 21.675 4.16 32.363 2.101 10.08 4.949 20.032 8.555 29.771z" fill="#f99762"/><path d="m410.773 459.936c-2.87 2.187-5.803 4.309-8.768 6.379-2.197 1.525-4.427 3.029-6.677 4.48-2.944 1.909-5.92 3.765-8.949 5.547l-5.408-16.181c-14.571-43.595-33.237-84.469-56.661-115.872-4.64-6.219-9.035-13.621-12.928-21.92-2.474-5.237-5.237-10.667-7.232-16.544-2.294-6.784-4.053-13.483-5.312-19.936-2.218-11.435-2.773-22.123-1.781-31.168 1.493-13.643 6.464-23.499 14.443-26.389l.224-.085h.011c19.275-6.645 39.445-4.619 56.256 4.021 9.717 4.992 18.304 12.181 24.96 21.184 4.245 5.739-6.779 12.663-4.325 19.778 1.909 5.536 17.584 10.697 18.107 16.275.896 9.472-.128 18.859-2.827 27.68-.836 2.73-1.616 5.472-2.338 8.225-1.498 5.709-16.838 12.497-17.847 18.282s12.312 10.568 11.791 16.399c-2.753 30.815 1.313 62.043 12.149 91.409z" fill="#ef7f4d"/><path d="m410.773 459.936c-2.87 2.187-5.803 4.309-8.768 6.379-2.197 1.525-4.427 3.029-6.677 4.48l-76.064-220.672-7.541-21.877c19.275-6.645 39.445-4.619 56.267 4.021 9.717 4.992 18.304 12.181 24.96 21.184 4.245 5.739-4.549 13.555-2.096 20.67 1.909 5.536 15.354 9.805 15.877 15.383.896 9.472-.128 18.859-2.827 27.68-.77 2.515-1.492 5.04-2.166 7.574-1.714 6.447-11.793 11.307-12.883 17.85-.886 5.32 7.112 12.311 6.638 17.667-2.72 30.755 1.351 61.916 12.165 91.223z" fill="#e56e3e"/><path d="m403.103 272.784c1.909 5.537 3.102 11.145 3.63 16.725l-132.096 45.533c-3.2-4.99-5.827-10.462-7.773-16.356-2.242-6.801-3.398-13.707-3.568-20.544l129.654-44.691c4.245 5.744 7.702 12.223 10.153 19.333z" fill="#00e8e9"/><path d="m403.103 272.784c1.909 5.537 3.102 11.145 3.63 16.725l-95.356 32.869c-2.468-5.242-5.231-10.667-7.224-16.546-2.293-6.783-4.055-13.481-5.314-19.943l94.109-32.439c4.247 5.745 7.704 12.224 10.155 19.334z" fill="#00d3cd"/></g><path d="m403.103 272.784c1.909 5.537 3.102 11.145 3.63 16.725l-66.051 22.768-12.573-36.477 64.84-22.35c4.246 5.745 7.703 12.224 10.154 19.334z" fill="#00c1b7"/></g><path d="m394.944 389.366c.543 10.859 1.934 21.683 4.164 32.365l-36.985 12.749c-4.843-9.787-10.446-19.153-16.74-28.03z" fill="#5cbdff"/><path d="m394.944 389.366c.543 10.859 1.934 21.683 4.164 32.365l-28.475 9.815c-3.947-10.096-8.135-19.95-12.577-29.465z" fill="#24b1ff"/><path d="m394.944 389.366c.543 10.859 1.934 21.683 4.164 32.365l-18.5 6.377-10.414-30.211z" fill="#0098ff"/><path d="m401.745 324.733c-3.089 11.622-5.166 23.436-6.23 35.316l-68.712 23.685c-8.151-8.681-17.05-16.706-26.602-23.999z" fill="#fff"/><path d="m401.745 324.733c-1.172 4.396-2.193 8.819-3.069 13.266-.143.693-.274 1.387-.403 2.086-.134.718-.268 1.436-.39 2.156-.013.044-.021.087-.024.128-.125.71-.249 1.424-.365 2.13-.108.629-.205 1.255-.303 1.881-.711 4.544-1.271 9.099-1.677 13.669l-50.065 17.257c-5.352-9.646-11.021-18.79-17.013-27.304z" fill="#d1f6ff"/><path d="m401.745 324.733c-1.172 4.396-2.193 8.819-3.069 13.266-.143.693-.274 1.387-.403 2.086-.139.72-.268 1.436-.39 2.156-.013.044-.021.087-.024.128-.125.71-.251 1.419-.365 2.13-.103.628-.205 1.255-.303 1.881-.711 4.544-1.271 9.099-1.677 13.669l-34.293 11.821-10.219-29.646 49.817-17.172z" fill="#b3f4ff"/></g></g></g></g></svg>