<svg id="Capa_1" enable-background="new 0 0 512 512" height="512" viewBox="0 0 512 512" width="512" xmlns="http://www.w3.org/2000/svg"><g><path d="m512 256c0 93.941-50.592 176.053-126.016 220.597l-1.675-.139c-17.92-1.461-35.243 6.859-45.291 21.76l.011.011c-26.037 8.928-53.962 13.771-83.029 13.771-141.387 0-256-114.613-256-256s114.613-256 256-256 256 114.613 256 256z" fill="#ffee73"/><g><path d="m512 256c0 87.115-43.52 164.075-109.995 210.315-5.205 3.616-10.549 7.051-16.021 10.283h-.011l-1.664-.139c-17.92-1.461-35.243 6.859-45.291 21.76-26.037 8.938-53.951 13.781-83.018 13.781-54.272 0-104.587-16.885-146.005-45.685-66.475-46.24-109.995-123.2-109.995-210.315 0-30.379 5.291-59.531 15.008-86.56.523-1.461 1.056-2.912 1.611-4.363 1.643-4.32 3.392-8.587 5.269-12.779.629-1.429 1.269-2.848 1.931-4.256 1.237-2.667 2.517-5.301 3.861-7.915 1.899-3.765 3.904-7.477 5.995-11.125 4.363 7.627 9.109 14.997 14.219 22.101 5.013 6.997 10.379 13.728 16.075 20.171 7.861 8.907 16.331 17.269 25.344 25.003 5.973 5.141 12.171 9.995 18.603 14.549 41.803 29.717 92.907 47.179 148.085 47.179 30.891 0 60.512-5.472 87.936-15.509 6.219-2.272 12.331-4.789 18.315-7.52.597-.267 1.184-.544 1.781-.821 6.443-2.997 12.747-6.261 18.88-9.781 39.68-22.688 72.704-55.701 95.413-95.371 21.429 37.429 33.674 80.778 33.674 126.997z" fill="#ffe131"/></g><g><g><path d="m417.474 160.341-251.079 251.079c-3.762 3.762-9.48 4.384-13.864 1.837-.874-.489-1.689-1.096-2.429-1.837-4.503-4.503-4.503-11.79 0-16.293l251.079-251.079c4.503-4.503 11.79-4.503 16.293 0 4.503 4.502 4.504 11.79 0 16.293z" fill="#374c81"/><path d="m417.474 160.341-251.079 251.079c-3.762 3.762-9.48 4.384-13.864 1.837l-1.496-2.77 266.439-266.439c4.503 4.502 4.504 11.79 0 16.293z" fill="#323b5a"/><path d="m161.966 469.824c-9.109 9.109-24.692 2.651-24.692-10.235v-35.341l-35.327.015c-4.177 0-7.673-1.629-10.191-4.147-5.258-5.258-6.221-14.397-.059-20.559 18.782-18.782 44.258-29.328 70.816-29.343l28.78.015.015 28.78c-.015 13.286-2.651 26.291-7.628 38.319-4.991 12.04-12.323 23.105-21.714 32.496z" fill="#ff85ce"/><g><path d="m161.966 469.824c-9.109 9.109-24.692 2.651-24.692-10.235v-35.341l54.02-54.02.015 28.78c-.015 13.286-2.651 26.291-7.628 38.319-4.992 12.041-12.324 23.106-21.715 32.497z" fill="#ff64b9"/></g><path d="m472.975 151.439c-9.568 9.568-23.758 11.642-35.371 6.31l-6.902 6.902c-6.932 6.932-18.189 6.932-25.121 0l-7.762-7.761c-6.947-6.947-6.932-18.189 0-25.121l6.903-6.902c-5.332-11.613-3.259-25.803 6.31-35.371z" fill="#ff85ce"/></g><path d="m362.325 488.939c-.875.405-1.749.8-2.624 1.184-2.891 1.291-5.813 2.528-8.768 3.691-1.333.544-2.667 1.056-4.011 1.568-1.365.512-2.741 1.024-4.128 1.515-.075.032-.149.053-.224.085-1.184.427-2.368.843-3.552 1.237l-304.959-304.95c-4.491-4.501-4.48-11.808 0-16.288l.021-.021c4.523-4.491 11.776-4.491 16.277.021l11.392 11.392z" fill="#fff"/><path d="m350.933 493.813c-1.333.544-2.667 1.056-4.011 1.568-1.365.512-2.741 1.024-4.128 1.515-.075.032-.149.053-.224.085-1.184.427-2.368.843-3.552 1.237l-304.959-304.949c-4.491-4.501-4.48-11.808 0-16.288l.021-.021 22.432 22.421z" fill="#d1f6ff"/><g><path d="m388.235 472.491c-.885 1.312-1.632 2.688-2.251 4.107-13.632 8.053-28.075 14.869-43.179 20.309-2.496-16.267.96-33.397 10.699-47.829 46.24-68.651 37.248-161.024-21.397-219.669-58.624-58.624-150.997-67.616-219.648-21.387-26.635 17.952-62.411 14.56-85.067-8.085-8.117-8.117-8.171-21.237-.171-29.44l.171-.192c8.192-8.192 21.451-8.171 29.632 0 8.501 8.501 21.984 9.749 32.011 2.987 85.237-57.429 199.925-46.272 272.704 26.496 72.768 72.767 83.914 187.455 26.496 272.703z" fill="#e56e3e"/><path d="m370.859 460.768c-5.696 8.469-8.288 18.251-7.883 27.872-1.088.501-2.176 1.003-3.275 1.483-4.192 1.867-8.459 3.627-12.779 5.259-1.365.512-2.741 1.024-4.128 1.515-2.485-16.267.971-33.387 10.709-47.819 35.68-52.971 38.475-120.064 10.944-174.891-5.6-11.147-12.437-21.781-20.512-31.691-3.691-4.523-7.637-8.896-11.829-13.088-58.624-58.624-150.997-67.616-219.648-21.387-1.483 1.003-2.997 1.941-4.544 2.805-4.277 2.421-8.757 4.32-13.333 5.728-14.571 4.469-30.24 3.829-44.299-1.664-8.395-3.264-16.213-8.277-22.891-14.955-8.117-8.117-8.171-21.237-.171-29.44 8.587 8.373 15.008 14.603 15.008 14.603 4.683 4.683 10.165 8.181 16.032 10.432 6.923 2.667 14.411 3.616 21.781 2.773 3.125-.352 6.24-1.035 9.269-2.027 3.979-1.312 7.829-3.189 11.435-5.621 75.68-50.955 179.243-42.997 246.176 23.936 6.219 6.219 11.925 12.757 17.109 19.563 7.403 9.664 13.771 19.861 19.115 30.443 31.319 62.112 27.234 137.536-12.286 196.171z" fill="#ce5429"/></g><path d="m472.975 151.439c-9.568 9.568-23.758 11.642-35.371 6.31l-6.902 6.902c-6.932 6.932-18.189 6.932-25.121 0l-4.355-4.355 40.303-40.303z" fill="#ff64b9"/><path d="m437.604 157.748-6.902 6.902c-6.932 6.932-18.189 6.932-25.121 0l-7.762-7.761c-6.947-6.947-6.932-18.189 0-25.121l6.903-6.902z" fill="#ff64b9"/><path d="m437.604 157.748-6.902 6.902c-6.932 6.932-18.189 6.932-25.121 0l-4.355-4.355 19.463-19.463z" fill="#ff48a4"/></g></g></svg>