<svg id="Capa_1" enable-background="new 0 0 512 512" height="512" viewBox="0 0 512 512" width="512" xmlns="http://www.w3.org/2000/svg"><g><circle cx="256" cy="256" fill="#ffee73" r="256"/><g><g><path d="m512 256c0 87.11-43.52 164.07-110 210.31-41.41 28.8-91.73 45.69-146 45.69s-104.59-16.89-146-45.69c-66.48-46.24-110-123.2-110-210.31 0-46.22 12.25-89.57 33.68-127 44.12 77.07 127.16 129 222.32 129s178.21-51.93 222.32-129c21.43 37.43 33.68 80.78 33.68 127z" fill="#ffe131"/></g><path d="m440.46 433.5c-46.57 48.39-112 78.5-184.46 78.5s-137.89-30.11-184.46-78.5z" fill="#374c81"/><path d="m440.46 433.5c-46.57 48.39-112 78.5-184.46 78.5v-78.5z" fill="#323b5a"/></g><g><path d="m103.366 159.156h51.864v24.518h-51.864z" fill="#24b1ff"/><path d="m103.366 171.415h51.864v12.259h-51.864z" fill="#0098ff"/><path d="m410.103 273.552c0 26.584-21.53 48.114-48.114 48.114h-218.667c-13.292 0-25.309-5.383-34.031-14.083-8.7-8.7-14.083-20.74-14.083-34.031 0-26.562 21.531-48.114 48.114-48.114v-75.071c0-29.396 23.815-53.211 53.211-53.211h112.245c29.396 0 53.211 23.815 53.211 53.211v75.071c13.292 0 25.331 5.382 34.031 14.105 8.701 8.7 14.083 20.717 14.083 34.009z" fill="#00e8e9"/><path d="m410.103 273.552c0 26.584-21.53 48.114-48.114 48.114h-160.425c-13.292 0-25.309-5.383-34.031-14.083-8.7-8.7-14.083-20.74-14.083-34.031 0-26.562 21.53-48.114 48.114-48.114h160.425c13.292 0 25.331 5.382 34.031 14.105 8.701 8.7 14.083 20.717 14.083 34.009z" fill="#00d3cd"/><path d="m410.103 273.552c0 26.584-21.53 48.114-48.114 48.114h-106.027v-224.511h52.816c29.396 0 53.211 23.815 53.211 53.211v75.071c13.292 0 25.331 5.382 34.031 14.105 8.701 8.701 14.083 20.718 14.083 34.01z" fill="#00c6bc"/><path d="m313.897 161.308h128.276v47.367h-128.276z" fill="#4e689b"/><path d="m313.897 184.991h128.276v23.684h-128.276z" fill="#374c81"/><g><path d="m442.172 233.161c-13.08 0-23.684-10.604-23.684-23.684v-48.973c0-13.08 10.603-23.684 23.684-23.684 13.08 0 23.684 10.604 23.684 23.684v48.973c0 13.081-10.604 23.684-23.684 23.684z" fill="#00b2a5"/><path d="m442.172 233.161c-13.08 0-23.684-10.604-23.684-23.684v-48.973c0-13.08 10.603-23.684 23.684-23.684z" fill="#00c6bc"/></g><path d="m361.989 150.367v75.071h-218.667v-75.071c0-29.396 23.815-53.211 53.211-53.211h112.245c29.396-.001 53.211 23.815 53.211 53.211z" fill="#00d3cd"/><path d="m361.989 150.367v75.071h-160.425v-75.071c0-29.396 9.689-53.211 21.641-53.211h85.573c29.396-.001 53.211 23.815 53.211 53.211z" fill="#00c6bc"/><g><path d="m384.268 273.558h-256.633c-44.088 0-79.96 35.873-79.96 79.971 0 44.167 35.804 79.971 79.971 79.971h256.613c44.167 0 79.971-35.804 79.971-79.971-.001-44.098-35.874-79.971-79.962-79.971z" fill="#4e689b"/></g><path d="m464.229 353.529c0 44.167-35.804 79.971-79.971 79.971h-128.296v-159.942h128.306c44.088 0 79.961 35.873 79.961 79.971z" fill="#374c81"/><path d="m127.635 311.155h254.245v84.748h-254.245z" fill="#374c81"/><path d="m255.962 311.155h125.918v84.748h-125.918z" fill="#323b5a"/><ellipse cx="127.639" cy="353.527" fill="#6d88af" rx="42.373" ry="42.373" transform="matrix(.707 -.707 .707 .707 -212.597 193.8)"/><ellipse cx="212.384" cy="353.527" fill="#6d88af" rx="42.373" ry="42.373" transform="matrix(.23 -.973 .973 .23 -180.481 479.006)"/><g fill="#4e689b"><ellipse cx="297.13" cy="353.527" rx="42.373" ry="42.373" transform="matrix(.16 -.987 .987 .16 -99.427 590.191)"/><circle cx="127.639" cy="353.527" r="15.862"/><circle cx="212.384" cy="353.527" r="15.862"/></g><circle cx="297.13" cy="353.527" fill="#374c81" r="15.862"/><ellipse cx="381.876" cy="353.527" fill="#4e689b" rx="42.373" ry="42.373" transform="matrix(.707 -.707 .707 .707 -138.132 373.573)"/><circle cx="381.876" cy="353.527" fill="#374c81" r="15.862"/><path d="m361.989 150.368v75.071h-106.027v-128.282h52.816c29.396 0 53.211 23.815 53.211 53.211z" fill="#00b2a5"/><path d="m92.248 150.935c0 5.603-4.541 10.144-10.144 10.144s-10.144-4.541-10.144-10.144 4.541-10.144 10.144-10.144c5.602 0 10.144 4.541 10.144 10.144zm31.687 20.484c0-22.628-18.347-40.975-40.99-40.975-11.307 0-20.48 9.174-20.48 20.495 0 11.307 9.174 20.48 20.48 20.48-11.307 0-20.48 9.174-20.48 20.495 0 11.306 9.174 20.48 20.48 20.48 22.643.001 40.99-18.346 40.99-40.975zm-31.682 20.346c0 5.609-4.55 10.143-10.143 10.143-5.609 0-10.143-4.535-10.143-10.143 0-5.594 4.534-10.143 10.143-10.143 5.594 0 10.143 4.55 10.143 10.143z" fill="#008add"/><path d="m123.935 171.422c0-22.636-18.347-40.982-40.983-40.982-11.314 0-20.488 9.173-20.488 20.495 0 11.314 9.174 20.488 20.488 20.488h40.983zm-31.687-20.487c0 5.603-4.541 10.144-10.144 10.144s-10.144-4.541-10.144-10.144 4.541-10.144 10.144-10.144c5.602 0 10.144 4.541 10.144 10.144z" fill="#5cbdff"/></g></g></svg>