<svg id="Capa_1" enable-background="new 0 0 512 512" height="512" viewBox="0 0 512 512" width="512" xmlns="http://www.w3.org/2000/svg"><g><g><circle cx="256" cy="256" fill="#5cbdff" r="256"/><g><g><path d="m512 256c0 87.11-43.52 164.07-110 210.31-41.41 28.8-91.73 45.69-146 45.69s-104.59-16.89-146-45.69c-66.48-46.24-110-123.2-110-210.31 0-46.22 12.25-89.57 33.68-127 44.12 77.07 127.16 129 222.32 129s178.21-51.93 222.32-129c21.43 37.43 33.68 80.78 33.68 127z" fill="#24b1ff"/></g></g></g><g><g><ellipse cx="128.16" cy="340.135" fill="#374c81" rx="93.365" ry="93.365" transform="matrix(.707 -.707 .707 .707 -202.975 190.246)"/><path d="m128.16 246.77v186.73c51.564 0 93.365-41.801 93.365-93.365s-41.801-93.365-93.365-93.365z" fill="#323b5a"/><path d="m181.205 340.143c0 29.274-23.756 53.029-53.052 53.029-29.274 0-53.03-23.756-53.03-53.029 0-29.296 23.756-53.052 53.03-53.052 29.296 0 53.052 23.756 53.052 53.052z" fill="#fff"/><path d="m181.205 340.143c0 29.274-23.756 53.029-53.052 53.029v-106.081c29.296 0 53.052 23.756 53.052 53.052z" fill="#d1f6ff"/><circle cx="397.597" cy="353.893" fill="#374c81" r="79.607"/><path d="m397.598 274.286v159.214c43.966 0 79.607-35.641 79.607-79.607s-35.642-79.607-79.607-79.607z" fill="#323b5a"/><path d="m439.195 353.882c0 22.98-18.615 41.595-41.595 41.595s-41.595-18.615-41.595-41.595c0-22.958 18.615-41.573 41.595-41.573s41.595 18.615 41.595 41.573z" fill="#fff"/><path d="m439.195 353.882c0 22.98-18.615 41.595-41.595 41.595v-83.168c22.98 0 41.595 18.615 41.595 41.573z" fill="#d1f6ff"/><path d="m399.971 369.217c-.798.133-1.596.199-2.393.199-7.512 0-14.116-5.496-15.313-13.163l-31.618-232.96c-.598-4.232-4.077-7.269-8.155-7.269h-55.135c-8.576 0-15.512-6.936-15.512-15.512 0-8.554 6.936-15.512 15.512-15.512h55.135c19.435 0 36.143 14.515 38.847 33.75l31.596 232.783c1.307 8.465-4.499 16.376-12.964 17.684z" fill="#fff"/><path d="m399.971 369.217c-.798.133-1.596.199-2.393.199-7.512 0-14.116-5.496-15.313-13.163l-31.618-232.96c-.598-4.232-4.077-7.269-8.155-7.269h-55.135c-8.576 0-15.512-6.936-15.512-15.512h70.647c11.811 0 21.85 8.709 23.49 20.41l31.618 232.96z" fill="#d1f6ff"/><path d="m264.705 259.479c-3.08 3.9-7.623 5.939-12.21 5.939-3.368 0-6.737-1.086-9.573-3.324l-138.602-108.728c-6.737-5.274-7.911-15.025-2.615-21.762 5.296-6.736 15.047-7.911 21.784-2.615l138.579 108.706c6.736 5.297 7.911 15.047 2.637 21.784z" fill="#d1f6ff"/><path d="m264.705 259.479-163-127.874c5.296-6.736 15.047-7.911 21.784-2.615l138.579 108.706c6.736 5.296 7.911 15.046 2.637 21.783z" fill="#fff"/><path d="m194.778 141.178c0 12.853-10.415 23.268-23.268 23.268h-57.617c-12.853 0-23.268-10.415-23.268-23.268s10.415-23.268 23.268-23.268h57.617c12.853 0 23.268 10.415 23.268 23.268z" fill="#374c81"/><path d="m427.87 168.22c0 12.86-10.41 23.27-23.27 23.27h-14.29c-9.53 0-18.64 2.93-26.37 8.47l-107.94 77.28-114.28 81.81c-4.13 2.94-8.85 4.36-13.54 4.36-7.25 0-14.39-3.39-18.93-9.73-7.49-10.46-5.07-24.97 5.36-32.46l141.39-101.23 80.84-57.88c15.69-11.22 34.17-17.16 53.47-17.16h14.29c12.86 0 23.27 10.42 23.27 23.27z" fill="#ff85ce"/><path d="m427.87 168.22c0 12.86-10.41 23.27-23.27 23.27h-14.29c-9.53 0-18.64 2.93-26.37 8.47l-107.94 77.28v-57.25l80.84-57.88c15.69-11.22 34.17-17.16 53.47-17.16h14.29c12.86 0 23.27 10.42 23.27 23.27z" fill="#ff64b9"/><path d="m427.87 168.22c0 12.86-10.41 23.27-23.27 23.27h-14.29c-9.53 0-18.64 2.93-26.37 8.47l-107.94 77.28-114.28 81.81c-4.13 2.94-8.85 4.36-13.54 4.36-7.25 0-14.39-3.39-18.93-9.73l146.75-105.06 94.4-67.59c11.63-8.33 25.59-12.81 39.91-12.81z" fill="#ff64b9"/><path d="m427.87 168.22c0 12.86-10.41 23.27-23.27 23.27h-14.29c-9.53 0-18.64 2.93-26.37 8.47l-107.94 77.28v-28.62l94.4-67.59c11.63-8.33 25.59-12.81 39.91-12.81z" fill="#ff48a4"/><path d="m420.243 353.887c0 12.51-10.133 22.643-22.643 22.643s-22.643-10.133-22.643-22.643c0-12.497 10.133-22.631 22.643-22.631 12.509 0 22.643 10.133 22.643 22.631z" fill="#374c81"/><path d="m420.243 353.887c0 12.51-10.133 22.643-22.643 22.643v-45.273c12.509-.001 22.643 10.132 22.643 22.63z" fill="#323b5a"/><g><path d="m342.492 85v31.024h-55.135c-8.576 0-15.512-6.936-15.512-15.512 0-8.554 6.936-15.512 15.512-15.512z" fill="#364d81"/><path d="m342.492 100.512v15.512h-55.135c-8.576 0-15.512-6.936-15.512-15.512z" fill="#323b5a"/></g><path d="m194.778 141.178c0 12.853-10.415 23.268-23.268 23.268h-57.617c-12.853 0-23.268-10.415-23.268-23.268z" fill="#323b5a"/></g></g><path d="m440.46 433.5c-46.57 48.39-112 78.5-184.46 78.5s-137.89-30.11-184.46-78.5z" fill="#374c81"/><path d="m440.46 433.5c-46.57 48.39-112 78.5-184.46 78.5v-78.5z" fill="#323b5a"/></g></svg>