<svg xmlns="http://www.w3.org/2000/svg" width="108" height="24" xmlns:v="https://vecta.io/nano">
  <path d="M2.464 23.1a.59.59 0 0 0 .432-.173c.117-.116.176-.257.176-.425V16.99l5.792 5.86c.128.168.32.252.576.252h2.624c.277 0 .443-.1.496-.3a.5.5 0 0 0-.144-.52l-6.272-6.175 5.312-4.757c.15-.126.197-.3.144-.52s-.22-.33-.496-.33h-2.24c-.17 0-.32.037-.448.1s-.245.163-.352.268l-4.992 4.4V4.6c0-.168-.06-.3-.176-.425A.59.59 0 0 0 2.464 4H.608a.59.59 0 0 0-.432.173A.58.58 0 0 0 0 4.6v17.9c0 .168.06.3.176.425a.59.59 0 0 0 .432.173h1.856zM19.696 9.6c.832 0 1.605.15 2.32.448a5.89 5.89 0 0 1 1.872 1.232 5.54 5.54 0 0 1 1.248 1.872c.3.725.448 1.515.448 2.368l-.016.432a3.27 3.27 0 0 1-.048.432c-.043.363-.235.544-.576.544h0-8.704l.023.255c.044.34.143.676.297 1a3.8 3.8 0 0 0 .768 1.104c.32.32.704.576 1.152.768s.928.288 1.44.288a4.27 4.27 0 0 0 1.616-.304c.5-.203.912-.4 1.232-.624.192-.107.352-.18.48-.224s.256.02.384.192h0l.896 1.216.072.096a.74.74 0 0 1 .12.288c.02.128-.064.277-.256.448-.47.405-1.104.773-1.904 1.104s-1.744.496-2.832.496c-.96 0-1.84-.176-2.64-.528a5.96 5.96 0 0 1-2.032-1.44 6.59 6.59 0 0 1-1.296-2.144c-.3-.82-.464-1.7-.464-2.608a7.25 7.25 0 0 1 .464-2.576 6.59 6.59 0 0 1 1.296-2.144c.555-.608 1.227-1.093 2.016-1.456s1.664-.544 2.624-.544zm-.032 2.464c-.875 0-1.6.272-2.208.816s-.95 1.22-1.056 2.032h6.208a2.92 2.92 0 0 0-.272-1.088 3.2 3.2 0 0 0-.64-.912 2.9 2.9 0 0 0-.928-.624 2.8 2.8 0 0 0-1.104-.224zm11.68 10.656c.17 0 .315-.06.432-.176s.176-.26.176-.432v-8.536h3.456c.17 0 .315-.06.432-.176s.176-.26.176-.432v-1.44c0-.405-.203-.608-.608-.608h-3.456V8.952c0-1.088.224-1.888.672-2.4a2.19 2.19 0 0 1 1.728-.768c.384 0 .78.1 1.184.272s.715.347.928.496c.363.256.63.224.8-.096l.8-1.44c.064-.107.085-.23.064-.368a.65.65 0 0 0-.192-.368c-.3-.256-.763-.533-1.392-.832S35.163 3 34.288 3c-.768 0-1.483.123-2.144.368a4.65 4.65 0 0 0-1.728 1.12c-.5.5-.875 1.125-1.152 1.872s-.416 1.6-.416 2.592v1.968h-1.504c-.405 0-.608.203-.608.608v1.44c0 .17.06.315.176.432s.26.176.432.176h1.504v8.536c0 .17.06.315.176.432s.26.176.432.176h1.888zm11.424.32c.64 0 1.2-.08 1.712-.24a6.15 6.15 0 0 0 1.264-.544c.34-.203.62-.4.832-.592l.416-.384.32.928c.107.34.3.512.576.512h.896c.17 0 .315-.06.432-.176s.176-.26.176-.432h0V10.528c0-.17-.06-.315-.176-.432s-.26-.176-.432-.176h0-1.664c-.235 0-.4.037-.528.112s-.176.24-.176.496h0v7.648c-.02.15-.112.34-.272.576a3.41 3.41 0 0 1-.64.688 4.09 4.09 0 0 1-.976.592c-.384.17-.8.256-1.28.256-.8 0-1.45-.272-1.92-.816s-.704-1.34-.704-2.384h0v-6.56c0-.17-.06-.315-.176-.432s-.26-.176-.432-.176h0-1.824c-.17 0-.315.06-.432.176s-.176.26-.176.432h0v6.464c0 .832.1 1.616.272 2.352s.475 1.376.88 1.92.94.976 1.6 1.296 1.472.48 2.432.48zm11.552 0a2.18 2.18 0 0 0 1.584-.64c.437-.427.656-.95.656-1.568s-.22-1.147-.656-1.584-.965-.656-1.584-.656a2.11 2.11 0 0 0-1.568.656c-.428.436-.64.965-.64 1.584a2.13 2.13 0 0 0 .64 1.568 2.13 2.13 0 0 0 1.568.64zM92.3 10.22c-1.5 0-2.9.2-4.3.7h0c-.3.1-.4.4-.4.7l.2 1.1v.1c.1.3.4.5.7.4 1.1-.3 2.3-.5 3.5-.5 1.6 0 2 .8 1.9 2.7-.8-.2-1.6-.4-2.4-.4h0c-3.2 0-5 1.7-5 3.9v.5c.1 2.1 1.9 3.7 4 3.6 1.4 0 2.8-.6 3.8-1.6l.3.8c0 .3.3.4.5.4h.9a.65.65 0 0 0 .6-.6v-6.3c0-3.1-.3-5.5-4.3-5.5zm1.6 9.2c-.7.9-1.7 1.5-2.8 1.5h0-.2c-1-.1-1.8-.9-1.7-1.9 0-1.3 1-2 2.5-2 .8 0 1.5.2 2.2.5v1.9zm14 2l-.6-1.3c0-.1 0-.1-.1-.1-.1-.2-.4-.3-.6-.1-.6.3-1.2.5-1.9.5-.6 0-1-.2-1-1.2v-6h3.2a.65.65 0 0 0 .6-.6v-1.4c0-.3-.3-.6-.6-.5h-3.2v-3.6c0-.3-.2-.6-.6-.6h-1.8a.65.65 0 0 0-.6.6v3.4h-1.3a.65.65 0 0 0-.6.6v1.4a.65.65 0 0 0 .6.6h1.3v6.3c0 2.2.7 3.6 3.2 3.6 1.3-.1 2.5-.4 3.6-.9h.1c.4-.2.5-.5.3-.7zM78.7 10.5c-1.3 0-2.6.5-3.7 1.3V4.6a.65.65 0 0 0-.6-.6h-1.8a.65.65 0 0 0-.6.6h0v17.8a.65.65 0 0 0 .6.6h1.9c.3 0 .5-.3.5-.6v-7.3a3.86 3.86 0 0 1 3.3-1.9c1.6 0 2.6 1.1 2.6 3.1v6.2a.65.65 0 0 0 .6.6h1.7a.65.65 0 0 0 .6-.6v-6.1c0-3.4-1.6-5.9-5.1-5.9zm-9.4 9.12l-.8-.7a.53.53 0 0 0-.8.1c-.7.9-1.8 1.4-2.9 1.4-1.9-.1-3.5-1.7-3.6-3.6-.1-2.1 1.5-3.8 3.6-3.9.9 0 1.8.5 2.5 1.2.2.2.5.5.8.1l1-.9a.53.53 0 0 0 .1-.8c-1.1-1.4-2.7-2.2-4.5-2.2-3.6 0-6.4 2.9-6.5 6.4h0a6.32 6.32 0 0 0 6.5 6.3c1.9 0 3.8-.9 4.8-2.6v-.1c.2-.2.1-.5-.2-.7z" fill="#000"/>
  <path d="M15.012.5c-.3 6.6 5 7.5 5 7.5-.3-7.2-5-7.5-5-7.5z" fill="#15be60"/>
</svg>