<svg xmlns="http://www.w3.org/2000/svg" viewBox="0 0 1393 418"><defs><style>.cls-1{fill:#fff;stroke:#020202;stroke-miterlimit:10;stroke-width:4px;}.cls-2{fill:#c6272a;}.cls-3{fill:#020202;}.cls-4{fill:#c8c8c8;}.cls-5,.cls-7{fill:#c5272a;}.cls-5,.cls-6{fill-rule:evenodd;}.cls-6{fill:#231815;}</style></defs><title>资源 4</title><g id="图层_2" data-name="图层 2"><g id="图层_1-2" data-name="图层 1"><rect class="cls-1" x="2" y="2" width="1389" height="414" rx="43.5"/><path d="M87,80.83l34.5,45.5a518.31,518.31,0,0,1,55-22c68.93-23.09,132.09-28.07,181-27a348.13,348.13,0,0,0-53-16C213,41.49,133.37,63.16,87,80.83Z"/><path class="cls-2" d="M84.5,116.33a288.7,288.7,0,0,0,28,142,598.81,598.81,0,0,1,240-148,573.64,573.64,0,0,0-229,56q-8.46-10.17-17-21Q94.92,130.62,84.5,116.33Z"/><path class="cls-3" d="M150.5,251.33l-27,27a247.46,247.46,0,0,0,105,98,309.3,309.3,0,0,0,68-59c61.84-72.12,73.29-154,76-190l-44,21a257.93,257.93,0,0,1-18,72c-23.3,56.65-61.46,91.27-83,108a257.35,257.35,0,0,1-77-77Z"/><rect class="cls-4" x="448.5" y="47" width="8" height="324"/><path d="M530.41,137.69l21.09-.21c.45,3.7,1,5.3,2.43,7.23a11.13,11.13,0,0,0,9.64,4.7q4.68,0,7.21-2.4a7.45,7.45,0,0,0,2.53-5.57,7.36,7.36,0,0,0-2.41-5.39q-2.42-2.38-11.18-4.49-14.37-3.54-20.49-9.41a19.68,19.68,0,0,1-6.17-15,21.66,21.66,0,0,1,3.16-11.27,21.41,21.41,0,0,1,9.49-8.35q6.35-3,17.38-3,13.54,0,20.66,5.52t8.46,17.57l-20.71-.15a8.57,8.57,0,0,0-3.32-6.14A10.46,10.46,0,0,0,560.92,99q-3.81,0-5.74,1.77a5.65,5.65,0,0,0-1.92,4.31,4.47,4.47,0,0,0,1.59,3.33q1.54,1.53,7.32,2.85,14.33,3.38,20.52,6.84a22.42,22.42,0,0,1,9,8.58,23.4,23.4,0,0,1,2.82,11.47,26.23,26.23,0,0,1-3.76,13.73,24.23,24.23,0,0,1-10.51,9.54q-6.75,3.24-17,3.25-18,0-25-7.61T530.41,137.69Z"/><path d="M607.93,85.86h58.52V102.4H629.82v12.31H666.5V130.5H629.82v15.27H666.5v17.54H607.93Z"/><path d="M728.79,131.61,747.93,138a40.54,40.54,0,0,1-6.08,14.74,26.92,26.92,0,0,1-10.29,8.93q-6.15,3-15.64,3-11.52,0-18.82-3.67t-12.61-12.91q-5.29-9.24-5.3-23.65,0-19.22,9.33-29.54t26.39-10.32q13.35,0,21,5.92t11.35,18.17L728,113.33a18.7,18.7,0,0,0-2.12-5.17,13,13,0,0,0-4.48-4.23,11.94,11.94,0,0,0-5.93-1.48A12.57,12.57,0,0,0,704.06,109q-3,4.86-3,15.25,0,12.87,3.57,17.65a11.81,11.81,0,0,0,10,4.78q6.26,0,9.47-3.86T728.79,131.61Z"/><path d="M807,85.86h21.79V132a42.25,42.25,0,0,1-1.95,13,28.65,28.65,0,0,1-6.13,10.67A24.35,24.35,0,0,1,812,162a40.59,40.59,0,0,1-15.28,2.59,89.12,89.12,0,0,1-11.25-.79,27.48,27.48,0,0,1-10.2-3.15,26,26,0,0,1-7.49-6.67,25.25,25.25,0,0,1-4.66-8.93,50.21,50.21,0,0,1-2-13.09V85.86h21.79V133.1q0,6.33,3.2,9.9t8.9,3.56q5.64,0,8.84-3.51t3.21-10Z"/><path d="M846,163.31V85.86h36.39q10.13,0,15.48,1.9a16.74,16.74,0,0,1,8.63,7.06,22.91,22.91,0,0,1,3.27,12.54,23.09,23.09,0,0,1-2.51,11.12,20.59,20.59,0,0,1-6.89,7.58,24.86,24.86,0,0,1-7.67,3.07,20.94,20.94,0,0,1,5.68,2.85,23.36,23.36,0,0,1,3.5,4.07,30.48,30.48,0,0,1,3,4.82l10.58,22.44H890.83l-11.67-23.67c-1.48-3.06-2.79-5-3.95-6a8.61,8.61,0,0,0-5.35-1.8h-1.93v31.44Zm21.93-46.07h9.21a30,30,0,0,0,5.78-1.06,5.72,5.72,0,0,0,3.55-2.42,7.68,7.68,0,0,0,1.37-4.5,7.43,7.43,0,0,0-2.17-5.75c-1.45-1.34-4.16-2-8.15-2h-9.59Z"/><path d="M924.92,85.86h58.52V102.4H946.8v12.31l36.7-.23v16l-36.7,0v15.27h36.7v17.54H924.92Z"/><path class="cls-5" d="M1294.42,306.82V287.45h0c0-1.16-.06-11.95,0-16,.73-24.16-36.84-15.15-48.7-8.94V240.11c17.54-5.19,50.45-9.05,65.56,3.82,6.16,5.25,9.2,13.2,9.2,23.91v63.22c-25.86-15.61-52.6,16.47-74-5.71-5.27-5.48-7.87-12.46-7.87-20.93q0-10.2,4-16.63a28,28,0,0,1,11.41-10.2,58.85,58.85,0,0,1,18.14-5.28c4.62-.68,9.39-1.25,14.22-1.69v17.73c-1.13.13-2.3.29-3.49.45a50.41,50.41,0,0,0-9.43,2,12.62,12.62,0,0,0-6,4.1,11.17,11.17,0,0,0-2.1,7.08,19.21,19.21,0,0,0,.46,4.72,7.08,7.08,0,0,0,2.18,3.47,10.15,10.15,0,0,0,4,2.44,25.09,25.09,0,0,0,7.34.79,20.13,20.13,0,0,0,8-1.81,25.18,25.18,0,0,0,7.11-4.81Z"/><polygon class="cls-5" points="1226.23 333.39 1199.92 333.39 1199.92 235.03 1226.23 235.03 1226.23 333.39 1226.23 333.39"/><path class="cls-6" d="M894.12,301.4a27.88,27.88,0,0,1-11.41,23.21q-11.37,8.82-31.2,8.81a79.51,79.51,0,0,1-19.86-2.31A69.67,69.67,0,0,1,817.3,326V301.48c11.13,6.14,21.94,12.09,34.74,12.09,5.15,0,9-.65,11.47-2,3.79-2,5.49-7.95,1.51-10.67-1.44-1-4.23-2-8.32-2.93q-2.91-.76-7.92-1.61a79,79,0,0,1-9.09-2.12Q828.49,291,823.08,284t-5.4-17.39q0-13.42,11.22-22.32t30.67-8.89a71.61,71.61,0,0,1,17.63,2.12A65.31,65.31,0,0,1,890.4,242V265.5c-6.69-6.08-21.95-10.28-30.78-10.28a25.53,25.53,0,0,0-10.71,2c-4.24,1.89-6.24,7.2-2.38,10.67,1.34,1.15,4.42,2.31,9.28,3.47q4.05.88,8.66,1.78c3.09.57,6.22,1.31,9.34,2.18,6.9,2,12,5.24,15.33,9.63s5,9.88,5,16.44Z"/><path class="cls-6" d="M804.94,330.06c-24.37-11.65-58.25,13.5-75.08-6.3-5-5.84-7.34-14.61-7.34-26.12V237.13H749v46.1c0,4.69.16,8.58.4,11.69a22.47,22.47,0,0,0,1.87,7.73,8.7,8.7,0,0,0,4.22,4.47,17.49,17.49,0,0,0,7.84,1.42,22.54,22.54,0,0,0,7.45-1.42,30.84,30.84,0,0,0,7.91-4.12V237.13h26.29v92.93Z"/><polygon class="cls-6" points="611.96 260.22 584.88 260.22 584.88 332.38 556.81 332.38 556.81 260.22 529.76 260.22 529.76 236.4 611.96 236.4 611.96 260.22 611.96 260.22"/><polygon class="cls-6" points="985.13 260.22 958.04 260.22 958.04 332.38 929.98 332.38 929.98 260.22 902.93 260.22 902.93 236.4 985.13 236.4 985.13 260.22 985.13 260.22"/><path class="cls-6" d="M682.3,266a11.46,11.46,0,0,0-1.59-6.12,10.75,10.75,0,0,0-5.5-4,22.42,22.42,0,0,0-6.31-1.24c-2.42-.15-5.21-.24-8.41-.24h-9.65V280H659a85.54,85.54,0,0,0,10.71-.58,16,16,0,0,0,7.21-2.61A13,13,0,0,0,681,272.4,13.41,13.41,0,0,0,682.3,266Zm41.59,65.81H691.33L663.12,297H650.84v34.8H624.32V237H669a108.22,108.22,0,0,1,15.76,1A36.19,36.19,0,0,1,697.16,242a26.33,26.33,0,0,1,9.26,8.26q3.45,5.08,3.44,12.71,0,10.51-5.31,17.14t-15.17,11l34.51,40.64Z"/><path class="cls-5" d="M1187.56,301.4a28,28,0,0,1-11.4,23.21q-11.37,8.82-31.21,8.81a79.4,79.4,0,0,1-19.86-2.31,69.89,69.89,0,0,1-14.35-5.14V301.48c11.11,6.14,21.93,12.09,34.72,12.09,5.17,0,9-.65,11.49-2,3.79-2,5.48-7.95,1.52-10.67-1.45-1-4.26-2-8.33-2.93-2-.51-4.6-1.05-7.92-1.61a79.41,79.41,0,0,1-9.11-2.12Q1121.94,291,1116.53,284c-3.62-4.65-5.41-10.45-5.41-17.39q0-13.42,11.22-22.32t30.66-8.89a71.57,71.57,0,0,1,17.64,2.12,64.87,64.87,0,0,1,13.2,4.51V265.5c-6.7-6.08-21.95-10.28-30.76-10.28a25.63,25.63,0,0,0-10.73,2c-4.23,1.89-6.24,7.2-2.38,10.67q2,1.73,9.28,3.47c2.7.59,5.58,1.18,8.68,1.78s6.2,1.31,9.31,2.18q10.37,3,15.34,9.63t5,16.44Z"/><path class="cls-7" d="M1112.49,207.88l-5.34-9.54-64.22,82.37-6.07-3.41c2.89-9.56,6.22-20.59,10.77-35.57l6.25,20.69L1073.21,238l-9.07-27.77h-32.27l-17.72,54.27-8.86-5L993,272.38l9-.85L1042.61,318l18.76-29.56c3,9.8,10.31,32.88,14,45h29l-24.3-74.4Z"/><path class="cls-7" d="M991.64,333.41h28.27c3.22-10.64,5.79-19.09,8.09-26.71l-20-23.44Z"/></g></g></svg>