<svg width="550" height="223" xmlns="http://www.w3.org/2000/svg">
  <style type="text/css">
    .st0{fill:#F7F7F7;}
    .st1{fill:#1890ff;}
    .st2{fill:#FFFFFF;}
    .st3{fill:#4B4A4B;}
    .st4{fill:#D2D3D3;}
    .st5{fill:#F5F5F5;}
    .st6{fill:#FFF;}
    .st7{fill:#1890ff;}
  </style>
 <g>
  <title>background</title>
  <rect fill="none" id="canvas_background" height="225" width="552" y="-1" x="-1"/>
 </g>
 <g>
  <title>Layer 1</title>
  <g stroke="null" id="svg_2">
   <path stroke="null" id="svg_3" d="m528.56457,208.60388l-439.51668,0c-37.92941,0 -69.20182,-32.35611 -69.20182,-71.98847l0,-30.80797c-0.30963,-39.78717 30.80797,-72.29809 69.20182,-72.29809l439.51668,0c11.45623,0 20.43544,9.59846 20.43544,21.36432l0,132.36589c0,11.76586 -8.97921,21.36432 -20.43544,21.36432z" class="st1"/>
   <g stroke="null" id="svg_4">
    <path stroke="null" id="svg_5" d="m276.99197,51.15814l0,0l0,0l-2.16739,0c-15.17176,0.30963 -23.22209,6.50218 -25.07985,18.57767l-0.92888,7.7407c-0.61926,5.5733 0.30963,9.59846 3.09628,12.38511c3.09628,3.71553 8.97921,6.19256 17.64879,6.50218l2.16739,0c14.86213,0 22.91246,-6.19256 24.77022,-17.64879l0,0l0,-0.92888l0.92888,-7.7407c0.61926,-5.5733 -0.30963,-9.90809 -3.09628,-13.00437c-3.09628,-3.09628 -8.66958,-5.5733 -17.33916,-5.88293m7.12144,26.31836c-0.30963,3.09628 -1.23851,5.5733 -2.78665,7.43107c-1.85777,2.47702 -4.64442,4.02516 -8.97921,4.02516l-2.16739,0l0,0c-4.02516,0 -6.81181,-1.23851 -8.05032,-3.71553c-0.92888,-1.85777 -0.92888,-4.02516 -0.61926,-7.43107l0.92888,-7.12144c0.61926,-3.71553 1.85777,-6.81181 3.71553,-8.66958c1.85777,-1.85777 4.64442,-2.78665 8.05032,-2.78665l0,0l2.16739,0l0,0c2.47702,0 5.26367,0.30963 7.12144,2.78665c1.54814,1.85777 1.85777,4.64442 1.23851,8.35995l-0.61926,7.12144z" class="st2"/>
    <path stroke="null" id="svg_6" d="m399.91421,51.15814l0,0l0,0l-2.16739,0c-15.17176,0.30963 -23.22209,6.50218 -25.07985,18.57767l-0.92888,7.7407c-0.61926,5.5733 0.30963,9.59846 3.09628,12.38511c3.40591,3.71553 8.97921,6.19256 17.64879,6.50218l2.16739,0c14.86213,0 22.91246,-6.19256 24.77022,-17.64879l0,0l0,-0.92888l0.92888,-7.7407c0.61926,-5.5733 -0.30963,-9.90809 -3.09628,-13.00437c-3.25109,-3.09628 -9.13402,-5.5733 -17.33916,-5.88293m6.81181,26.31836c-0.30963,3.09628 -1.23851,5.5733 -2.78665,7.43107c-1.85777,2.47702 -4.64442,4.02516 -8.66958,4.02516l-2.16739,0l0,0c-4.02516,0 -6.81181,-1.23851 -8.05032,-3.71553c-0.92888,-1.85777 -0.92888,-4.02516 -0.61926,-7.43107l0.92888,-7.12144c0.61926,-3.71553 1.85777,-6.81181 3.71553,-8.66958c1.85777,-1.85777 4.64442,-2.78665 8.05032,-2.78665l0,0l2.16739,0l0,0c2.47702,0 5.26367,0.30963 7.12144,2.78665c1.54814,1.85777 1.85777,4.64442 1.23851,8.35995l-0.92888,7.12144z" class="st2"/>
    <path stroke="null" id="svg_7" d="m531.04159,57.35069c-3.40591,-3.71553 -8.97921,-6.19256 -17.33916,-6.19256l0,0l0,0l-2.16739,0c-15.17176,0.30963 -23.22209,6.50218 -25.07985,18.57767l-0.92888,7.7407c-0.61926,5.5733 0.30963,9.59846 3.09628,12.38511c3.09628,3.71553 8.97921,6.19256 17.64879,6.50218l2.16739,0c14.86213,0 22.91246,-6.19256 24.77022,-17.64879l0,0l0,-0.92888l0.92888,-7.7407c0.61926,-5.26367 -0.30963,-9.59846 -3.09628,-12.69474m-10.52735,20.12581c-0.30963,3.09628 -1.23851,5.5733 -2.78665,7.43107c-1.85777,2.47702 -4.64442,4.02516 -8.66958,4.02516l-2.16739,0l0,0c-4.02516,0 -6.81181,-1.23851 -8.05032,-3.71553c-0.92888,-1.85777 -0.92888,-4.02516 -0.61926,-7.43107l0.92888,-7.12144c0.61926,-3.71553 1.85777,-6.81181 3.71553,-8.66958c1.85777,-1.85777 4.64442,-2.78665 8.05032,-2.78665l0,0l2.16739,0c2.16739,0 5.26367,0.30963 7.12144,2.78665c1.54814,1.85777 1.85777,4.64442 1.23851,8.35995l-0.92888,7.12144z" class="st2"/>
    <path stroke="null" id="svg_8" d="m438.15325,64.78176c0.30963,0 0.92888,0 1.23851,0c1.54814,0.30963 2.47702,0.92888 3.09628,1.54814c0.92888,1.23851 1.54814,2.78665 1.23851,4.64442l-1.54814,13.314l0,0l-0.30963,3.40591l0,0.30963l0,0l0,0l7.43107,0c0.30963,0 1.23851,0 1.85777,0c3.40591,-0.30963 8.66958,-1.54814 10.21772,-5.88293l0,-0.30963c0.30963,-1.23851 0.61926,-2.47702 0.92888,-3.71553l0.61926,-4.64442l0,0l0,0l0.30963,-2.16739c0.30963,-1.85777 0.30963,-3.40591 0,-4.95404c-0.61926,-4.33479 -5.5733,-5.5733 -8.66958,-5.88293c-0.61926,0 -1.23851,0 -1.85777,0l-7.43107,0l0,0l-5.26367,0l-0.61926,0l0,0c-1.85777,0 -2.78665,-0.30963 -3.40591,-0.92888c-1.54814,-1.23851 -2.47702,-3.09628 -2.47702,-5.5733l0,-1.23851l0.92888,0l0.61926,0l15.79102,0c0,0 0,0 0.30963,0l1.85777,0c9.59846,0 16.10065,2.16739 19.50655,5.88293c2.78665,3.09628 3.71553,7.12144 3.09628,12.07548l-0.30963,2.78665l-0.61926,4.33479c0,0.61926 -0.30963,1.54814 -0.30963,2.16739c-0.30963,2.78665 -1.23851,5.26367 -2.47702,7.12144c-1.23851,2.16739 -3.09628,4.02516 -5.26367,5.26367c-0.61926,0.30963 -1.54814,0.92888 -2.16739,1.23851c-1.54814,0.92888 -3.71553,1.54814 -5.88293,1.85777c-0.61926,0 -1.85777,0.30963 -3.09628,0.30963c-1.54814,0 -3.40591,0.30963 -5.26367,0.30963l-13.314,0l0,0l-1.85777,0c-3.40591,0 -5.26367,-0.61926 -6.19256,-1.85777c-0.30963,-0.30963 -0.30963,-0.30963 -0.61926,-0.61926c-0.30963,-0.61926 -0.61926,-1.54814 -0.30963,-2.47702l1.54814,-12.07548l1.85777,-13.93325l6.81181,-0.30963l0,0z" class="st2"/>
    <path stroke="null" id="svg_9" d="m241.22996,87.84903l-1.54814,0l-11.76586,0l-4.02516,0l0,0c-2.47702,0 -4.33479,-0.30963 -5.5733,-0.61926c-1.54814,-0.30963 -2.47702,-0.92888 -3.40591,-1.85777c-0.61926,-0.61926 -0.92888,-1.54814 -1.23851,-2.47702l0,-0.30963c0,-0.30963 0,-0.92888 -0.30963,-1.23851c0,-1.23851 0,-2.47702 0.30963,-3.71553l0.92888,-6.50218c0,-0.92888 0.30963,-1.54814 0.30963,-2.16739c0,-0.30963 0,-0.30963 0.30963,-0.61926l0,0c0.30963,-0.61926 0.30963,-1.23851 0.61926,-1.54814l0,-0.30963c0.30963,-0.30963 0.30963,-0.92888 0.61926,-1.23851c0.30963,-0.30963 0.30963,-0.61926 0.61926,-0.92888c0.92888,-1.23851 2.47702,-2.16739 4.02516,-2.78665c1.85777,-0.61926 4.02516,-0.92888 6.81181,-0.92888l9.59846,0l0,0c1.85777,0 3.09628,-0.30963 3.71553,-0.92888c0.92888,-0.61926 1.54814,-1.23851 2.47702,-2.16739c0,0 0.30963,-0.30963 0.30963,-0.61926c0.61926,-0.92888 0.92888,-1.85777 1.23851,-2.78665l0.30963,-1.23851l-17.02953,0l-0.30963,0l-0.92888,0l-1.23851,0c-2.16739,0 -4.02516,0.30963 -5.88293,0.61926c-10.83697,1.54814 -16.7199,7.43107 -17.95841,17.64879l-0.92888,7.7407c-0.61926,5.26367 0.30963,9.28883 2.78665,12.07548c2.78665,3.40591 8.05032,5.5733 15.48139,5.88293l13.314,0c1.85777,0 3.40591,-0.30963 4.33479,-0.61926c1.23851,-0.61926 2.16739,-1.85777 2.78665,-3.09628c0.30963,-0.30963 0.30963,-0.61926 0.61926,-0.92888c-0.30963,-1.23851 0.30963,-2.78665 0.61926,-4.33479z" class="st2"/>
    <path stroke="null" id="svg_10" d="m319.25617,88.77792l0,0.61926c-0.30963,1.85777 -1.23851,3.40591 -2.47702,4.64442c-0.92888,0.92888 -2.47702,1.85777 -4.64442,1.85777l-6.50218,0l0.61926,-4.95404l0.30963,-1.85777l4.33479,-36.38127l0.92888,0l4.33479,0c3.40591,0 5.5733,0.92888 6.81181,2.47702l11.76586,18.8873l16.7199,-18.8873c1.54814,-1.54814 3.71553,-2.47702 7.12144,-2.47702l4.33479,0l1.23851,0l-4.33479,36.07164l0,0.61926c-0.30963,1.85777 -1.23851,3.40591 -2.47702,4.64442c-0.92888,0.92888 -2.47702,1.54814 -4.64442,1.54814l-6.19256,0l3.09628,-25.38948l-13.314,16.7199c-0.30963,0.30963 -1.54814,1.85777 -3.09628,1.85777l0,0l0,0c-1.54814,0 -2.47702,-1.54814 -2.78665,-2.16739l-8.66958,-16.41027l-2.47702,18.57767" class="st2"/>
   </g>
   <path stroke="null" id="svg_11" d="m173.57628,112l352.20163,0c6.50218,0 11.76586,5.26367 11.76586,11.76586l0,64.24777c0,6.50218 -5.26367,11.76586 -11.76586,11.76586l-413.97238,0" class="st2"/>
   <g stroke="null" id="svg_12">
    <g stroke="null" id="svg_13">
     <path stroke="null" id="svg_14" d="m217.07899,183.67884c-6.81181,0 -11.45623,-2.16739 -15.79102,-6.19256l5.5733,-6.50218c3.09628,3.40591 7.7407,4.95404 10.21772,4.95404c4.64442,0 7.43107,-1.85777 8.05032,-5.5733c0.92888,-5.5733 -7.43107,-8.35995 -11.45623,-10.52735c-5.88293,-3.09628 -10.52735,-7.12144 -10.52735,-14.24288c0,-7.7407 6.19256,-13.62362 15.79102,-13.62362c6.81181,0 11.1466,3.09628 13.62362,6.19256l-4.95404,6.50218c-2.47702,-3.09628 -5.5733,-4.33479 -8.66958,-4.33479c-4.33479,0 -6.81181,2.47702 -6.50218,5.26367c0.30963,5.26367 8.66958,8.05032 12.69474,10.21772c6.50218,3.71553 11.76586,9.90809 8.97921,17.95841c-2.78665,6.50218 -9.59846,9.90809 -17.02953,9.90809z" class="st3"/>
     <path stroke="null" id="svg_15" d="m287.20969,183.05959l-30.80797,0l0,-50.62415l31.11759,0l-2.16739,8.05032l-19.81618,0l0,12.38511l19.19692,0l0,8.05032l-19.19692,0l0,13.93325l23.22209,0l-1.54814,8.20514z" class="st3"/>
     <path stroke="null" id="svg_16" d="m325.44872,183.67884c-7.7407,0 -16.10065,-3.71553 -16.10065,-12.38511l0,-25.54429c0,-8.35995 8.05032,-13.93325 16.41027,-13.93325c6.19256,0 11.1466,2.47702 13.62362,5.26367l-3.71553,7.43107c-3.09628,-3.09628 -7.43107,-4.33479 -9.90809,-4.33479c-4.02516,0 -7.43107,2.47702 -7.43107,7.43107l0,21.98357c0,4.02516 4.33479,6.19256 7.7407,6.19256c2.47702,0 7.12144,-0.92888 12.07548,-4.33479l2.16739,8.05032c-4.64442,2.63184 -8.35995,4.17998 -14.86213,4.17998z" class="st3"/>
     <path stroke="null" id="svg_17" d="m394.03128,170.9841c0,8.66958 -8.97921,12.69474 -16.7199,12.69474c-7.7407,0 -16.7199,-4.02516 -16.7199,-12.69474l0,-38.54866l9.28883,0l0,37.61978c0,4.02516 4.33479,5.88293 7.7407,5.88293c3.40591,0 7.43107,-1.54814 7.43107,-5.88293l0,-37.61978l8.97921,0l0,38.54866z" class="st3"/>
     <path stroke="null" id="svg_18" d="m441.86878,183.05959l-12.38511,-19.81618l-4.64442,0l0,19.81618l-8.35995,0l0,-50.31452l15.48139,0c7.7407,0 15.79102,4.02516 15.79102,13.00437l0,4.02516c0,4.95404 -2.78665,11.45623 -9.28883,12.69474l13.62362,20.74506c0,-0.15481 -10.21772,-0.15481 -10.21772,-0.15481zm-2.78665,-37.15534c0,-4.33479 -3.40591,-5.88293 -8.05032,-5.88293l-6.19256,0l0,15.48139l6.19256,0c4.33479,0 8.05032,-1.85777 8.05032,-6.50218l0,-3.09628z" class="st3"/>
     <path stroke="null" id="svg_19" d="m502.40102,183.05959l-30.80797,0l0,-50.62415l31.11759,0l-2.16739,8.05032l-19.81618,0l0,12.38511l19.19692,0l0,8.05032l-19.19692,0l0,13.93325l23.22209,0l-1.54814,8.20514z" class="st3"/>
    </g>
   </g>
   <g stroke="null" id="svg_20">
    <g stroke="null" id="svg_21">
     <path stroke="null" id="svg_22" d="m192.77321,49.30037l-95.05574,-47.8375l-95.36537,47.8375c-14.24288,147.53765 95.36537,173.23676 95.36537,173.23676s109.1438,-25.69911 95.05574,-173.23676z" class="st4"/>
     <path stroke="null" id="svg_23" d="m180.69772,57.35069l-82.98025,-41.64494l-82.98025,41.64494c-12.38511,128.34073 82.98025,150.63393 82.98025,150.63393s95.36537,-22.13839 82.98025,-150.63393z" class="st5"/>
     <path stroke="null" id="svg_24" d="m97.09821,207.98462c0,0 -95.36537,-22.60283 -82.98025,-150.94356l82.98025,-41.33531l0,192.27887z" class="st6"/>
    </g>
    <g stroke="null" id="svg_25">
     <path stroke="null" id="svg_26" d="m77.28203,118.81181c-2.16739,0 -4.02516,-1.85777 -4.02516,-4.02516l0,-39.47755c0,-10.83697 10.52735,-19.19692 23.53171,-19.19692l1.23851,0c13.00437,0 22.91246,8.35995 22.91246,19.19692l0,15.17176c0,2.16739 -1.85777,4.02516 -4.02516,4.02516s-4.02516,-1.85777 -4.02516,-4.02516l0,-15.17176c0,-6.19256 -6.19256,-11.1466 -14.86213,-11.1466l-1.23851,0c-8.66958,0 -15.48139,5.26367 -15.48139,11.1466l0,39.78717c0,2.16739 -1.85777,3.71553 -4.02516,3.71553z" class="st1"/>
     <path stroke="null" id="svg_27" d="m128.83506,144.66574c0,4.95404 -4.02516,9.28883 -10.21772,9.28883l-43.19308,0c-5.88293,0 -10.83697,-4.33479 -10.83697,-9.28883l0,-36.38127c0,-4.95404 4.95404,-8.97921 10.83697,-8.97921l43.19308,0c5.88293,0 10.21772,4.02516 10.21772,8.97921l0,36.38127z" class="st7"/>
    </g>
    <path stroke="null" id="svg_28" d="m103.44558,119.43107c0,-3.09628 -2.47702,-5.5733 -5.5733,-5.5733l-0.30963,0c-3.09628,0 -5.5733,2.47702 -5.5733,5.5733l0,0.30963c0,3.09628 2.47702,5.5733 5.5733,5.5733l0.30963,0c3.25109,0 5.5733,-2.78665 5.5733,-5.88293l0,0z" class="st6"/>
    <path stroke="null" id="svg_29" d="m100.50412,137.85393c0,1.54814 -1.23851,2.47702 -2.47702,2.47702l0,0c-1.54814,0 -2.47702,-1.23851 -2.47702,-2.47702l0,-14.86213c0,-1.54814 1.23851,-2.47702 2.47702,-2.47702l0,0c1.54814,0 2.47702,1.23851 2.47702,2.47702l0,14.86213z" class="st6"/>
   </g>
  </g>
 </g>
</svg>